<svg xmlns="http://www.w3.org/2000/svg" width="500" height="500" viewBox="0 0 500 500"><path fill="#EA6D11" d="M-1349.536-183.08c-3.205-3.673-8.282-5.354-13.058-5.235-6.185.153-10.166 4.14-12.396 9.51-3.3 7.945-.07 18.756 1.225 26.832 1.014 6.314 1.114 12.422 4.304 18.14 2.936 5.265 8.654 8.223 10.65 14.068 2.025 5.935.404 12.317-.285 18.32-.26 2.27-.7 4.8-1.65 6.89-.97 2.134-.754.932-.17.693-2.306.943 1.402-.197 2.057 1.563-3.346-8.982-17.866-5.183-14.49 3.883 4.56 12.24 19.255 12.337 25.594 1.363 2.887-5 3.203-11.14 4.052-16.71 1.02-6.686 1.154-13.304-.62-19.883-1.754-6.513-6.155-11.197-10.703-15.895-4.085-4.22-3.49-11.58-4.368-17.042-.676-4.212-1.45-8.35-1.658-12.623-.096-1.96-.04-3.77.53-5.64-.157.516-1.308 1.513-1.04 1.506.705-.02 1.053.445 1.47.924 6.36 7.29 16.886-3.404 10.554-10.664z"/><path fill="#EA6D11" d="M-1328.495-83.613c-1.148-15.78-1.272-31.6-.63-47.405.32-7.86 1-15.685 1.62-23.524.302-3.793.8-7.572 1.19-11.356.18-1.75.31-3.506.417-5.264-.034-.522.027-1.027.182-1.515.616-1.91-.01-1.292-1.882 1.853l-3.852 1.032c-3.03-.01-3.793-2.223-1.9.612 1.11 1.663 2.076 3.436 3.01 5.202 1.557 2.95 2.657 6.088 3.686 9.252 2.42 7.44 3.818 15.21 4.967 22.935 2.543 17.1 4.5 34.955 4.113 52.25 4.657-1.25 9.314-2.497 13.97-3.745-.363-.513-.642-1.07-.835-1.672-1.588-3.775-7.096-4.53-10.267-2.672-3.87 2.27-4.257 6.503-2.672 10.27.195.6.474 1.158.837 1.67 3.9 6.334 13.803 3.743 13.97-3.743.43-19.154-2.037-38.83-4.853-57.76-1.228-8.253-2.997-16.434-5.717-24.33-2.516-7.3-6.324-17.13-12.954-21.675-6.516-4.467-13.06.907-14.276 7.566-1.782 9.757-2.116 20.106-2.896 29.993-1.62 20.58-1.73 41.33-.23 61.917.7 9.598 15.707 9.75 15.005.11z"/><path fill="#EA6D11" d="M-1337.56-110.72c7.79 2.163 15.815-.4 23.67-.57 9.67-.207 9.776-15.21.108-15.002-6.256.134-14.222 2.656-19.817 1.103-9.34-2.592-13.27 11.887-3.96 14.47zM-1308.536-176.224c2.733 7.598 3.354 15.372 3.74 23.377.436 9.026 1.327 17.79 2.72 26.716 1.255 8.06 1.54 16.424 1.733 24.57.14 5.948-1.26 12.897 1.006 18.58 1.515 3.795 4.886 6.455 9.186 5.303 3.596-.964 6.82-5.38 5.303-9.186-1.844-4.622-.403-10.856-.52-15.75-.217-9.157-.95-18.33-2.22-27.4-1.15-8.198-1.89-16.206-2.29-24.484-.417-8.654-1.22-17.408-4.17-25.608-3.25-9.035-17.765-5.226-14.49 3.88zM-1287.886-179.892c-1.002 15.505 4.756 30.264 5.786 45.586 1.222 18.185.487 36.547 1.323 54.765.192 4.2 3.202 7.37 7.447 7.555 7.024.308 13.907-1.508 20.906-1.672 9.668-.227 9.776-15.23.108-15.003-7 .164-13.882 1.98-20.906 1.672 2.482 2.52 4.965 5.037 7.447 7.556-.81-17.69-.848-35.4-1.254-53.103-.365-15.95-6.888-31.23-5.853-47.25.626-9.68-14.383-9.705-15.003-.107zM-1237.33-177.552c-.313-.187-.61-.396-.89-.627l3.495 4.555c-.076-.222-.152-.444-.23-.667l-.008 3.92c.094-.404.188-.81.28-1.214l-14.735-2.035c.008 15.777.228 31.552 1.13 47.308.63 11.055 1.244 22.362 3.69 33.2 1.66 7.36 6.868 17.825 16.282 14.39 10.273-3.75 12.764-16.42 13.593-25.95.918-10.547.19-21.26.736-31.846.7-13.565.765-27.352-2.288-40.663-2.25-9.812-9.207-19.955-20.475-17.43-9.933 2.226-11.32 14.71-12.82 22.826-1.75 9.46 12.71 13.47 14.47 3.96.532-2.875.915-5.765 1.586-8.616.276-1.17.625-2.366 1.15-3.435 1.057-2.142.047.368-1.368-.386 1.392.74 2.304 4.718 2.74 6.15 1.318 4.35 1.744 8.986 2.077 13.497.748 10.134.156 20.352-.434 30.477-.465 7.994.145 16.006-.284 24.006-.192 3.585-.764 7.03-1.938 10.43-.267.774-.858 1.61-1.364 2.244-1.482 1.857 2.39-.432 4.34 1.368 1.352 1.248-.62-1.508-.223-.506-.563-1.42-.93-2.92-1.293-4.4-.62-2.533-1.01-5.125-1.38-7.706-3.25-22.6-2.912-46.03-2.924-68.812-.004-8.394-12.79-10.457-14.736-2.035-1.095 4.734.176 8.304 4.32 10.984 8.14 5.265 15.602-7.75 7.502-12.99zM-1213.46-184.073c-.237 9.128 2.424 18.06 2.703 27.19.282 9.21.206 18.426.23 27.638.028 9.62.226 19.24.596 28.854.172 4.485.41 8.967.682 13.448.282 4.642-.185 10.047 4.62 12.525 5.042 2.6 11.07-.635 11.25-6.44.034-1.038-.183-2.055-.318-3.08-.535-4.064-5.628-6.257-9.186-5.304-4.34 1.162-5.836 5.132-5.304 9.185l-.195-.91 11.25-6.442-.48-.248 3.752 6.55c-1.23-17.258-1.657-34.55-1.673-51.85-.01-8.55-.02-17.097-.28-25.644-.262-8.525-2.87-16.853-2.648-25.366.254-9.692-14.75-9.753-15-.107z"/><path fill="#EA6D11" d="M-1203.6-178.028c2.86-.946 3.166-.926 4.68 1.34 2.393 3.59 3.293 8.062 4.143 12.535 1.563 8.225 1.665 17.337 2.164 25.944.167 2.865.18 5.728-.07 8.586-.027.308-.414 1.595-.147.97-.587 1.373 1.28-.506-.574.058-7 2.133-10.387 7.28-8.763 14.57 1.297 5.825 7.483 10.416 11.506 14.378 5.748 5.66 9.902 12.772 15.804 18.386 6.995 6.653 17.58-3.98 10.55-10.665-5.913-5.625-10.156-12.588-15.804-18.386-2.22-2.278-4.598-4.378-6.74-6.736-.28-.308-1.005-1.697-.88-.728.438 3.4-4.878 4.61-.91 3.4 14.654-4.464 10.966-22.41 10.302-34.075-.913-16.023-3.995-52.388-29.143-44.065-9.143 3.026-5.312 17.532 3.88 14.49zM-1123.61-81.104c-.166-7.902 3.106-15.27 4.186-23.02 1.336-9.588 2.212-19.227 3.16-28.86 1.758-17.862 3-36.132 7.022-53.654-4.568.605-9.137 1.21-13.705 1.817 9.58 19.975 5.11 43.743 11.77 64.624 2.047 6.42 13.34 7.983 14.48.04 1.57-10.96 1.388-22.137 3.344-33.032 2.05-11.415 5.388-22.565 7.944-33.868l-14.478-.04c2.88 9.483 1.313 19.544 2.086 29.3.896 11.3 3.423 22.71 6.504 33.597 2.467 8.717 5.85 17.172 7.22 26.16.99 6.517 1.032 13.9 4.198 19.84 4.55 8.536 17.484.933 12.94-7.595.908 1.706-.31-1.202-.434-1.723-.344-1.434-.562-2.9-.796-4.355-.602-3.737-1.033-7.5-1.603-11.243-1.394-9.15-5.037-17.898-7.55-26.776-2.882-10.184-5.126-20.92-5.73-31.496-.57-9.985.608-19.853-2.348-29.59-2.074-6.83-12.767-7.62-14.48-.04-2.56 11.312-5.766 22.47-7.945 33.867-2.088 10.92-1.772 22.06-3.345 33.03l14.48.04c-7.145-22.407-2.94-46.695-13.32-68.338-2.817-5.875-12.313-4.242-13.704 1.817-4.17 18.17-5.463 37.058-7.36 55.57-.988 9.635-1.757 19.297-3.093 28.892-1.177 8.452-4.63 16.234-4.448 24.923.204 9.673 15.207 9.778 15.005.11z"/><path fill="#EA6D11" d="M-1053.214-77.924c5.468-16.428 3.267-35.024 2.847-52.013-.274-11.126-.596-22.287-.605-33.416-.004-5.522-.215-11.986.898-17.027.124-.523.272-1.04.444-1.55-.287.622-.24.573.138-.147-1.5 2.67-7.08.46-4.942 2.554 1.45 1.42 1.337 6.303 1.484 8.267.708 9.467 2.435 18.416 4.198 27.75 2.072 10.967 3.884 21.885 4.94 33 1.033 10.91 1.99 21.86 4.553 32.54l9.226-9.175-.785-.315 4.49 3.438-.47-.94c-4.324-8.65-17.248-1.025-12.94 7.595 1.308 2.613 3.123 3.644 5.745 4.69 5.565 2.225 10.425-4.174 9.225-9.175-2.826-11.78-3.5-23.85-4.767-35.858-1.317-12.502-3.735-24.898-6.186-37.22-.916-4.606-1.8-8.906-2.063-13.585-.254-4.54-.587-9.133-1.726-13.55-2.12-8.21-10.496-15.853-19.105-11.484-6.118 3.104-6.747 12.382-7.11 18.266-.654 10.552-.102 21.186.174 31.74.28 10.644.498 21.3.697 31.948.185 9.886.33 20.22-2.827 29.706-3.066 9.207 11.43 13.092 14.47 3.96z"/><path fill="#EA6D11" d="M-1057.576-112.125c7.113.076 14.208.796 21.325.836 9.687.057 9.768-14.947.106-15.002-7.116-.04-14.21-.76-21.324-.836-9.69-.103-9.766 14.9-.108 15.003zM-1008.403-82.448c-1.315-2.606-.927-6.194-.883-9.006.063-3.962.236-7.913.256-11.877.05-10.213.35-20.422.4-30.634.09-17.57-2.46-35.836 1.83-53.09-4.57.604-9.138 1.21-13.706 1.816 7.76 16.444 8.136 35.25 10.933 52.918 3.033 19.165 7.074 38.497 13.38 56.866 2.87 8.36 13.702 6.414 14.747-1.887 2.314-18.393 1.007-36.928 1.596-55.4.577-18.097 3.745-36.004 3.84-54.15.05-9.69-14.953-9.77-15.004-.108-.09 17.486-2.45 34.853-3.764 52.266-1.438 19.088.73 38.21-1.672 57.284l14.746-1.887c-6.49-18.906-10.52-38.786-13.64-58.505-2.977-18.802-3.967-37.496-12.223-54.993-2.822-5.98-12.224-4.14-13.705 1.817-4.777 19.216-2.272 39.297-2.37 58.858-.055 10.85-.386 21.697-.405 32.548-.015 8.43-1.24 16.943 2.704 24.758 4.358 8.632 17.283 1.01 12.94-7.596zM-907.633-174.02c-3.386-4.817-4.21-10.87-8.17-15.605-4.442-5.31-14.1-6.504-19.63-2.39-5.776 4.296-6.745 11.387-6.645 18.147.115 7.842.208 15.715.414 23.557.22 8.32 1.207 20.598 7.65 26.816 4.89 4.718 13.52 4.955 15.324 12.08 1.625 6.41-.243 13.992-1.428 20.34-.283 1.522-.532 3.047-.793 4.573-.16.938-1.42 3.972-.75 3.468-1.094.82-4.857-.01-5.27-1.322-2.892-9.2-17.393-5.357-14.49 3.882 2.507 7.975 10.572 12.515 18.633 12.782 8.965.297 14.73-6.787 16.347-14.85 2.896-14.437 7.037-32.302-4.128-44.218-2.608-2.785-6.534-3.98-9.915-5.465-3.943-1.73-4.388-5.458-5.315-9.358-2.148-9.028-.51-18.797-1.077-27.997-.174-2.816-.288-5.62-.106-8.438.002-.036.524-2.22.344-1.825.826-1.815-1.22.26-.537.375 2.564.428 4.962 10.71 6.6 13.043 5.514 7.846 18.514.337 12.94-7.597zM-886.53-75.25c2.062-25.543 1.787-51.204 3.853-76.748.466-5.752.854-11.522 1.65-17.24.498-3.578 1.144-7.142 2.105-10.625.15-.523.312-1.042.487-1.557.733-2.24-.575 1.03.342-.795.666-1.325-.822.544-1.132.785-1.565 1.214-4.765.84-6.133-.514-.905-.896-.054.34.034.594.47 1.364.773 2.787 1.073 4.196.708 3.324 1.043 6.706 1.33 10.086.543 6.398.578 12.812.803 19.224.463 13.242 1.17 26.534 2.522 39.717.733 7.14.62 14.265 1.73 21.38.262 1.678.557 3.347.86 5.018.137.76.332 1.642.43 2.403.124.982-.423 2.425.193.657l3.438-4.49-.22.13c-8.322 4.903-.754 17.858 7.596 12.94 5.008-2.952 4.175-8.396 3.446-13.22-.96-6.342-1.84-12.453-2.114-18.893-.67-15.823-2.392-31.586-2.945-47.43-.264-7.52-.395-15-1.248-22.485-.903-7.928-1.795-17.104-8.596-22.256-3.395-2.57-8.867-1.365-11.665 1.457-2.66 2.684-3.95 6.362-4.935 9.93-2.282 8.262-2.932 17.102-3.645 25.615-2.29 27.297-2.063 54.716-4.27 82.012-.775 9.667 14.235 9.678 15.01.11z"/><path fill="#EA6D11" d="M-884.382-109.813c1.713-1.118-1.21.13.75-.32-1.394.32 1.355.206 1.745.243-.62-.104-.478-.086.43.053.902.13 1.806.257 2.71.38 1.02.132 2.028.23 3.058.26 4.086.11 7.53-3.426 7.557-7.448.027-4.15-3.364-7.444-7.448-7.556-.288-.01-2.873-.244-1.917-.107-1.683-.24-3.362-.5-5.055-.66-3.22-.305-6.712.445-9.425 2.215-3.42 2.232-4.814 6.613-2.672 10.268 1.993 3.397 6.844 4.906 10.268 2.67zM-848.617-81.893c.635.734.955 1.868.552.045-.11-.492-.145-1.078-.214-2.73-.16-3.83.138-7.688.458-11.503.616-7.36 1.708-14.673 2.84-21.968 1.542-9.957 2.194-19.89 2.512-29.958.175-5.573.354-11.132.38-16.708.025-5.285-.03-11.065 2.22-15.973l-11.77 1.583c7.233 9.195 5.52 23.567 5.08 34.41-.53 13.18-1.045 26.947 5.433 38.9 2.15 3.966 8.783 5.227 11.803 1.48 8.36-10.382 10.046-23.723 11.76-36.533 1.603-11.984 1.142-26.464 6.963-37.33-4.322.015-8.645.03-12.966.047 7.27 14.57 3.87 33.417 3.247 49.03-.34 8.548.018 17.152.12 25.704.11 9.178.377 18.564 2.55 27.523 2.28 9.41 16.765 5.505 14.488-3.882-1.99-8.207-1.955-16.786-2.055-25.184-.107-8.98-.377-17.972.023-26.948.803-18.004 2.893-37.148-5.434-53.84-2.512-5.035-10.41-4.72-12.965.05-6.055 11.3-6.54 24.69-7.965 37.168-.646 5.65-1.454 11.32-2.482 16.913-1.023 5.563-2.3 12.197-5.95 16.73 3.934.49 7.867.984 11.802 1.477-5.887-10.863-3.542-25.065-3.156-36.882.462-14.146-.722-28.03-9.746-39.5-2.857-3.63-9.902-2.49-11.77 1.584-5.245 11.44-4.06 24.046-4.493 36.31-.388 10.957-.857 21.748-2.52 32.584-1.347 8.788-2.6 17.613-3.212 26.486-.494 7.134-1.06 15.82 3.917 21.58 6.322 7.32 16.845-3.38 10.55-10.665zM-1354.404-2.025c-2.118-8.31-4.123-15.35-13.083-18.38-9.328-3.156-17.853 2.666-20.752 11.333-2.288 6.842-1.167 14.828-1.547 21.93-.466 8.707-1.35 17.365-1.25 26.095.098 8.728 1.33 17.382 5.07 25.323 1.722 3.656 4.53 6.675 7.615 9.21 2.365 1.943 5.888 4.313 6.927 6.133 1.42 2.49.964 8.752.997 12.18.058 6.116-.35 12.23-.175 18.348.053 1.842 1.057 6.757-.198 8.313-.614.76-1.586.604-2.442.422-.52-.11-1.35-.362-1.818-.736-.135-.108.056 1.656-.255 2.045 2.544-3.187 3.086-7.503-.057-10.607-2.675-2.642-8.053-3.146-10.608.057-7.59 9.516-2.812 19.137 7.638 23.363 9.792 3.96 20.76-2.755 22.415-12.845.764-4.655.27-9.337.29-14.025.03-6.482.34-12.95.09-19.432-.376-9.726-2.61-16.45-10.398-22.422-6.55-5.024-8.942-10.496-9.756-18.71-.928-9.356-.04-18.85.63-28.19.5-7.017-.43-14.71 1.053-21.566.326-1.508.337-1.515.95-2.15-.765.793 1.238.173 1.952.52 1.492.73 1.825 6.11 2.224 7.675 2.387 9.378 16.873 5.485 14.486-3.882zM-1338.414 128.896c4.3-23.12 3.003-46.875 5.468-70.21 1.28-12.11 3.036-24.163 4.39-36.264 1.323-11.82 1.417-23.826 3.642-35.526-4.568.605-9.136 1.21-13.705 1.817 8.342 19.293 7.263 41.685 10.226 62.143 1.774 12.247 2.51 24.654 3.444 36.985.488 6.434 1.016 12.863 1.663 19.282.318 3.155.702 6.3 1.12 9.442.338 2.54 1.225 5.29.782 7.87-1.623 9.466 12.837 13.487 14.47 3.962 1.027-5.993-.265-11.392-.955-17.337-.817-7.04-1.38-14.11-1.928-21.174-1.063-13.682-2.08-27.343-3.84-40.958-2.947-22.76-2.796-46.423-12.042-67.81-2.558-5.917-12.556-4.226-13.705 1.816-2.114 11.11-2.51 22.368-3.575 33.602-1.15 12.146-2.904 24.23-4.347 36.342-1.442 12.105-2.31 24.23-2.73 36.414-.41 11.923-.662 23.883-2.85 35.643-1.756 9.46 12.706 13.468 14.473 3.96z"/><path fill="#EA6D11" d="M-1339.35 78.385c-.975.41-1.008.49-.102.24-1.556.332 1 .04 1.117.04 1.438-.015 3.292.136 4.466.306 2.6.376 5.23.89 7.74 1.68 9.255 2.92 13.154-11.57 3.96-14.47-7.675-2.42-17.2-3.938-24.777-.734-3.772 1.596-4.533 7.092-2.672 10.268 2.268 3.866 6.507 4.263 10.27 2.67zM-1285.147 127.47c.012-26.643.495-53.282.793-79.922.136-12.22-.06-24.463.27-36.678.24-8.79 1.775-18.943-1.32-27.395-3.3-9.008-17.817-5.204-14.49 3.882 2.743 7.486.985 16.864.774 24.66-.336 12.445-.12 24.924-.26 37.373-.29 25.99-.76 51.98-.77 77.972-.004 9.686 15 9.77 15.003.108zM-1276.618-12.787c1.115 1.642 1.55 4.514 1.7 7.615.24 4.98-.172 10.003-.616 14.962-.915 10.23-2.113 20.206-2.354 30.49-.37 15.87-.614 31.742-.347 47.614.232 13.754-.503 27.93 2.342 41.463.705 3.353 3.978 5.387 7.19 5.56 5.027.273 9.973-.77 15-.5 9.687.525 9.722-14.482.108-15.003-5.027-.272-9.973.772-15 .5 2.396 1.854 4.793 3.708 7.19 5.56-2.805-13.337-1.7-27.863-1.89-41.44-.22-15.87.126-31.746.502-47.612.232-9.77 1.672-19.37 2.483-29.1.722-8.658 1.79-20.102-3.37-27.704-5.395-7.95-18.385-.43-12.938 7.595zM-1220.373-21.417c-5.57-5.76-13.704-3.994-17.31 2.86-3.394 6.444-4.06 14.37-4.855 21.47-2.037 18.178-.33 36.18-.1 54.416.192 15.505-1.256 30.945-1.202 46.427.04 11.35 2.198 25.297 14.558 29.484 12.496 4.233 19.313-7.07 21.088-17.66 2.372-14.15 1.546-28.827 1.546-43.11 0-22.8-.917-45.664-.55-68.444.15-9.13-.74-15.912-6.624-23.015-5.086-6.137-15.21-8.27-19.322.155-4.222 8.65 8.74 16.208 12.99 7.5 4.316-8.842-4.195 2.78-5.63 1.556.503.43 1.122 1.042 1.518 1.566 1.002 1.33 1.687 2.204 1.813 3.313.845 7.46.112 15.167.368 22.672.55 16.188.435 32.394.435 48.588 0 14.626.686 29.466-.858 44.036-.257 2.428-.572 5.41-1.524 7.676-.686 1.633.13 1.026-.684 1.017.315.002-1.348-1.166-1.916-1.774-1.407-1.51-1.583-4.575-1.813-6.46-.85-6.94-.3-14.044.106-20.996.482-8.22.695-16.448.735-24.682.066-13.384-.76-26.71-1.114-40.08-.16-6.103.293-12.267.816-18.342.302-3.502.68-6.72 1.232-9.924.275-1.6.62-3.185 1.01-4.76.174-.695.38-1.38.59-2.065.133-.415.274-.825.427-1.232-.368.832-.385.887-.05.166.725-1.53-.126-.19-.84.334-1.518 1.117-3.804.608-5.317-.053 1.292.565-1.273-1.215-.073.026 6.725 6.955 17.282-3.704 10.552-10.663zM-1199.15-16.64c-.015 28.95-.67 57.896-.915 86.843-.086 10.207-.076 20.384.23 30.584.142 4.77.248 9.542.216 14.314-.01 1.81-.068 3.618-.178 5.424-.015.243-.3 2.636-.012.69-.28 1.876.32-.257.166-.05-2.432 3.294-.497 8.374 2.745 10.245 3.836 2.213 7.82.54 10.246-2.746 1.892-2.564 1.804-6.647 1.948-9.67.216-4.546.093-9.116-.008-13.664-.22-9.916-.446-19.787-.386-29.71.185-30.718.937-61.432.953-92.15.005-9.687-14.998-9.772-15.003-.11z"/><path fill="#EA6D11" d="M-1191.703-11.083c2.643.14 3.628.846 5.44 2.867 1.583 1.764 2.684 5.49 3.42 8.415 1.848 7.348 1.826 15.12 1.78 22.65-.063 10.804-.295 21.594-.81 32.386-.13 2.767-.242 5.527-.54 8.282-.108.988-1.508 3.836-.193 2.142-1.066 1.374 1.054-.5-.556.342 1.414-.74-1.06.136-1.17.162-2.213.507-4.51.715-6.757 1.007-4.064.53-6.255 5.633-5.303 9.187 1.164 4.344 5.132 5.83 9.186 5.304 5.138-.667 10.177-1.19 14.325-4.584 4.035-3.302 4.833-8.61 5.472-13.45 1.803-13.647 1.275-27.84 1.357-41.6.108-18.188-1.74-46.858-25.54-48.11-9.69-.512-9.726 14.495-.11 15z"/><path fill="#EA6D11" d="M-1192.63 79.65c1.4.268-1.58-.938-.232-.122-2.183-1.322.793 1.258-.382-.286 1.268 1.667 2.21 3.59 3.117 5.467 2.27 4.696 3.855 9.852 5.43 14.888 2.807 8.985 5.035 18.127 7.304 27.258 2.335 9.395 16.82 5.496 14.49-3.882-2.543-10.23-5.086-20.446-8.33-30.48-2.687-8.31-7.01-25.322-17.436-27.314-9.455-1.807-13.458 12.655-3.96 14.47zM-1357.124 313.748c4.796-8.746 3.935-19.85 4.307-29.492.516-13.408 1.16-26.813 1.365-40.23.204-13.3.443-26.6 1.836-39.84.663-6.303 1.8-12.536 3.232-18.707 1.385-5.97 4.767-12.65 4.767-18.802 0-9.687-15.004-9.772-15.004-.108 0 8.912 1.926 18.273 2.77 27.167.803 8.466 1.91 16.897 2.738 25.36 1.255 12.832 1.1 28.312 9.023 39.2 3.998 5.49 11.24 4.435 13.706-1.817 5.442-13.807 5.394-29.097 7.08-43.652.815-7.023 2.313-13.993 3.296-21 1.11-7.922 2.417-15.794 5.125-23.348l-14.48-.04c5.227 22.468 1.86 46.096 4.42 68.91 1.472 13.108 2.605 26.25 3.906 39.376.63 6.346 1.322 12.685 2.07 19.017.455 3.85 2.325 8.984 1.113 12.775-2.953 9.244 11.538 13.14 14.47 3.96 1.49-4.663.552-9.613-.175-14.328-.89-5.77-1.473-11.573-2.074-17.378-1.428-13.775-2.607-27.574-4.087-41.344-2.67-24.81.53-50.437-5.153-74.87-1.805-7.76-12.113-6.646-14.48-.04-2.512 7.013-3.803 14.283-4.88 21.633-1.145 7.81-2.58 15.584-3.655 23.4-1.972 14.354-1.577 29.3-6.965 42.968 4.568-.605 9.137-1.21 13.705-1.817-6.738-9.257-6.065-23-7.202-33.902-.865-8.29-1.89-16.556-2.676-24.855-.785-8.272-2.59-16.976-2.59-25.265 0-9.687-15.004-9.772-15.004-.108 0 2.098-1.65 5.483-2.233 7.616-.834 3.06-1.716 6.11-2.433 9.2-1.437 6.192-2.334 12.503-3.117 18.808-1.56 12.565-1.787 25.272-1.993 37.917-.208 12.746-.707 25.47-1.2 38.207-.22 5.68-.4 11.358-.596 17.037-.12 3.494-.204 7.763-1.92 10.896-4.65 8.475 8.33 15.993 12.988 7.498zM-1285.617 311.052c2.563-24.083 4.997-48.147 5.542-72.376.537-23.86 3.535-47.624 9.69-70.698-4.567.605-9.136 1.21-13.704 1.817 4.293 9.07 4.408 19.388 5.726 29.143 1.74 12.876 4.618 25.552 6.6 38.386 1.944 12.59 3.638 25.19 5.283 37.82.74 5.697 2.037 11.316 2.93 16.99.42 2.682.558 5.392.588 8.103-.006 1.07-.06 2.14-.158 3.206-.353 4.948-.8-.107 2.204-1.416-3.754 1.635-4.55 7.064-2.672 10.268 2.25 3.84 6.522 4.303 10.268 2.672 5.28-2.3 4.972-8.173 5.317-13.005.447-6.26-.837-12.746-1.927-18.88-2.474-13.917-4.028-27.958-6.157-41.934-2.153-14.135-5.103-28.126-7.25-42.26-1.918-12.61-2.25-24.935-7.81-36.69-2.862-6.044-12.135-4.07-13.706 1.818-6.324 23.706-9.374 48.178-10.172 72.673-.81 24.874-2.96 49.51-5.594 74.252-.432 4.07 3.667 7.53 7.45 7.556 4.393.03 7.12-3.385 7.553-7.446z"/><path fill="#EA6D11" d="M-1289.1 259.233c4.58 1.123 9.196 2 13.865 2.642 3.872.533 8.26 1.155 12.058-.132 9.113-3.09 5.29-17.598-3.882-14.49-.74.2-.707.248.102.147-.877.108-1.783.057-2.663.033-1.59-.042-3.19-.236-4.762-.474-3.616-.55-7.204-1.325-10.755-2.197-9.4-2.306-13.357 12.165-3.962 14.47zM-1231.624 313.248c9.083-19.17 6.447-42.704 6.527-63.314.104-26.828.517-54.713 6.713-80.956l-14.48-.04c6.953 22.52 7.434 46.218 11.128 69.344 2.03 12.707 3.047 25.563 4.272 38.364.6 6.28 1.366 12.54 1.993 18.813.56 5.602 1.113 10.63 3.38 15.834 2.71 6.223 12.138 3.905 13.705-1.817 6.438-23.515 5.804-48.026 7.157-72.16.72-12.783 1.197-25.595 1.262-38.398.033-6.445-.13-12.89-.455-19.325-.237-4.625.476-12.336-2.23-16.396-5.335-8.004-18.32-.477-12.94 7.595-1.628-2.443-.268 2.216-.21 2.952.26 3.19.418 6.388.56 9.585.256 5.802.292 11.613.263 17.42-.062 12.146-.51 24.333-1.25 36.457-1.398 22.86-.523 46.018-6.627 68.307 4.568-.605 9.137-1.21 13.705-1.817-1.723-3.957-1.432-9.273-1.92-13.492-.738-6.396-1.332-12.81-1.937-19.22-1.156-12.227-2.382-24.444-4.24-36.588-3.535-23.13-4.182-46.847-11.127-69.344-2.112-6.844-12.694-7.6-14.48-.04-2.796 11.848-4.138 24.375-5.325 36.48-1.32 13.47-1.697 27.025-1.86 40.554-.143 11.72.074 23.444-.137 35.162-.17 9.352-.353 19.914-4.437 28.534-4.115 8.687 8.843 16.256 12.99 7.502zM-1322.728 352.195c-1.988-7.272-3.832-15.23-12.97-15.84-8.837-.587-15.306 5.075-17.53 13.306-1.943 7.2-.746 14.962-.746 22.303 0 12.236.043 24.526.672 36.747.457 8.872 1.79 16.04 8.617 21.94 5.79 5.005 6.008 12.596 5.996 19.79-.01 7.833-1.472 15.603-1.333 23.426.035 1.946.064 3.882-.033 5.827-.055 1.074-1.398 2.984-.115 1.995-2 1.54-2.692-.628-2.8-2.998-.443-9.642-15.447-9.77-15.004-.108.39 8.506 5.77 18.738 15.555 18.715 10.644-.025 16.456-7.596 17.366-17.495.31-3.355-.098-6.747.084-10.11.22-4.11.742-8.21 1.02-12.318.592-8.777.637-18.295-2.637-26.595-1.518-3.854-3.646-7.078-6.63-9.96-1.187-1.15-2.507-2.153-3.716-3.28.357.62.3.535-.17-.257.496.82-.447-2.33-.402-2.104-1.06-5.427-.797-10.884-1.053-16.37-.3-6.37-.36-12.75-.398-19.127-.047-8.16-.814-16.608-.076-24.74.102-1.134.443-2.29.953-3.274-.214.413.235-.312 1.198-.38-1.863.132-2.334-3.317-1.42.138.408 1.54.664 3.113 1.086 4.65 2.55 9.327 17.04 5.45 14.488-3.883zM-1304.738 490.617c2.652-6.37 2.813-13.475 3.05-20.28.282-8.01.98-16.015 1.52-24.01 1.167-17.2 2.355-34.365 4.216-51.507 1.03-9.473 1.787-18.916 2.65-28.4.385-4.215.88-8.41 1.8-12.545.18-.806.405-1.6.64-2.39.396-1.337-.416.437.514-1.145-1.676 2.85 1.324-1.736.87-.954.855-1.478 1.01-3.044 1.01-4.696l-11.253 6.44c-.593-.373.157.404.73 1.535.71 1.402 1.126 3.54 1.534 5.217 1.016 4.155 1.568 8.426 2.15 12.66 1.49 10.82 2.957 21.7 4.883 32.45 2.45 13.676 4.322 27.1 5.035 40.994.357 6.95.518 13.908.662 20.863.078 3.782.143 7.563.215 11.347.028 1.54.05 3.08.09 4.62.105 3.978-1.138 2.27 2.65-.65-3.235 2.494-4.94 6.4-2.673 10.267 1.87 3.19 7.023 5.174 10.268 2.672 5.59-4.31 4.795-10.39 4.666-16.8-.16-8.21-.29-16.418-.56-24.624-.543-16.425-1.89-32.86-5.158-48.986-2.56-12.613-4.113-25.49-5.893-38.234-1.27-9.073-2.63-20.962-11.103-26.32-4.803-3.037-11.252.956-11.252 6.44v1c.723-1.74 1.445-3.48 2.17-5.22-5.982 4.83-6.064 16.926-6.787 23.76-.943 8.934-1.445 17.886-2.447 26.82-1.847 16.478-3.118 32.966-4.24 49.505-.567 8.38-1.136 16.758-1.694 25.137-.477 7.127.066 14.348-2.734 21.074-1.574 3.785 1.69 8.236 5.256 9.215 4.32 1.185 7.646-1.49 9.214-5.256z"/><path fill="#EA6D11" d="M-1301.175 439.105c2.87-1.36 10.777.6 14.723 1.266 4.03.683 8.053-1.023 9.215-5.253 1-3.643-1.223-8.535-5.254-9.217-8.64-1.46-17.997-3.664-26.28.266-3.695 1.754-4.6 6.978-2.672 10.268 2.2 3.753 6.577 4.422 10.267 2.67zM-1254.738 492.117c4.838-28.482 7.643-56.896 9.69-85.69.825-11.605 2.1-23.17 2.784-34.782.268-4.58.58-9.153 1.496-13.654.914-4.492 3.89-8.06 3.297-12.8l-11.253 6.442c-.633-.392-.805-.89-.352-.168.85 1.343.434.667.813 1.713 1.023 2.82 1.588 5.816 2.12 8.76 1.09 6.027 1.556 12.16 2.083 18.256 1.5 17.336 6.704 34.054 8.085 51.39.633 7.95 13.033 10.918 14.736 2.035 2.823-14.715 5.087-29.52 7.056-44.37 1.957-14.772 5.52-29.622 5.713-44.557-4.917.63-9.833 1.26-14.747 1.888 4.426 11.28 3.943 23.63 4.473 35.536.62 13.99 1.926 28.06 3.762 41.94 1.875 14.184 3.633 28.368 5.064 42.603.36 3.563.426 7.17.537 10.745.063 2.07.1 4.142.112 6.213.004.764-.006 1.528-.023 2.293-.048 2.293-.728.124.82-2.02-2.397 3.317-.522 8.357 2.747 10.244 3.81 2.2 7.852.565 10.244-2.744 1.76-2.436 1.23-6.73 1.198-9.563-.05-4.26-.21-8.523-.463-12.777-.855-14.45-2.91-29.032-4.984-43.352-2.08-14.377-3.27-28.97-4.013-43.474-.674-13.165-.088-27.045-4.986-39.526-2.954-7.528-14.628-7.12-14.745 1.887-.186 14.316-3.654 28.53-5.47 42.7-1.82 14.19-4.07 28.326-6.765 42.375 4.912.678 9.826 1.355 14.738 2.034-.955-11.98-3.44-23.688-5.816-35.446-.508-2.51-.982-5.028-1.44-7.55-.34-1.86-.003.376-.245-1.934-.336-3.212-.578-6.435-.86-9.652-.66-7.436-1.42-14.91-2.933-22.228-1.254-6.07-3.412-12.804-8.957-16.24-4.373-2.707-11.963.75-11.252 6.442.076 1.978.244 2 .508.067-.688 1.056-1.16 2.363-1.625 3.51-.707 1.755-1.22 3.53-1.646 5.372-1.125 4.858-1.512 9.936-1.863 14.898-.798 11.19-1.825 22.356-2.67 33.546-2.173 28.785-4.6 57.188-9.438 85.682-1.608 9.463 12.853 13.485 14.47 3.96z"/><path fill="none" stroke="#EA6D11" stroke-miterlimit="10" d="M-735.994-30.503h300v300h-300z"/><path fill="none" stroke="#EA6D11" stroke-miterlimit="10" d="M-735.994-31.002h300v150h-300z"/><path fill="#EA6D11" d="M-698.087-16.022c1.178-6.404-1.577-14.683-9.007-15.778-7.586-1.118-11.535 4.686-13.927 10.972-6.057 15.92-5.904 34.564-4.805 51.27.977 14.834 9.316 27.656 11.773 42.196.945 5.59 1.22 11.332.924 16.99-.132 2.53-.61 4.947-1.387 7.358-.496 1.54-1.195 2.07-2.106 2.54 3.023.38 6.048.76 9.072 1.138-.106-.13.256-2.345.227-2.113.52-4.062-3.73-7.53-7.45-7.555-4.46-.03-7.036 3.396-7.555 7.447-.638 4.984 1.137 9.096 4.227 12.887 2.172 2.665 6.315 2.558 9.073 1.136 9.304-4.796 10.87-16.813 11.017-26.166.152-9.865-1.447-20.062-4.444-29.454-2.01-6.3-4.95-12.248-6.854-18.588-2.367-7.88-2.133-16.577-2.05-24.73.09-8.66 1.845-16.578 3.353-25.02.327-1.83.854-3.622 1.454-5.377-.105.31.806-1.57.773-1.513-1.27 2.254-7.376 1.637-6.78-1.602-1.74 9.463 12.72 13.472 14.47 3.963zM-682.547 108.165c.655.5.964 1.1.925 1.793-.102-1.045.03-2.126.12-3.166.152-1.728.65-3.477 1.025-5.166 1.044-4.696 1.755-9.386 2.56-14.13 2.106-12.447 5.677-24.607 7.768-37.045 3.203-19.05 2.14-41.827 13.823-58.202l-13.74-1.81c6.728 18.61 9.093 38.376 10.633 57.998.843 10.737 1.36 21.483 2.456 32.2 1.2 11.755 2.576 23.48 2.654 35.31.064 9.682 15.068 9.773 15.004.107-.08-11.827-1.43-23.56-2.654-35.308-1.117-10.714-1.644-21.463-2.457-32.2-1.583-20.884-3.99-42.188-11.147-61.988-2.313-6.4-9.83-7.286-13.74-1.81-13.08 18.33-11.946 43.027-15.74 64.27-2.554 14.314-6.585 28.265-8.596 42.7-1.228 8.807-6.392 19.424.557 27.114 6.485 7.18 17.02-3.503 10.55-10.665z"/><path fill="#EA6D11" d="M-680.303 64.232c6.333 1.026 12.542.804 18.927.767 9.683-.057 9.773-15.06.107-15.004-4.97.03-10.14.565-15.072-.233-4.036-.654-8.048 1.004-9.216 5.254-.995 3.623 1.218 8.562 5.255 9.215zM-612.578 109.557c-1.43-3.596-.675-7.618-.81-11.417-.185-5.15-.358-10.3-.513-15.453-.33-11.015-.42-22.025-.42-33.044V18.007c0-8.1 2.667-20.887-3.772-27.325-3.71-3.71-8.957-2.225-11.77 1.583-.6.808-.862 1.814-1.197 2.753-3.252 9.14 11.25 13.008 14.472 3.96l-.284.787-11.77 1.583c.074.076.15.152.227.228l-1.97-3.392c1.432 3.55 1.44 6.856 1.264 10.63-.235 5.007-.205 10.005-.205 15.017v31.637c0 10.335.22 20.664.54 30.994.154 4.993.503 10.01.44 15.003-.048 4.022-.235 8.17 1.277 11.976 1.51 3.797 4.89 6.454 9.186 5.303 3.602-.966 6.818-5.38 5.304-9.186zM-592.058-22.483c-1.346 8.257-.073 17.097-.33 25.454-.333 10.912-1.436 21.792-2.422 32.657-2.003 22.052-.617 43.743-.015 65.816.085 3.085 2.173 6.762 5.52 7.29 7.6 1.196 15.203 2.638 22.928 2.266 9.638-.465 9.768-15.47.107-15.004-6.463.31-12.715-.732-19.073-1.733l5.52 7.29c-.565-20.72-2.128-41.24-.33-61.943.89-10.253 1.92-20.492 2.51-30.768.295-5.13.41-10.27.393-15.41-.014-3.743-.934-8.302-.338-11.954 1.543-9.466-12.916-13.495-14.47-3.96zM-546.317-18.252c-2.452 3.866-2.577 9.035-3.003 13.453-.578 6.013-1.557 11.886-2.64 17.834-2.82 15.49-4.864 30.54-4.864 46.307v22.42c0 5.958-.636 11.984.013 17.918 1.02 9.338 7.575 19.016 17.77 19.4 15.647.587 21.65-24.087 24.374-35.485 2.022-8.464 3.147-17.008 4.466-25.64 2.123-13.896 3.55-27.977 1.562-41.977-.94-6.613-2.765-12.717-5.34-18.87-2.692-6.433-7.207-11.99-9.6-18.55-3.288-9.012-17.806-5.207-14.488 3.883 2.507 6.87 6.43 12.894 9.774 19.356 2.806 5.42 4.372 11.64 5.102 17.68 1.583 13.093-.17 26.478-2.247 39.41-.51 3.184-1.06 6.362-1.6 9.542-.283 1.67-.564 3.336-.787 5.016.33-2.49.103-.786.018-.268-.444 2.703-1.06 5.378-1.712 8.037-1.73 7.044-3.808 13.93-7.542 20.06-.9 1.478-.622 1.123-2.038 2.542-1.46 1.462 1.165-.685-.464.34-1.586 1 1.48-.38-.262.057 1.804-.453-.478-.474 1.113-.104 1.472.342-.18-.134-.604-.4.466.293-1.614-1.492-1.906-2.215-1.813-4.484-.763-10.146-.615-14.842.226-7.184.015-14.408.015-21.596 0-15.136.937-29.495 3.66-44.404 1.175-6.433 2.443-12.868 3.27-19.356.306-2.404.462-4.83.694-7.24.088-.922.19-1.84.34-2.75.23-1.423.232-1.588.528-2.055 5.19-8.188-7.82-15.655-12.99-7.502zM-498.824-7.557c-.068 19.934-2.15 39.774-2.888 59.682-.704 19.02 5.7 37.354 5.388 56.318l14.746-1.887c-3.086-19.55-.68-39.615-.173-59.27.27-10.528-.288-21.062-.293-31.592-.004-10.715.21-21.428.223-32.143L-489.376-9c5.855.117 11.215 1.852 16.067 5.125 4.658 3.143 6.082 9.717 6.5 14.936.442 5.53-.627 10.797-3.644 15.466-2.914 4.51-8.31 5.026-12.794 7.036-5.39 2.414-4.303 8.905-3.953 13.513.604 7.96 1.774 15.863 2.72 23.786 1.36 11.376 2.3 25.572 10.382 34.47 6.506 7.16 17.043-3.52 10.55-10.666-2.667-2.938-3.763-10.216-4.598-14.736-1.153-6.246-1.79-12.6-2.584-18.9-.51-4.052-.953-8.113-1.326-12.18-.17-1.835-.283-3.673-.457-5.506-.42-4.425 1.077.24-3.14 3.16-1.83 1.267.963-.147 1.675-.364 1.936-.59 3.792-1.365 5.626-2.215 3.135-1.452 5.973-3.915 8.268-6.46 9.577-10.626 10.15-27.012 5.506-39.907-5.132-14.25-20.264-21.273-34.69-21.56-4.068-.082-7.55 3.4-7.556 7.446-.023 21.22.505 42.53.07 63.734-.435 21.167-2.638 42.204.688 63.26 1.354 8.582 14.61 6.312 14.746-1.886.313-18.98-5.997-37.312-5.39-56.318.64-19.915 2.82-39.743 2.89-59.682.033-9.686-14.97-9.77-15.004-.107zM-719.32 263.052c.187-41.723 12.285-81.917 22.233-122.074l-14.48-.04c1.876 6.812.855 14.004.468 20.958-.442 7.97.23 15.67 3.81 22.9 2.803 5.662 12.512 4.44 13.704-1.818 3.06-16.056 7.185-31.885 12-47.5l-14.48-.04c4.21 20.715.92 42.06 2.243 63.005.704 11.138 1.412 22.263 1.91 33.414.233 5.24.458 10.483.7 15.724.246 5.3-.698 11.843 4.774 14.748 5.74 3.047 12.66-1.958 10.995-8.436-.23-.898-1.462-3.333-.633-1.336-1.567-3.775-4.844-6.467-9.186-5.304-3.555.953-6.876 5.4-5.303 9.186.367.884 1.32 4.006.633 1.336l10.994-8.436-.633-.336 3.752 6.55c-1.08-20.837-2.463-41.71-3.285-62.55-.812-20.575 1.665-41.075-2.474-61.446-1.554-7.654-12.397-6.786-14.478-.04-4.814 15.615-8.94 31.444-12 47.5 4.568-.605 9.137-1.21 13.705-1.817-2.756-5.566-1.927-12.367-1.558-18.356.45-7.327.802-14.63-1.17-21.788-1.943-7.064-12.655-7.396-14.478-.04-10.257 41.403-22.573 82.91-22.767 125.926-.042 9.69 14.96 9.77 15.005.11z"/><path fill="#EA6D11" d="M-662.578 254.057c-3.363-18.356 3.113-37.627 5.596-55.733 1.362-9.933 2.158-19.886 3.84-29.786 1.826-10.755 4.167-21.418 6.556-32.06-4.827-.012-9.653-.025-14.48-.04 5.97 20.497 6.504 41.98 9.5 63 1.28 8.978 3.45 17.83 5.095 26.743 1.47 7.964 3.114 16.727 1.914 24.837-.598 4.045.965 8.037 5.255 9.216 3.58.983 8.616-1.208 9.215-5.255 2.74-18.537-3.044-37.262-6.32-55.382-4.034-22.295-3.793-45.14-10.17-67.04-2.006-6.885-12.79-7.57-14.48-.04-4.775 21.278-8.278 42.45-10.728 64.11-2.327 20.568-9.105 40.443-5.28 61.31 1.74 9.523 16.216 5.567 14.485-3.88z"/><path fill="#EA6D11" d="M-666.803 211.232c4.8 1.192 9.27.347 13.922-.99 3.927-1.13 6.375-5.182 5.302-9.186-1.043-3.895-5.255-6.434-9.186-5.304-1.427.41-2.85.82-4.303 1.128-2.17.46 1.403-.024-.8.028-2.006.048 1.088.365-.976-.147-3.97-.984-8.114 1.248-9.216 5.255-1.06 3.872 1.295 8.234 5.257 9.217zM-615.32 254.552c.134-38.508 7.916-76.336 12-114.5l-15.004-.108c.514 23 1.472 45.99 1.5 69 .022 18.27-1.19 37.3 4.258 54.995 2.592 8.417 13.92 6.386 14.746-1.888 2.316-23.196 9.936-45.54 13.51-68.553 1.824-11.756 2.464-23.59 3.582-35.418.687-7.27 2.373-16.97-2.124-23.382-5.507-7.854-18.506-.343-12.94 7.596 2.648 3.776.193 13.627-.174 18.577-.85 11.47-1.753 22.945-3.743 34.285-3.925 22.364-10.85 44.133-13.113 66.787l14.746-1.887c-5.238-17.013-3.724-35.413-3.745-52.977-.027-22.35-.998-44.686-1.497-67.027-.22-9.854-13.99-9.556-15.003-.108-4.084 38.165-11.865 75.992-12 114.5-.034 9.686 14.97 9.77 15.003.107zM-539.77 132.996c-30.148 1.87-18.915 37.443-11.743 55.194 1.583 3.917 3.334 7.772 4.477 11.848 1.903 6.784 2.19 13.944 2.185 20.947-.012 13.372-1.406 29.06-8.467 40.763l11.77-1.583c-4.99-5.363-4.287-12.78-4.272-19.613.02-9.688-14.982-9.77-15.003-.108-.023 11.333.626 21.683 8.727 30.387 3.362 3.614 9.358 2.417 11.77-1.582 6.898-11.434 9.007-25.558 10.082-38.64 1.065-12.97.734-27.22-4.003-39.494-3.417-8.854-7.233-17.473-9.51-26.728-.987-4.014-1.704-9.015-1.123-12.156.06-.324.952-2.867.438-1.748.707-1.54.216-.63.875-1.332.626-.666-.014-.125 1.477-.872-.627.314 1.73-.25 2.216-.28 9.614-.595 9.757-15.6.105-15.002z"/><path fill="#EA6D11" d="M-517.32 258.052c.178-19.232 5.405-37.8 8.658-56.636 3.218-18.634 5.09-37.55 11.575-55.438l-14.737-2.035c.1 15.054 2.344 29.964 3.224 44.973.458 7.798.034 15.45-.363 23.23-.427 8.374-.813 16.77-.595 25.158.145 5.54.038 14.793 5.986 17.688 8.653 4.21 16.213-8.75 7.5-12.99.796.506 1.448 1.155 1.956 1.947 1.065 1.667.436 1.15.188.252-.153-.554-.24-1.128-.336-1.694.305 1.803-.048-.634-.064-.826-.303-3.383-.298-6.797-.283-10.19.03-7.698.445-15.394.85-23.08 1.14-21.59-2.918-42.81-3.06-64.36-.058-8.864-11.91-9.832-14.736-2.036-6.477 17.865-8.447 36.807-11.575 55.438-3.38 20.13-9.002 39.94-9.192 60.488-.092 9.692 14.912 9.77 15.002.11z"/><path fill="#EA6D11" d="M-500.087 220.478c.062-.313.137-.607.238-.91l-.738 1.77c.143-.34.306-.64.527-.937l-1.164 1.527c.168-.19.337-.35.536-.51-.512.4-1.023.797-1.535 1.195.21-.138.414-.25.644-.35l-1.855.774c.332-.117.654-.19 1.003-.237l-1.995.256c.49-.036.96-.014 1.445.048l-1.926-.267c.548.093 1.076.227 1.605.395 3.9 1.236 8.165-1.432 9.216-5.254 1.115-4.06-1.365-7.984-5.255-9.215-2.475-.784-5.48-1.098-7.976-.216-3.624 1.28-6.48 4.107-7.24 7.97-.79 4.01 1.104 8.075 5.255 9.216 3.725 1.023 8.425-1.246 9.216-5.255zM-488.558 240.017l-1.5 4.5 14.48.04c-3.986-14.644.357-31.074 2.24-45.785 2.28-17.81 4.607-35.61 7.75-53.293-4.568.604-9.137 1.21-13.705 1.816 4.52 10.804-.282 24.37-.032 35.648.162 7.28 10.305 10.622 13.997 3.804 7.495-13.84 8.996-29.957 11.24-45.27l-14.48-.04c5.39 18.61 1.842 38.453 2.243 57.505.455 21.577.17 43.475 5.758 64.495 2.177 8.192 14.746 6.616 14.746-1.887v-1.5c0-9.686-15.005-9.77-15.005-.107v1.5l14.746-1.887c-5.372-20.22-4.837-41.307-5.274-62.057-.42-20.01 2.948-40.36-2.725-59.944-1.908-6.593-13.335-7.84-14.478-.04-2.025 13.827-2.99 29.23-9.76 41.73l13.997 3.804c-.334-14.975 4.008-28.914-2.033-43.352-2.48-5.924-12.632-4.223-13.705 1.817-3.368 18.956-5.837 38.054-8.282 57.146-2.09 16.326-6.154 33.51-1.727 49.776 2.03 7.464 12.172 6.96 14.48.04l1.5-4.5c3.068-9.205-11.427-13.09-14.47-3.96zM-458.47 454.233c4.565 1.462 7.845 4.616 12.927 4.934 5.632.352 10.733-1.683 15.638-4.254 4.13-2.166 7.66-5.204 11.454-7.878 3.686-2.598 5.775-3.693 9.544-.875 3.28 2.452 8.383.48 10.245-2.745 2.223-3.852.524-7.8-2.746-10.245-9.503-7.106-19.54-2.98-28.03 3.4-3.72 2.795-7.513 5.603-11.94 7.167-4.72 1.667-8.78-2.58-13.132-3.975-9.243-2.96-13.138 11.532-3.962 14.47z"/><path fill="#EA6D11" d="M-419.353 433.867c-1.35-2.61-1.64-5.762-2.21-8.616-.68-3.4-1.885-6.662-3.176-9.87-2.597-6.457-5.84-12.597-8.156-19.17-5.392-15.29-10.233-30.77-15.35-46.153-2.688-8.083-14.25-6.687-14.746 1.887-1.77 30.626-7.542 60.936-7.667 91.667-.038 9.69 14.966 9.77 15.005.108.125-30.73 5.895-61.04 7.667-91.667-4.916.63-9.83 1.26-14.746 1.888 5.116 15.385 9.998 30.848 15.35 46.154 2.494 7.137 5.992 13.787 8.807 20.784 2.706 6.73 2.938 14.108 6.285 20.586 4.44 8.592 17.37.978 12.94-7.595z"/><path fill="#EA6D11" d="M-441.91 449.39c-2.404-6.566-8.167-8.79-14.34-10.927-6.898-2.39-13.173-5.41-19.155-9.627l-7.5 12.99c14.706 9.666 29.44 21.437 48.16 15.987 8.564-2.492 14.894-9.58 22.74-13.527 7.39-3.718 17.878 3.393 22.574 8.71l10.55-10.665c-10.972-12.162-28.8-15.016-44.082-10.72-8.405 2.364-15.8 7.39-24.265 9.71-4.44 1.216-8.782 1.035-13.188-.19-3.483-.97-5.543-3.46-8.657-4.96-8.666-4.175-16.23 8.785-7.5 12.99 2.514 1.21 4.482 3.275 7.06 4.458 4.352 1.998 8.774 2.99 13.514 3.487 9.147.96 18.22-2.86 26.366-6.482 7.286-3.24 13.564-6.088 21.696-5.93 7.143.14 13.734 3.015 18.505 8.304 6.494 7.2 16.92-3.452 10.55-10.666-5.955-6.742-15.283-11.932-24.127-13.54-10.318-1.877-19.195 3.363-27.146 9.298-7.23 5.396-13.59 7.602-22.425 4.708-8.35-2.734-15.58-9.196-22.827-13.96-8.166-5.367-15.294 7.495-7.5 12.99 5.023 3.542 10.348 6.427 16.07 8.676 2.19.86 4.406 1.65 6.626 2.43.928.327 1.898.6 2.806.978 2.148.9 2.054 2.23 1.005-.637 3.297 9.008 17.815 5.204 14.49-3.883zM-305.547 449.242c16.317-6.718 32 1.266 48.187 4.293 8.98 1.68 18.09 1.64 26.813-1.293 10.557-3.548 20.897-7.502 32-9 4.062-.548 6.26-5.618 5.303-9.186-1.16-4.33-5.135-5.85-9.186-5.303-10.45 1.41-20.313 4.933-30.225 8.386-8.48 2.955-16.206 2.99-24.936 1.07-17.395-3.824-34.253-10.698-51.84-3.457-3.78 1.556-6.465 4.853-5.304 9.186.957 3.563 5.396 6.862 9.187 5.302z"/><path fill="#EA6D11" d="M-238.2 432.694c-4.176-14.16-10.58-27.503-13.817-41.955-2.98-13.293-5.096-26.735-10.568-39.308-1.562-3.586-6.91-1.552-6.986 1.872-.147 6.496-1.565 12.86-2 19.333-.497 7.39-.093 14.887-.02 22.286.115 11.406-2.025 24.22 2.48 35.045 1.83 4.397 9.1 2.514 7.244-1.94-4.23-10.164-2.148-22.317-2.222-33.05-.047-6.812-.203-13.618-.044-20.43.166-7.117 1.9-14.07 2.062-21.19l-6.986 1.872c5.162 11.86 7.056 24.897 9.794 37.45 3.156 14.466 9.645 27.8 13.82 41.956 1.365 4.63 8.612 2.7 7.243-1.942z"/><path fill="#EA6D11" d="M-240.184 438.287c9.577-3.67 19.602-6.337 28.594-11.388l-5.52-2.265c.2 1.552.198 3.11.204 4.67.02 4.842 7.52 4.886 7.502.054-.01-2.255-.175-4.434-.463-6.666-.323-2.505-3.62-3.33-5.52-2.264-8.408 4.72-17.784 7.18-26.74 10.612-4.467 1.712-2.57 8.974 1.943 7.245z"/><path fill="#EA6D11" d="M-247.125 433.042c-3.713 1.324-7.494 2.398-10.928 4.388-4.182 2.42-.394 8.896 3.797 6.47 2.857-1.655 5.98-2.51 9.072-3.613 1.924-.687 3.213-2.497 2.65-4.593-.494-1.854-2.663-3.34-4.59-2.652zM-270.24 428.97c-.02 3.328-.356 6.73.464 9.998 1.18 4.693 8.42 2.745 7.244-1.94-.643-2.56-.222-5.39-.205-8.003.03-4.845-7.472-4.885-7.502-.055z"/><path fill="#EA6D11" d="M-260.532 435.36c-1.126-5.096-4.634-9.737-4.87-15-.22-4.822-7.72-4.886-7.503-.056.277 6.14 3.83 11.125 5.13 16.998 1.043 4.73 8.283 2.767 7.243-1.94zM-326.074 297.873c5.61-9.454 18.005-12.16 28.163-13.013 12.5-1.048 23.737 1.387 35.333 5.82 15.593 5.963 31.168 12.32 48.1 12.69 16.908.367 30.6-8.183 45.554-14.637 4.428-1.91.59-8.364-3.797-6.47-7.434 3.208-14.493 7.23-22.064 10.12-8.54 3.26-17.524 3.966-26.56 3.06-17.384-1.75-32.8-10.704-49.285-15.618-18.965-5.654-50.558-4.88-61.94 14.3-2.47 4.163 4.027 7.908 6.496 3.748z"/><path fill="#EA6D11" d="M-213.31 283.9c-4.592-14.82-5.372-30.544-5.398-45.96-.03-18.148-1.812-35.993-2.773-54.093-.227-4.236-6.078-5.16-7.37-1.017-4.988 16.006-9.868 32.03-13.013 48.52-3.1 16.264-6.406 32.27-11.826 47.96-1.16 3.36 2.806 5.568 5.517 4.224 8.218-4.072 17.966-5.193 26.927-6.642 4.773-.77 2.785-8.008-1.94-7.244-9.722 1.57-19.87 3-28.783 7.416l5.517 4.225c5.188-15.02 8.766-30.44 11.484-46.08 2.982-17.15 8.187-33.812 13.356-50.4-2.456-.34-4.912-.68-7.368-1.018.962 18.1 2.835 35.942 2.773 54.092-.053 16.01.892 32.578 5.658 47.956 1.427 4.608 8.677 2.684 7.243-1.94z"/><path fill="#EA6D11" d="M-226.48 209.1c1.31 8.773 8.7 15.633 12.84 23.14 6.306 11.437 11.86 23.374 17.293 35.244l3.263-5.65c-8.572.625-16.953 2.847-25.56 3.03-4.835.105-4.887 7.606-.054 7.503 8.62-.185 16.984-2.406 25.56-3.03 3.014-.22 4.49-2.963 3.262-5.65-5.194-11.35-10.693-22.553-16.448-33.627-3.862-7.433-11.646-14.43-12.912-22.902-.715-4.78-7.952-2.786-7.245 1.94zM-168.586 284.766c-3.105-4.613-9.302-6.115-14.394-7.338-6.077-1.46-12.555-2.435-18.814-2.514-4.846-.06-4.883 7.44-.055 7.502 4.503.056 8.998.71 13.418 1.52 3.413.624 11.22 1.424 13.375 4.628 2.685 3.987 9.178.225 6.47-3.798zM-317.154 139.273c4.512-3.8 8.364-8.446 13.21-11.83 5.535-3.866 12.124-3.998 18.625-3.528 14.484 1.045 28.33 7.986 42.057 12.194 14.023 4.298 28.86 7.06 43.547 5.455 7.77-.85 14.94-3 22.107-6.06 5.897-2.518 12.91-6.076 16.284-11.757 4.946-8.328-8.05-15.818-12.99-7.5-.984 1.658-4.27 2.93-5.933 3.868-3.1 1.75-6.353 3.07-9.724 4.188-6.908 2.292-14.06 2.915-21.294 2.71-14.736-.42-29.163-5.472-42.926-10.33-13.118-4.633-26.752-9.043-40.86-7.7-6.93.658-13.196 2.96-18.752 7.168-5.022 3.804-9.205 8.52-14.015 12.57-7.395 6.226 3.312 16.74 10.666 10.55z"/><path fill="#EA6D11" d="M-199.91 122.723c-2.603-18.375-7.764-36.216-11.432-54.38-3.86-19.11-5.92-38.53-9.9-57.62-1.388-6.653-10.52-7.112-13.74-1.81-18.663 30.72-20.41 67.785-32.074 101.104-3.206 9.158 11.295 13.03 14.47 3.96 11.213-32.026 12.68-68.078 30.595-97.563l-13.74-1.81c3.846 18.443 6.004 37.18 9.52 55.68 3.584 18.858 9.116 37.286 11.814 56.32.574 4.06 5.598 6.266 9.186 5.305 4.307-1.156 5.873-5.14 5.3-9.187z"/><path fill="#EA6D11" d="M-226.957 57.795c6.998 11.17 12.95 22.635 21.418 32.833 8.902 10.72 19.635 19.934 27.916 31.167 2.424 3.288 6.46 4.904 10.268 2.672 3.248-1.904 5.1-6.972 2.672-10.268-8.042-10.91-17.872-20.25-26.9-30.31-9.18-10.23-15.19-22.134-22.433-33.69-5.12-8.172-18.09-.624-12.94 7.595zM-693.358 401.134c5.79-2.67 10.53-6.917 15.55-10.763 5.953-4.558 12.37-7.295 19.892-7.97 15.93-1.426 29.546 8.668 43.593 14.512 15.285 6.36 31.336 5.828 47.405 3.293 7.778-1.227 29.067-7.66 19.038-18.873-3.48-3.892-11.72-2.186-12.51 3.352l-.084.583 5.294-5.264-.583.083c-4.057.58-6.266 5.595-5.303 9.186 1.153 4.306 5.14 5.882 9.186 5.304l.582-.083c2.293-.328 4.966-2.96 5.295-5.264l.083-.584-12.51 3.352c.066.076.134.15.2.227-.74-1.795-1.482-3.59-2.225-5.387.283-6.722 3.692-5.624 2.08-4.967-1.002.41-2.034.75-3.057 1.102-2.04.7-4.105 1.323-6.162 1.966-6.61 2.068-14.124 2.082-20.996 2.214-13.587.262-25.698-6.403-37.482-12.315-13.364-6.704-27.55-9.3-42.218-5.778-13.112 3.147-20.896 13.71-32.664 19.136-8.772 4.043-1.12 16.957 7.596 12.938z"/><path fill="#EA6D11" d="M-547.88 382.332c1.8 1.604-.537-1.044-.96-1.753-1.1-1.834-2.228-3.615-3.242-5.5-2.543-4.73-4.573-9.728-6.938-14.546-4.645-9.465-9.696-18.856-13.226-28.81-2.743-7.74-14.69-6.957-14.746 1.887-.065 10.313-.467 20.378.54 30.663.332 3.392.724 6.775 1.002 10.172.154 1.88.24 3.764.26 5.65.02 1.768-.54 2.328.205 1.154-5.19 8.184 7.82 15.65 12.99 7.5 3.646-5.75 1.53-15.027.866-21.322-1.193-11.315-.932-22.352-.858-33.708l-14.746 1.887c3.994 11.267 9.688 21.74 14.774 32.524 2.543 5.392 4.957 10.863 7.78 16.114 1.497 2.782 3.366 6.636 5.747 8.755 7.193 6.397 17.802-4.216 10.552-10.668z"/><path fill="#EA6D11" d="M-566.875 366.5c4.22.032 8.587 3.53 12.304 5.327 5.888 2.848 12.028 5.08 17.332 9 3.293 2.434 8.375.495 10.245-2.745 2.216-3.837.54-7.818-2.745-10.245-5.6-4.137-12.158-6.497-18.378-9.505-6.01-2.907-11.734-6.783-18.65-6.835-9.69-.074-9.77 14.93-.11 15.003zM-521.058 384.017c-3.15 12.466-16.35 20.21-26.61 26.452-13.394 8.15-28.78 9.482-44.1 9.525-9.686.027-9.773 15.03-.108 15.004 18.873-.055 36.965-2.56 53.352-12.533 13.292-8.09 27.92-18.588 31.938-34.49 2.37-9.387-12.102-13.337-14.472-3.96zM-971.876 434.5c34.562-.556 69.483-3.693 101.352-18.032 3.733-1.68 4.568-7.03 2.672-10.268-2.232-3.807-6.543-4.348-10.268-2.672-29.244 13.158-62.01 15.46-93.648 15.968-9.675.155-9.776 15.16-.108 15.004z"/><path fill="#EA6D11" d="M-901.353 416.2c-4.02-8.49-4.77-18.318-5.97-27.51-1.512-11.618-5.377-22.82-8.256-34.133-5.696-22.394-9.926-45.18-13.5-68-1.348-8.617-14.536-6.275-14.745 1.887-1.008 39.325-1.98 78.66-1.5 118l2.17-5.222-.508.555 11.802 1.478c2.137 2.882-1.455-2.293-1.688-2.59-2.523-3.22-8.01-2.572-10.607.058-3.14 3.178-2.466 7.39.057 10.607l.227.29-1.97-3.392c.153.937.467 1.85 1.04 2.622 2.75 3.706 8.246 5.362 11.802 1.478 3.53-3.854 2.64-8.602 2.598-13.46-.043-5.144-.054-10.29-.053-15.433.004-10.343.104-20.685.247-31.026.295-21.29.84-42.574 1.386-63.857l-14.746 1.887c3.67 23.442 8.104 46.795 13.957 69.797 2.842 11.166 6.588 22.16 7.958 33.647 1.23 10.32 2.878 20.442 7.36 29.913 4.135 8.733 17.052 1.09 12.94-7.597z"/><path fill="#EA6D11" d="M-925.803 361.733c.85.33 2.442 3.253 3.205 4.097 2.046 2.266 4.247 4.394 6.45 6.504 4.64 4.44 9.494 8.668 14.254 12.98 8.332 7.547 16.735 15.664 23.102 24.98 5.42 7.932 18.41.412 12.94-7.596-7.14-10.447-16.198-19.527-25.49-28.05-5.178-4.75-10.477-9.364-15.55-14.223-4.954-4.743-8.387-10.62-14.95-13.165-3.82-1.48-8.217 1.618-9.216 5.255-1.167 4.25 1.452 7.743 5.255 9.218zM-947.066 407.94c1.59 4.285 1.64 8.996 1.242 13.504 5 .036 10.003.07 15.004.107-.404-8.667.404-17.33 0-26-.45-9.64-15.454-9.768-15.004-.107.404 8.668-.404 17.332 0 26 .455 9.753 14.16 9.678 15.004.107.5-5.682.243-12.104-1.758-17.495-3.335-8.986-17.855-5.186-14.488 3.884z"/><path fill="#231F20" d="M14.935 23.272c2.433 12.61 2.803 25.566 3.136 38.372.366 14.036.648 28.095.803 42.134.358 32.657-2.778 65.232-3.86 97.85-1.088 32.793-.604 65.616-1.85 98.418-.624 16.42-1.47 32.83-2.485 49.23-.984 15.883.486 31.876 2.096 47.666 1.42 13.927 3.082 27.83 3.838 41.814.732 13.555 1.278 28.73-2.334 41.93-1.273 4.653 2.33 9.478 7.182 9.48 32.77.02 65.54.92 98.305.033 32.57-.884 65.066-3.764 97.57-5.86 32.453-2.093 64.625-2.638 97.125-1.59 16.177.52 32.36.935 48.54.354 16.136-.58 32.224-1.773 48.373-2.104 14.218-.29 28.7-1.235 42.258 3.818 8.564 3.192 22.222 12.615 30.656 3.87 3.735-3.874 3.853-8.802 2.305-13.695-1.984-6.28-4.364-12.034-5.567-18.595-2.782-15.175.968-31.507 2.96-46.577 4.3-32.494 2.222-65.19 1.003-97.827-1.23-32.938.264-65.813.325-98.758.063-33.037-.532-66.07-.59-99.107-.028-16.52.102-33.04.488-49.554.197-8.415.353-16.8 1.393-25.16.97-7.79 2.31-15.495 2.416-23.363.06-4.425-3.413-7.083-7.448-7.555-13.197-1.543-26.672 2.048-39.495 4.757-14.373 3.036-29.11 4.37-43.622 6.656-15.735 2.48-31.207 4.645-47.168 4.863-15.914.218-31.83-1.006-47.632-2.79-15.96-1.802-31.766-4.725-47.748-6.343-16.298-1.65-32.702-2.105-49.074-2.078-32.313.052-64.483 2.06-96.81.878-18.098-.66-36.212-1.753-54.225-3.65-11.942-1.256-29.122-4.212-38.945 4.6-7.203 6.462 3.48 16.995 10.664 10.552-1.153 1.034.59-.264.83-.385-1.194.602 1.477-.31 1.4-.29 1.736-.434 3.51-.506 5.29-.59 5.3-.25 10.638.182 15.912.65 11.44 1.015 22.836 2.133 34.306 2.865 32.033 2.044 63.888 1.83 95.948.835 32.81-1.017 65.285-.195 97.78 4.68 31.32 4.698 63.12 7.908 94.763 4.865 19.56-1.88 38.854-6.186 58.385-8.405 16.43-1.867 32.604-8.622 49.333-6.667l-7.448-7.556c-.097 7.24-1.19 14.37-2.173 21.53-1.142 8.32-1.365 16.63-1.585 25.012-.433 16.514-.546 33.035-.54 49.554.014 33.037.606 66.07.596 99.107-.01 32.946-1.562 65.836-.4 98.775 1.152 32.627 3.44 65.357-.68 97.862-1.968 15.53-5.28 31.388-3.468 47.077.767 6.63 2.103 13.247 4.568 19.46.86 2.17 1.77 4.3 2.348 6.566-.516-2.025 4.65-4.01 2.223-3.725-.27.033-2.22-.54-3.012-.795-4.903-1.58-9.52-4.104-14.298-6.018-6.276-2.515-13.13-3.588-19.824-4.204-15.638-1.44-31.915-.14-47.576.517-16.153.678-32.215 1.824-48.395 1.72-16.216-.105-32.42-.877-48.63-1.275-32.45-.8-64.84 1.433-97.194 3.676-28.618 1.985-57.238 4.105-85.93 4.638-29.49.55-58.984-.238-88.475-.256l7.182 9.482c3.972-14.512 3.575-30.876 2.866-45.78-.756-15.9-2.865-31.71-4.41-47.543-3.16-32.43.01-64.617 1.18-97.075 1.184-32.79.6-65.615 1.842-98.392 1.234-32.628 4.203-65.187 3.56-97.866-.512-26.05.596-52.904-4.36-78.598-1.836-9.507-16.312-5.56-14.49 3.882z"/><path fill="#231F20" d="M233.343 189.277c-1.943 29.54 11.12 57.812 10 87.333-.367 9.693 14.638 9.743 15.004.108 1.12-29.545-11.94-57.855-10-87.333.636-9.68-14.372-9.704-15.004-.108z"/></svg>