<svg xmlns="http://www.w3.org/2000/svg" width="209" height="193" viewBox="0 0 209 193"><path fill="#E8D5C7" d="M31.667 166.275c4.513-3.8 8.365-8.446 13.21-11.83 5.535-3.864 12.124-3.997 18.626-3.527 14.483 1.044 28.33 7.985 42.055 12.193 14.023 4.3 28.86 7.062 43.547 5.456 7.77-.85 14.94-2.998 22.106-6.06 5.898-2.518 12.91-6.077 16.285-11.757 4.947-8.33-8.05-15.818-12.99-7.5-.984 1.656-4.27 2.928-5.933 3.866-3.1 1.75-6.354 3.07-9.725 4.188-6.908 2.293-14.06 2.916-21.294 2.71-14.736-.42-29.163-5.47-42.926-10.33-13.12-4.63-26.752-9.04-40.86-7.7-6.93.66-13.197 2.963-18.752 7.17-5.023 3.805-9.205 8.52-14.014 12.57-7.393 6.226 3.315 16.742 10.667 10.55z"/><path fill="#E8D5C7" d="M148.912 149.725c-2.603-18.374-7.764-36.216-11.432-54.378-3.86-19.11-5.92-38.532-9.9-57.62-1.388-6.654-10.52-7.113-13.74-1.81C95.176 66.635 93.43 103.7 81.766 137.02c-3.206 9.157 11.295 13.03 14.47 3.96 11.213-32.026 12.68-68.078 30.595-97.563l-13.738-1.81c3.846 18.443 6.004 37.18 9.52 55.68 3.584 18.858 9.116 37.286 11.814 56.32.574 4.06 5.598 6.266 9.186 5.304 4.307-1.154 5.873-5.14 5.3-9.185z"/><path fill="#E8D5C7" d="M121.865 84.798c6.998 11.17 12.95 22.635 21.418 32.833 8.9 10.72 19.634 19.935 27.915 31.168 2.424 3.287 6.46 4.903 10.268 2.672 3.248-1.904 5.102-6.972 2.672-10.268-8.042-10.908-17.872-20.25-26.9-30.31-9.18-10.23-15.19-22.133-22.433-33.69-5.12-8.17-18.09-.623-12.94 7.596z"/></svg>