<?xml version="1.0" encoding="utf-8"?>
<!-- Generator: Adobe Illustrator 15.1.0, SVG Export Plug-In . SVG Version: 6.00 Build 0)  -->
<!DOCTYPE svg PUBLIC "-//W3C//DTD SVG 1.1//EN" "http://www.w3.org/Graphics/SVG/1.1/DTD/svg11.dtd">
<svg version="1.1" id="Layer_1" xmlns="http://www.w3.org/2000/svg" xmlns:xlink="http://www.w3.org/1999/xlink" x="0px" y="0px"
	 width="500px" height="500px" viewBox="0 0 500 500" enable-background="new 0 0 500 500" xml:space="preserve">
<g>
	<g>
		<path fill="#EA6D11" d="M-1349.536-183.08c-3.205-3.673-8.282-5.354-13.058-5.235c-6.185,0.153-10.166,4.14-12.396,9.509
			c-3.301,7.946-0.071,18.757,1.225,26.833c1.014,6.314,1.114,12.422,4.304,18.141c2.937,5.264,8.655,8.222,10.651,14.067
			c2.025,5.935,0.404,12.317-0.285,18.321c-0.26,2.27-0.699,4.799-1.65,6.89c-0.97,2.133-0.754,0.931-0.171,0.692
			c-2.305,0.943,1.403-0.197,2.058,1.563c-3.346-8.983-17.866-5.184-14.489,3.882c4.559,12.239,19.254,12.337,25.593,1.363
			c2.887-5,3.203-11.141,4.052-16.709c1.02-6.687,1.154-13.305-0.619-19.884c-1.755-6.513-6.156-11.197-10.704-15.895
			c-4.085-4.221-3.491-11.579-4.368-17.042c-0.676-4.212-1.45-8.35-1.658-12.623c-0.095-1.959-0.04-3.769,0.531-5.64
			c-0.157,0.516-1.308,1.513-1.041,1.506c0.706-0.018,1.054,0.446,1.472,0.925C-1353.729-165.125-1343.204-175.82-1349.536-183.08
			L-1349.536-183.08z"/>
	</g>
</g>
<g>
	<g>
		<path fill="#EA6D11" d="M-1328.495-83.613c-1.148-15.779-1.272-31.6-0.63-47.405c0.319-7.86,0.999-15.685,1.621-23.524
			c0.301-3.793,0.798-7.572,1.188-11.356c0.18-1.751,0.31-3.506,0.418-5.264c-0.034-0.522,0.027-1.027,0.182-1.515
			c0.616-1.91-0.011-1.292-1.882,1.853c-1.284,0.344-2.568,0.688-3.852,1.032c-3.031-0.011-3.793-2.223-1.901,0.612
			c1.11,1.663,2.077,3.436,3.01,5.202c1.558,2.95,2.658,6.088,3.687,9.252c2.42,7.441,3.818,15.211,4.967,22.935
			c2.543,17.101,4.501,34.956,4.113,52.25c4.657-1.248,9.314-2.496,13.971-3.744c-0.364-0.513-0.643-1.071-0.836-1.672
			c-1.589-3.775-7.097-4.53-10.268-2.672c-3.871,2.27-4.257,6.502-2.672,10.268c0.194,0.601,0.473,1.159,0.836,1.672
			c3.9,6.333,13.803,3.742,13.971-3.744c0.43-19.154-2.038-38.829-4.854-57.76c-1.228-8.253-2.997-16.434-5.717-24.329
			c-2.516-7.302-6.324-17.131-12.954-21.676c-6.516-4.467-13.059,0.907-14.276,7.566c-1.782,9.757-2.116,20.106-2.896,29.993
			c-1.621,20.579-1.73,41.328-0.232,61.916C-1342.799-74.125-1327.793-73.972-1328.495-83.613L-1328.495-83.613z"/>
	</g>
</g>
<g>
	<g>
		<path fill="#EA6D11" d="M-1337.559-110.719c7.788,2.162,15.814-0.401,23.669-0.57c9.67-0.208,9.776-15.211,0.108-15.003
			c-6.256,0.134-14.222,2.656-19.817,1.103C-1342.94-127.782-1346.87-113.303-1337.559-110.719L-1337.559-110.719z"/>
	</g>
</g>
<g>
	<g>
		<path fill="#EA6D11" d="M-1308.536-176.224c2.733,7.598,3.354,15.372,3.741,23.377c0.435,9.026,1.326,17.79,2.718,26.716
			c1.256,8.06,1.541,16.425,1.734,24.571c0.141,5.948-1.261,12.897,1.006,18.579c1.515,3.796,4.886,6.456,9.186,5.304
			c3.597-0.964,6.822-5.379,5.304-9.186c-1.844-4.622-0.403-10.856-0.52-15.75c-0.217-9.157-0.951-18.331-2.221-27.4
			c-1.148-8.198-1.89-16.206-2.289-24.484c-0.417-8.654-1.22-17.408-4.17-25.608
			C-1297.296-189.14-1311.812-185.331-1308.536-176.224L-1308.536-176.224z"/>
	</g>
</g>
<g>
	<g>
		<path fill="#EA6D11" d="M-1287.886-179.892c-1.002,15.505,4.756,30.264,5.786,45.586c1.222,18.185,0.487,36.547,1.323,54.765
			c0.192,4.201,3.202,7.37,7.447,7.556c7.024,0.308,13.907-1.508,20.906-1.672c9.668-0.227,9.776-15.229,0.108-15.003
			c-7,0.164-13.882,1.979-20.906,1.672c2.482,2.519,4.965,5.037,7.447,7.556c-0.811-17.69-0.848-35.401-1.254-53.103
			c-0.366-15.949-6.889-31.23-5.854-47.249C-1272.257-189.464-1287.266-189.49-1287.886-179.892L-1287.886-179.892z"/>
	</g>
</g>
<g>
	<g>
		<path fill="#EA6D11" d="M-1237.331-177.552c-0.312-0.187-0.608-0.396-0.888-0.627c1.165,1.518,2.33,3.036,3.494,4.554
			c-0.076-0.222-0.152-0.444-0.229-0.667c-0.003,1.307-0.006,2.614-0.009,3.921c0.094-0.405,0.188-0.81,0.281-1.215
			c-4.912-0.678-9.824-1.356-14.736-2.035c0.008,15.778,0.228,31.553,1.129,47.309c0.632,11.055,1.245,22.362,3.69,33.2
			c1.66,7.359,6.869,17.825,16.283,14.389c10.273-3.75,12.764-16.42,13.593-25.949c0.918-10.547,0.191-21.26,0.736-31.846
			c0.699-13.565,0.765-27.352-2.288-40.663c-2.25-9.811-9.207-19.954-20.475-17.429c-9.933,2.226-11.319,14.709-12.82,22.826
			c-1.75,9.46,12.711,13.469,14.47,3.961c0.532-2.876,0.915-5.766,1.586-8.617c0.276-1.171,0.625-2.366,1.151-3.435
			c1.056-2.142,0.046,0.368-1.369-0.386c1.392,0.741,2.304,4.719,2.739,6.152c1.319,4.35,1.745,8.985,2.078,13.496
			c0.748,10.134,0.156,20.352-0.434,30.477c-0.466,7.994,0.144,16.006-0.285,24.006c-0.192,3.585-0.764,7.031-1.938,10.431
			c-0.267,0.773-0.858,1.609-1.364,2.243c-1.482,1.857,2.391-0.432,4.34,1.368c1.352,1.248-0.621-1.508-0.223-0.506
			c-0.564-1.419-0.932-2.919-1.294-4.399c-0.619-2.534-1.009-5.126-1.38-7.707c-3.25-22.601-2.912-46.03-2.924-68.812
			c-0.004-8.394-12.789-10.457-14.736-2.035c-1.095,4.734,0.176,8.304,4.321,10.984
			C-1236.692-159.298-1229.231-172.314-1237.331-177.552L-1237.331-177.552z"/>
	</g>
</g>
<g>
	<g>
		<path fill="#EA6D11" d="M-1213.459-184.073c-0.238,9.128,2.423,18.061,2.702,27.191c0.282,9.209,0.206,18.425,0.231,27.637
			c0.027,9.621,0.225,19.24,0.595,28.854c0.173,4.486,0.412,8.968,0.683,13.449c0.282,4.642-0.185,10.047,4.62,12.525
			c5.042,2.601,11.07-0.635,11.251-6.441c0.033-1.037-0.184-2.054-0.319-3.079c-0.535-4.064-5.628-6.257-9.186-5.304
			c-4.339,1.163-5.836,5.133-5.304,9.186c-0.065-0.304-0.13-0.607-0.195-0.911c3.751-2.147,7.501-4.294,11.252-6.441
			c-0.16-0.083-0.32-0.165-0.48-0.248c1.25,2.183,2.501,4.366,3.751,6.549c-1.23-17.257-1.657-34.55-1.673-51.848
			c-0.008-8.55-0.018-17.098-0.28-25.645c-0.261-8.526-2.868-16.854-2.647-25.367
			C-1198.204-193.658-1213.208-193.719-1213.459-184.073L-1213.459-184.073z"/>
	</g>
</g>
<g>
	<g>
		<path fill="#EA6D11" d="M-1203.599-178.028c2.858-0.946,3.165-0.926,4.678,1.341c2.394,3.589,3.294,8.061,4.144,12.534
			c1.563,8.225,1.665,17.337,2.164,25.944c0.167,2.864,0.179,5.727-0.07,8.585c-0.027,0.308-0.414,1.595-0.147,0.97
			c-0.587,1.373,1.279-0.506-0.574,0.058c-6.999,2.133-10.387,7.279-8.763,14.571c1.297,5.824,7.483,10.415,11.506,14.377
			c5.749,5.661,9.903,12.772,15.805,18.386c6.995,6.653,17.58-3.979,10.551-10.665c-5.914-5.625-10.157-12.588-15.805-18.386
			c-2.219-2.278-4.598-4.378-6.739-6.736c-0.28-0.309-1.006-1.698-0.881-0.729c0.438,3.4-4.878,4.61-0.91,3.401
			c14.654-4.465,10.966-22.41,10.302-34.076c-0.913-16.023-3.995-52.388-29.143-44.065
			C-1216.623-189.492-1212.792-174.986-1203.599-178.028L-1203.599-178.028z"/>
	</g>
</g>
<g>
	<g>
		<path fill="#EA6D11" d="M-1123.61-81.104c-0.166-7.902,3.106-15.269,4.186-23.019c1.336-9.589,2.212-19.228,3.16-28.861
			c1.758-17.862,3.001-36.132,7.022-53.654c-4.568,0.605-9.137,1.211-13.705,1.817c9.58,19.976,5.111,43.744,11.769,64.625
			c2.048,6.421,13.341,7.983,14.48,0.04c1.57-10.96,1.389-22.137,3.345-33.032c2.049-11.415,5.388-22.565,7.944-33.868
			c-4.826-0.013-9.653-0.026-14.479-0.04c2.879,9.483,1.313,19.544,2.086,29.301c0.896,11.3,3.423,22.708,6.504,33.596
			c2.467,8.716,5.851,17.171,7.219,26.159c0.992,6.517,1.033,13.9,4.199,19.841c4.549,8.535,17.484,0.932,12.939-7.596
			c0.909,1.706-0.308-1.202-0.433-1.723c-0.344-1.434-0.562-2.901-0.796-4.355c-0.602-3.737-1.033-7.5-1.603-11.243
			c-1.394-9.15-5.037-17.898-7.55-26.776c-2.882-10.184-5.126-20.92-5.73-31.496c-0.571-9.985,0.608-19.853-2.348-29.591
			c-2.073-6.829-12.766-7.619-14.479-0.04c-2.559,11.313-5.766,22.471-7.945,33.868c-2.088,10.922-1.772,22.06-3.345,33.032
			c4.827,0.013,9.653,0.026,14.48,0.04c-7.145-22.408-2.939-46.696-13.319-68.339c-2.818-5.875-12.314-4.242-13.705,1.817
			c-4.169,18.171-5.463,37.059-7.361,55.572c-0.987,9.634-1.756,19.296-3.092,28.891c-1.177,8.452-4.63,16.234-4.448,24.923
			C-1138.411-71.542-1123.408-71.437-1123.61-81.104L-1123.61-81.104z"/>
	</g>
</g>
<g>
	<g>
		<path fill="#EA6D11" d="M-1053.214-77.924c5.468-16.428,3.267-35.024,2.847-52.013c-0.274-11.126-0.596-22.287-0.605-33.416
			c-0.004-5.522-0.215-11.986,0.898-17.027c0.124-0.523,0.272-1.041,0.444-1.551c-0.287,0.623-0.241,0.574,0.138-0.146
			c-1.501,2.669-7.081,0.459-4.942,2.554c1.449,1.42,1.337,6.303,1.484,8.267c0.708,9.467,2.435,18.416,4.198,27.75
			c2.072,10.967,3.884,21.885,4.939,32.999c1.034,10.91,1.991,21.862,4.554,32.542c3.074-3.059,6.149-6.117,9.225-9.176
			c-0.262-0.105-0.523-0.209-0.785-0.314c1.497,1.146,2.993,2.292,4.49,3.438c-0.157-0.313-0.314-0.627-0.471-0.941
			c-4.324-8.649-17.248-1.024-12.939,7.596c1.307,2.613,3.122,3.644,5.744,4.691c5.565,2.224,10.425-4.175,9.225-9.176
			c-2.826-11.78-3.5-23.849-4.767-35.858c-1.317-12.502-3.735-24.898-6.186-37.22c-0.916-4.606-1.801-8.906-2.063-13.585
			c-0.254-4.541-0.587-9.133-1.726-13.549c-2.119-8.212-10.496-15.854-19.105-11.485c-6.118,3.104-6.747,12.382-7.111,18.266
			c-0.653,10.552-0.101,21.186,0.175,31.74c0.279,10.644,0.498,21.301,0.697,31.948c0.185,9.886,0.33,20.221-2.827,29.706
			C-1070.749-72.677-1056.253-68.792-1053.214-77.924L-1053.214-77.924z"/>
	</g>
</g>
<g>
	<g>
		<path fill="#EA6D11" d="M-1057.576-112.125c7.113,0.076,14.208,0.796,21.325,0.836c9.688,0.056,9.769-14.948,0.107-15.003
			c-7.116-0.041-14.211-0.761-21.324-0.836C-1067.159-127.231-1067.234-112.228-1057.576-112.125L-1057.576-112.125z"/>
	</g>
</g>
<g>
	<g>
		<path fill="#EA6D11" d="M-1008.403-82.448c-1.315-2.606-0.927-6.194-0.883-9.006c0.063-3.962,0.236-7.913,0.256-11.877
			c0.051-10.212,0.351-20.421,0.401-30.633c0.088-17.571-2.462-35.836,1.828-53.091c-4.568,0.605-9.137,1.211-13.705,1.817
			c7.76,16.444,8.136,35.249,10.933,52.918c3.033,19.165,7.074,38.497,13.381,56.866c2.87,8.361,13.701,6.414,14.746-1.887
			c2.314-18.392,1.007-36.927,1.596-55.399c0.577-18.097,3.745-36.004,3.84-54.15c0.05-9.689-14.953-9.77-15.004-0.108
			c-0.091,17.486-2.45,34.853-3.764,52.266c-1.438,19.088,0.729,38.21-1.672,57.284c4.916-0.629,9.831-1.258,14.746-1.887
			c-6.49-18.906-10.519-38.786-13.64-58.505c-2.977-18.802-3.967-37.496-12.223-54.993c-2.822-5.98-12.224-4.139-13.705,1.817
			c-4.777,19.216-2.272,39.297-2.37,58.858c-0.055,10.85-0.386,21.697-0.405,32.548c-0.015,8.43-1.24,16.943,2.704,24.758
			C-1016.985-66.22-1004.06-73.841-1008.403-82.448L-1008.403-82.448z"/>
	</g>
</g>
<g>
	<g>
		<path fill="#EA6D11" d="M-907.633-174.019c-3.386-4.818-4.21-10.871-8.17-15.606c-4.442-5.311-14.101-6.504-19.629-2.391
			c-5.777,4.297-6.746,11.388-6.646,18.148c0.115,7.842,0.208,15.715,0.414,23.557c0.219,8.322,1.207,20.599,7.65,26.817
			c4.889,4.718,13.519,4.955,15.324,12.08c1.625,6.411-0.243,13.992-1.428,20.341c-0.283,1.521-0.532,3.046-0.793,4.572
			c-0.16,0.939-1.42,3.973-0.749,3.469c-1.094,0.821-4.857-0.009-5.271-1.322c-2.891-9.201-17.392-5.357-14.488,3.882
			c2.506,7.975,10.571,12.515,18.632,12.782c8.965,0.297,14.729-6.787,16.347-14.85c2.896-14.437,7.037-32.302-4.128-44.218
			c-2.608-2.785-6.534-3.981-9.915-5.465c-3.943-1.731-4.388-5.458-5.315-9.358c-2.148-9.027-0.51-18.796-1.077-27.996
			c-0.174-2.816-0.288-5.619-0.106-8.438c0.003-0.036,0.525-2.221,0.345-1.825c0.826-1.815-1.219,0.261-0.537,0.375
			c2.564,0.428,4.962,10.71,6.601,13.043C-915.059-158.576-902.059-166.085-907.633-174.019L-907.633-174.019z"/>
	</g>
</g>
<g>
	<g>
		<path fill="#EA6D11" d="M-886.531-75.251c2.063-25.542,1.788-51.203,3.854-76.747c0.466-5.752,0.854-11.522,1.65-17.241
			c0.498-3.577,1.144-7.141,2.105-10.624c0.149-0.523,0.312-1.042,0.487-1.557c0.733-2.24-0.575,1.029,0.342-0.795
			c0.666-1.325-0.822,0.544-1.132,0.785c-1.565,1.214-4.765,0.841-6.133-0.514c-0.905-0.896-0.054,0.341,0.034,0.594
			c0.469,1.364,0.773,2.787,1.073,4.196c0.709,3.324,1.044,6.706,1.331,10.086c0.543,6.398,0.578,12.812,0.803,19.224
			c0.463,13.242,1.169,26.534,2.522,39.717c0.733,7.139,0.619,14.265,1.73,21.381c0.262,1.677,0.557,3.346,0.859,5.017
			c0.138,0.759,0.333,1.641,0.43,2.402c0.125,0.982-0.422,2.425,0.194,0.657c1.146-1.497,2.292-2.993,3.438-4.489
			c-0.073,0.043-0.146,0.086-0.22,0.129c-8.322,4.903-0.754,17.858,7.596,12.939c5.008-2.951,4.175-8.395,3.446-13.219
			c-0.959-6.342-1.841-12.453-2.114-18.893c-0.671-15.823-2.392-31.586-2.945-47.431c-0.263-7.518-0.394-14.998-1.247-22.484
			c-0.903-7.928-1.795-17.104-8.596-22.256c-3.395-2.571-8.867-1.365-11.665,1.457c-2.661,2.684-3.951,6.362-4.936,9.93
			c-2.282,8.262-2.932,17.102-3.645,25.615c-2.289,27.297-2.063,54.716-4.269,82.012C-902.315-65.693-887.305-65.682-886.531-75.251
			L-886.531-75.251z"/>
	</g>
</g>
<g>
	<g>
		<path fill="#EA6D11" d="M-884.382-109.813c1.713-1.118-1.211,0.13,0.75-0.319c-1.394,0.319,1.355,0.205,1.745,0.242
			c-0.62-0.104-0.478-0.086,0.429,0.053c0.903,0.13,1.807,0.257,2.711,0.379c1.021,0.133,2.028,0.232,3.058,0.26
			c4.085,0.112,7.528-3.425,7.556-7.447c0.027-4.15-3.364-7.444-7.448-7.556c-0.287-0.008-2.872-0.243-1.916-0.106
			c-1.683-0.241-3.362-0.499-5.055-0.66c-3.22-0.305-6.712,0.445-9.425,2.215c-3.42,2.232-4.814,6.613-2.672,10.268
			C-892.657-109.087-887.806-107.578-884.382-109.813L-884.382-109.813z"/>
	</g>
</g>
<g>
	<g>
		<path fill="#EA6D11" d="M-848.617-81.893c0.635,0.734,0.955,1.868,0.552,0.045c-0.109-0.492-0.145-1.078-0.214-2.729
			c-0.16-3.831,0.137-7.689,0.457-11.504c0.616-7.36,1.708-14.672,2.839-21.967c1.543-9.957,2.195-19.889,2.513-29.958
			c0.175-5.573,0.354-11.132,0.381-16.708c0.024-5.285-0.031-11.065,2.219-15.973c-3.924,0.527-7.847,1.055-11.771,1.583
			c7.234,9.195,5.521,23.567,5.082,34.411c-0.532,13.18-1.046,26.946,5.432,38.9c2.149,3.965,8.783,5.226,11.803,1.478
			c8.361-10.381,10.046-23.722,11.76-36.532c1.603-11.984,1.142-26.464,6.963-37.331c-4.321,0.016-8.644,0.032-12.965,0.048
			c7.269,14.569,3.87,33.417,3.247,49.03c-0.341,8.548,0.017,17.152,0.119,25.704c0.109,9.178,0.377,18.564,2.55,27.523
			c2.281,9.409,16.765,5.505,14.488-3.882c-1.99-8.207-1.955-16.786-2.055-25.184c-0.107-8.982-0.377-17.973,0.023-26.949
			c0.803-18.004,2.893-37.148-5.434-53.839c-2.512-5.036-10.41-4.721-12.965,0.048c-6.055,11.301-6.54,24.69-7.965,37.169
			c-0.646,5.65-1.454,11.32-2.482,16.913c-1.023,5.563-2.301,12.197-5.951,16.729c3.935,0.492,7.868,0.985,11.803,1.478
			c-5.887-10.863-3.542-25.065-3.156-36.882c0.462-14.146-0.722-28.03-9.746-39.499c-2.857-3.632-9.902-2.492-11.771,1.583
			c-5.244,11.439-4.058,24.046-4.492,36.31c-0.388,10.957-0.857,21.748-2.519,32.584c-1.348,8.788-2.6,17.613-3.213,26.486
			c-0.494,7.134-1.059,15.82,3.917,21.58C-852.846-63.909-842.323-74.607-848.617-81.893L-848.617-81.893z"/>
	</g>
</g>
<g>
	<g>
		<path fill="#EA6D11" d="M-1354.404-2.025c-2.118-8.311-4.123-15.349-13.083-18.38c-9.328-3.156-17.853,2.666-20.752,11.333
			c-2.289,6.842-1.168,14.828-1.548,21.931c-0.466,8.706-1.35,17.364-1.251,26.094c0.099,8.728,1.33,17.382,5.071,25.323
			c1.722,3.656,4.529,6.675,7.615,9.21c2.365,1.943,5.888,4.313,6.927,6.133c1.421,2.49,0.964,8.753,0.997,12.18
			c0.058,6.117-0.351,12.232-0.175,18.349c0.053,1.842,1.057,6.757-0.198,8.313c-0.613,0.759-1.585,0.603-2.441,0.421
			c-0.519-0.11-1.35-0.362-1.818-0.736c-0.135-0.108,0.056,1.656-0.255,2.045c2.544-3.188,3.086-7.504-0.057-10.608
			c-2.675-2.642-8.053-3.146-10.608,0.057c-7.591,9.516-2.812,19.137,7.638,23.363c9.792,3.959,20.76-2.755,22.415-12.845
			c0.764-4.655,0.269-9.337,0.29-14.025c0.029-6.482,0.341-12.95,0.09-19.432c-0.376-9.727-2.61-16.45-10.398-22.423
			c-6.551-5.024-8.942-10.496-9.756-18.71c-0.927-9.356-0.038-18.849,0.63-28.191c0.501-7.016-0.428-14.71,1.054-21.565
			c0.326-1.508,0.337-1.515,0.949-2.149c-0.764,0.792,1.239,0.172,1.953,0.52c1.492,0.729,1.825,6.109,2.224,7.674
			C-1366.503,11.235-1352.017,7.342-1354.404-2.025L-1354.404-2.025z"/>
	</g>
</g>
<g>
	<g>
		<path fill="#EA6D11" d="M-1338.414,128.896c4.3-23.12,3.003-46.875,5.468-70.21c1.279-12.109,3.036-24.163,4.39-36.264
			c1.323-11.82,1.417-23.826,3.642-35.526c-4.568,0.605-9.136,1.211-13.705,1.817c8.341,19.293,7.262,41.685,10.225,62.143
			c1.774,12.247,2.509,24.654,3.444,36.985c0.488,6.433,1.016,12.862,1.663,19.281c0.318,3.155,0.702,6.3,1.12,9.442
			c0.338,2.539,1.225,5.289,0.782,7.871c-1.623,9.465,12.837,13.486,14.47,3.961c1.027-5.993-0.265-11.392-0.955-17.337
			c-0.817-7.04-1.38-14.108-1.928-21.173c-1.063-13.682-2.079-27.343-3.841-40.958c-2.946-22.761-2.795-46.423-12.041-67.811
			c-2.558-5.916-12.556-4.225-13.705,1.817c-2.114,11.111-2.51,22.368-3.575,33.602c-1.151,12.146-2.904,24.229-4.347,36.342
			c-1.442,12.105-2.309,24.231-2.729,36.414c-0.41,11.923-0.663,23.883-2.85,35.643
			C-1354.643,134.395-1340.181,138.403-1338.414,128.896L-1338.414,128.896z"/>
	</g>
</g>
<g>
	<g>
		<path fill="#EA6D11" d="M-1339.351,78.385c-0.974,0.411-1.007,0.49-0.101,0.239c-1.556,0.333,0.999,0.041,1.117,0.04
			c1.438-0.014,3.292,0.137,4.466,0.307c2.6,0.375,5.23,0.889,7.739,1.68c9.255,2.918,13.154-11.571,3.961-14.471
			c-7.676-2.421-17.202-3.938-24.778-0.734c-3.772,1.596-4.533,7.092-2.672,10.268C-1347.352,79.58-1343.113,79.977-1339.351,78.385
			L-1339.351,78.385z"/>
	</g>
</g>
<g>
	<g>
		<path fill="#EA6D11" d="M-1285.147,127.47c0.012-26.643,0.495-53.282,0.793-79.922c0.136-12.22-0.059-24.463,0.271-36.678
			c0.238-8.789,1.774-18.943-1.321-27.395c-3.299-9.008-17.817-5.204-14.489,3.882c2.742,7.486,0.984,16.864,0.773,24.661
			c-0.336,12.444-0.121,24.923-0.26,37.372c-0.291,25.991-0.759,51.979-0.771,77.972
			C-1300.154,137.048-1285.151,137.133-1285.147,127.47L-1285.147,127.47z"/>
	</g>
</g>
<g>
	<g>
		<path fill="#EA6D11" d="M-1276.618-12.787c1.115,1.642,1.55,4.514,1.7,7.615c0.24,4.981-0.172,10.003-0.616,14.962
			c-0.915,10.229-2.113,20.206-2.354,30.491c-0.371,15.869-0.614,31.741-0.347,47.613c0.232,13.754-0.503,27.931,2.342,41.463
			c0.705,3.353,3.978,5.387,7.19,5.561c5.027,0.272,9.973-0.772,15-0.5c9.687,0.524,9.722-14.483,0.108-15.004
			c-5.027-0.272-9.973,0.772-15,0.5c2.396,1.854,4.793,3.708,7.19,5.561c-2.805-13.338-1.699-27.864-1.889-41.44
			c-0.222-15.872,0.125-31.747,0.501-47.613c0.232-9.771,1.672-19.37,2.483-29.101c0.722-8.657,1.789-20.101-3.371-27.703
			C-1269.075-28.333-1282.065-20.813-1276.618-12.787L-1276.618-12.787z"/>
	</g>
</g>
<g>
	<g>
		<path fill="#EA6D11" d="M-1220.373-21.417c-5.57-5.759-13.704-3.994-17.311,2.859c-3.393,6.445-4.059,14.372-4.854,21.471
			c-2.037,18.178-0.329,36.18-0.101,54.416c0.193,15.506-1.255,30.946-1.201,46.428c0.04,11.35,2.198,25.297,14.558,29.484
			c12.496,4.232,19.313-7.07,21.088-17.662c2.372-14.15,1.546-28.826,1.546-43.11c0-22.798-0.917-45.663-0.549-68.443
			c0.148-9.129-0.74-15.912-6.625-23.015c-5.086-6.138-15.209-8.272-19.322,0.154c-4.222,8.65,8.74,16.208,12.99,7.5
			c4.316-8.842-4.195,2.779-5.629,1.556c0.502,0.428,1.121,1.041,1.517,1.565c1.002,1.33,1.687,2.204,1.813,3.313
			c0.845,7.462,0.112,15.168,0.368,22.673c0.551,16.188,0.435,32.394,0.435,48.588c0,14.626,0.686,29.466-0.858,44.036
			c-0.257,2.428-0.572,5.41-1.524,7.676c-0.686,1.633,0.13,1.026-0.684,1.017c0.315,0.003-1.348-1.165-1.916-1.773
			c-1.407-1.509-1.583-4.575-1.813-6.459c-0.851-6.941-0.301-14.045,0.106-20.997c0.481-8.22,0.694-16.448,0.734-24.682
			c0.066-13.384-0.761-26.711-1.114-40.079c-0.161-6.104,0.292-12.268,0.815-18.343c0.302-3.502,0.681-6.721,1.232-9.924
			c0.275-1.6,0.62-3.185,1.011-4.76c0.173-0.695,0.38-1.38,0.59-2.065c0.132-0.415,0.273-0.825,0.426-1.232
			c-0.368,0.832-0.385,0.887-0.05,0.166c0.725-1.531-0.126-0.192-0.839,0.333c-1.519,1.117-3.805,0.608-5.318-0.053
			c1.292,0.564-1.273-1.216-0.073,0.025C-1224.2-3.799-1213.643-14.458-1220.373-21.417L-1220.373-21.417z"/>
	</g>
</g>
<g>
	<g>
		<path fill="#EA6D11" d="M-1199.15-16.639c-0.015,28.949-0.67,57.895-0.915,86.842c-0.086,10.207-0.076,20.384,0.229,30.584
			c0.143,4.77,0.249,9.542,0.217,14.314c-0.012,1.809-0.069,3.617-0.179,5.423c-0.015,0.243-0.301,2.636-0.012,0.691
			c-0.279,1.875,0.319-0.258,0.166-0.051c-2.432,3.294-0.497,8.374,2.745,10.245c3.835,2.214,7.82,0.541,10.245-2.745
			c1.892-2.564,1.804-6.647,1.948-9.67c0.216-4.546,0.093-9.116-0.008-13.664c-0.22-9.916-0.446-19.787-0.386-29.71
			c0.185-30.718,0.937-61.432,0.953-92.151C-1184.142-26.217-1199.145-26.302-1199.15-16.639L-1199.15-16.639z"/>
	</g>
</g>
<g>
	<g>
		<path fill="#EA6D11" d="M-1191.703-11.083c2.643,0.139,3.628,0.846,5.441,2.867c1.582,1.764,2.683,5.49,3.419,8.415
			c1.848,7.349,1.826,15.122,1.781,22.652c-0.064,10.803-0.296,21.593-0.81,32.385c-0.132,2.767-0.243,5.527-0.542,8.282
			c-0.107,0.988-1.507,3.836-0.192,2.142c-1.066,1.374,1.054-0.5-0.556,0.342c1.414-0.739-1.061,0.136-1.171,0.162
			c-2.212,0.507-4.509,0.715-6.756,1.007c-4.065,0.529-6.256,5.632-5.304,9.186c1.164,4.344,5.132,5.831,9.186,5.304
			c5.138-0.668,10.177-1.19,14.325-4.585c4.035-3.302,4.833-8.609,5.472-13.449c1.803-13.648,1.275-27.842,1.357-41.601
			c0.108-18.188-1.74-46.858-25.541-48.111C-1201.282-26.596-1201.319-11.589-1191.703-11.083L-1191.703-11.083z"/>
	</g>
</g>
<g>
	<g>
		<path fill="#EA6D11" d="M-1192.629,79.651c1.4,0.267-1.582-0.939-0.233-0.123c-2.183-1.322,0.793,1.258-0.382-0.286
			c1.268,1.667,2.21,3.591,3.117,5.467c2.269,4.697,3.855,9.853,5.429,14.889c2.808,8.985,5.036,18.127,7.305,27.258
			c2.335,9.395,16.82,5.496,14.489-3.882c-2.542-10.229-5.085-20.446-8.33-30.481c-2.686-8.308-7.008-25.321-17.435-27.313
			C-1198.125,63.373-1202.128,77.835-1192.629,79.651L-1192.629,79.651z"/>
	</g>
</g>
<g>
	<g>
		<path fill="#EA6D11" d="M-1357.124,313.748c4.796-8.746,3.935-19.85,4.307-29.492c0.516-13.408,1.159-26.813,1.365-40.229
			c0.204-13.302,0.443-26.6,1.836-39.841c0.663-6.303,1.8-12.536,3.232-18.707c1.385-5.97,4.767-12.65,4.767-18.801
			c0-9.687-15.004-9.772-15.004-0.108c0,8.912,1.927,18.273,2.771,27.167c0.803,8.466,1.911,16.897,2.738,25.359
			c1.255,12.833,1.101,28.313,9.023,39.201c3.997,5.491,11.24,4.435,13.705-1.817c5.442-13.807,5.394-29.097,7.081-43.652
			c0.814-7.023,2.312-13.993,3.295-21.001c1.111-7.921,2.417-15.793,5.125-23.347c-4.827-0.013-9.653-0.026-14.48-0.04
			c5.227,22.468,1.861,46.096,4.421,68.911c1.471,13.107,2.604,26.25,3.905,39.375c0.629,6.346,1.322,12.685,2.07,19.017
			c0.455,3.85,2.325,8.984,1.113,12.775c-2.953,9.244,11.538,13.14,14.471,3.961c1.49-4.664,0.551-9.614-0.176-14.329
			c-0.89-5.769-1.474-11.573-2.075-17.378c-1.428-13.775-2.607-27.574-4.087-41.344c-2.668-24.81,0.531-50.437-5.152-74.87
			c-1.805-7.76-12.113-6.646-14.48-0.04c-2.512,7.013-3.803,14.283-4.88,21.633c-1.145,7.81-2.581,15.583-3.655,23.398
			c-1.972,14.355-1.577,29.302-6.965,42.969c4.568-0.605,9.137-1.211,13.705-1.817c-6.738-9.258-6.065-23.001-7.202-33.903
			c-0.865-8.289-1.889-16.556-2.676-24.855c-0.785-8.272-2.59-16.976-2.59-25.265c0-9.687-15.004-9.772-15.004-0.108
			c0,2.098-1.651,5.483-2.233,7.616c-0.834,3.06-1.716,6.109-2.433,9.199c-1.437,6.193-2.334,12.504-3.117,18.809
			c-1.559,12.565-1.787,25.272-1.993,37.917c-0.208,12.745-0.707,25.469-1.199,38.206c-0.22,5.679-0.402,11.358-0.597,17.037
			c-0.12,3.494-0.204,7.763-1.921,10.896C-1374.763,314.725-1361.782,322.243-1357.124,313.748L-1357.124,313.748z"/>
	</g>
</g>
<g>
	<g>
		<path fill="#EA6D11" d="M-1285.617,311.052c2.563-24.083,4.997-48.147,5.542-72.376c0.537-23.859,3.535-47.624,9.691-70.698
			c-4.568,0.605-9.137,1.211-13.705,1.817c4.292,9.069,4.407,19.388,5.725,29.143c1.74,12.876,4.618,25.552,6.6,38.386
			c1.944,12.59,3.638,25.19,5.283,37.82c0.742,5.697,2.038,11.316,2.93,16.99c0.421,2.682,0.559,5.392,0.589,8.103
			c-0.006,1.071-0.059,2.14-0.158,3.206c-0.353,4.948-0.8-0.107,2.204-1.416c-3.754,1.635-4.55,7.064-2.672,10.268
			c2.25,3.839,6.522,4.303,10.268,2.672c5.279-2.299,4.972-8.173,5.317-13.005c0.447-6.259-0.837-12.746-1.927-18.88
			c-2.474-13.917-4.028-27.958-6.157-41.934c-2.153-14.135-5.103-28.126-7.251-42.259c-1.917-12.61-2.248-24.936-7.81-36.69
			c-2.861-6.045-12.134-4.07-13.705,1.817c-6.324,23.706-9.374,48.178-10.172,72.673c-0.811,24.875-2.961,49.51-5.594,74.253
			c-0.433,4.071,3.666,7.531,7.448,7.556C-1288.777,318.528-1286.049,315.113-1285.617,311.052L-1285.617,311.052z"/>
	</g>
</g>
<g>
	<g>
		<path fill="#EA6D11" d="M-1289.099,259.233c4.578,1.123,9.195,1.999,13.864,2.642c3.872,0.533,8.261,1.155,12.058-0.132
			c9.113-3.089,5.289-17.598-3.882-14.489c-0.741,0.198-0.708,0.247,0.101,0.146c-0.877,0.108-1.783,0.057-2.663,0.033
			c-1.59-0.042-3.19-0.236-4.761-0.474c-3.616-0.548-7.204-1.324-10.755-2.196C-1294.538,242.457-1298.494,256.928-1289.099,259.233
			L-1289.099,259.233z"/>
	</g>
</g>
<g>
	<g>
		<path fill="#EA6D11" d="M-1231.624,313.248c9.083-19.17,6.447-42.704,6.527-63.314c0.104-26.828,0.517-54.713,6.713-80.956
			c-4.827-0.013-9.653-0.026-14.48-0.04c6.953,22.52,7.434,46.218,11.128,69.344c2.029,12.707,3.047,25.563,4.272,38.364
			c0.601,6.279,1.366,12.539,1.993,18.813c0.561,5.603,1.114,10.63,3.381,15.835c2.711,6.223,12.138,3.905,13.705-1.817
			c6.438-23.515,5.804-48.026,7.157-72.16c0.719-12.783,1.197-25.595,1.262-38.398c0.033-6.444-0.129-12.888-0.455-19.324
			c-0.236-4.625,0.477-12.336-2.23-16.396c-5.334-8.003-18.319-0.476-12.938,7.596c-1.629-2.443-0.269,2.216-0.21,2.952
			c0.258,3.19,0.417,6.388,0.558,9.585c0.257,5.802,0.293,11.613,0.264,17.42c-0.062,12.146-0.51,24.333-1.251,36.457
			c-1.397,22.862-0.522,46.019-6.626,68.308c4.568-0.605,9.137-1.211,13.705-1.817c-1.724-3.957-1.433-9.273-1.92-13.492
			c-0.739-6.396-1.333-12.809-1.938-19.219c-1.156-12.228-2.382-24.445-4.239-36.589c-3.536-23.13-4.183-46.847-11.128-69.344
			c-2.112-6.844-12.694-7.6-14.479-0.04c-2.797,11.848-4.139,24.375-5.326,36.479c-1.321,13.472-1.698,27.026-1.862,40.555
			c-0.142,11.72,0.075,23.444-0.136,35.162c-0.169,9.352-0.353,19.914-4.437,28.534
			C-1248.729,314.433-1235.771,322.002-1231.624,313.248L-1231.624,313.248z"/>
	</g>
</g>
<g>
	<g>
		<path fill="#EA6D11" d="M-1322.728,352.195c-1.988-7.272-3.832-15.23-12.971-15.839c-8.836-0.588-15.305,5.074-17.529,13.305
			c-1.943,7.199-0.746,14.961-0.746,22.302c0,12.236,0.043,24.526,0.672,36.747c0.457,8.872,1.791,16.04,8.617,21.94
			c5.789,5.005,6.008,12.596,5.996,19.791c-0.012,7.832-1.473,15.602-1.334,23.425c0.035,1.946,0.064,3.882-0.033,5.827
			c-0.055,1.074-1.398,2.984-0.115,1.995c-1.998,1.541-2.691-0.628-2.799-2.998c-0.443-9.642-15.447-9.77-15.004-0.108
			c0.391,8.506,5.771,18.738,15.555,18.715c10.643-0.025,16.455-7.596,17.365-17.495c0.309-3.355-0.098-6.747,0.084-10.111
			c0.221-4.11,0.742-8.21,1.02-12.317c0.592-8.777,0.637-18.295-2.637-26.595c-1.518-3.853-3.646-7.077-6.629-9.96
			c-1.188-1.148-2.508-2.152-3.717-3.278c0.357,0.62,0.301,0.534-0.17-0.258c0.496,0.819-0.447-2.331-0.402-2.104
			c-1.061-5.426-0.797-10.883-1.053-16.368c-0.299-6.371-0.361-12.752-0.398-19.128c-0.047-8.159-0.814-16.608-0.076-24.741
			c0.102-1.133,0.443-2.289,0.953-3.273c-0.215,0.414,0.234-0.311,1.197-0.38c-1.863,0.133-2.334-3.316-1.42,0.139
			c0.408,1.54,0.664,3.113,1.086,4.651C-1334.667,365.405-1320.177,361.528-1322.728,352.195L-1322.728,352.195z"/>
	</g>
</g>
<g>
	<g>
		<path fill="#EA6D11" d="M-1304.738,490.617c2.652-6.37,2.813-13.475,3.051-20.279c0.281-8.01,0.979-16.016,1.52-24.012
			c1.166-17.199,2.354-34.364,4.215-51.506c1.029-9.473,1.787-18.916,2.65-28.399c0.385-4.216,0.881-8.41,1.799-12.546
			c0.18-0.806,0.406-1.599,0.641-2.39c0.396-1.337-0.416,0.437,0.514-1.145c-1.676,2.849,1.324-1.736,0.871-0.954
			c0.854-1.478,1.008-3.044,1.008-4.696c-3.752,2.147-7.502,4.294-11.252,6.441c-0.592-0.374,0.158,0.403,0.73,1.534
			c0.711,1.402,1.127,3.54,1.535,5.217c1.016,4.155,1.568,8.426,2.15,12.659c1.49,10.82,2.957,21.701,4.883,32.452
			c2.449,13.675,4.322,27.099,5.035,40.993c0.357,6.949,0.518,13.908,0.662,20.863c0.078,3.783,0.143,7.564,0.215,11.348
			c0.029,1.539,0.051,3.08,0.092,4.619c0.104,3.979-1.139,2.271,2.648-0.65c-3.234,2.495-4.938,6.402-2.672,10.268
			c1.871,3.191,7.023,5.174,10.268,2.672c5.59-4.311,4.795-10.389,4.666-16.801c-0.162-8.209-0.291-16.417-0.561-24.623
			c-0.543-16.425-1.889-32.861-5.158-48.986c-2.559-12.613-4.113-25.489-5.893-38.234c-1.268-9.073-2.629-20.962-11.102-26.32
			c-4.803-3.037-11.252,0.956-11.252,6.441c0,0.333,0,0.667,0,1c0.723-1.74,1.445-3.481,2.17-5.221
			c-5.982,4.831-6.064,16.926-6.787,23.759c-0.943,8.935-1.445,17.887-2.447,26.82c-1.848,16.479-3.119,32.967-4.24,49.506
			c-0.568,8.379-1.137,16.758-1.695,25.137c-0.477,7.127,0.066,14.348-2.734,21.074c-1.574,3.785,1.689,8.236,5.256,9.215
			C-1309.632,497.058-1306.306,494.382-1304.738,490.617L-1304.738,490.617z"/>
	</g>
</g>
<g>
	<g>
		<path fill="#EA6D11" d="M-1301.175,439.105c2.871-1.361,10.777,0.6,14.723,1.266c4.031,0.682,8.053-1.024,9.215-5.254
			c1-3.643-1.223-8.535-5.254-9.217c-8.639-1.459-17.996-3.664-26.279,0.266c-3.695,1.754-4.6,6.978-2.672,10.268
			C-1309.242,440.187-1304.865,440.856-1301.175,439.105L-1301.175,439.105z"/>
	</g>
</g>
<g>
	<g>
		<path fill="#EA6D11" d="M-1254.738,492.117c4.838-28.482,7.643-56.896,9.689-85.691c0.826-11.604,2.102-23.17,2.785-34.781
			c0.268-4.58,0.58-9.153,1.496-13.654c0.914-4.493,3.889-8.06,3.297-12.8c-3.752,2.147-7.502,4.294-11.252,6.441
			c-0.633-0.392-0.805-0.889-0.352-0.168c0.85,1.343,0.434,0.667,0.813,1.713c1.023,2.82,1.588,5.816,2.121,8.76
			c1.088,6.027,1.555,12.161,2.082,18.256c1.498,17.336,6.703,34.054,8.084,51.39c0.633,7.951,13.033,10.918,14.736,2.035
			c2.822-14.715,5.086-29.52,7.055-44.371c1.957-14.771,5.52-29.621,5.713-44.556c-4.916,0.629-9.832,1.258-14.746,1.887
			c4.426,11.279,3.943,23.629,4.473,35.536c0.621,13.991,1.926,28.059,3.762,41.94c1.875,14.184,3.633,28.368,5.064,42.603
			c0.359,3.563,0.426,7.169,0.537,10.745c0.064,2.07,0.1,4.142,0.113,6.213c0.004,0.764-0.006,1.528-0.023,2.293
			c-0.047,2.293-0.727,0.124,0.822-2.02c-2.398,3.317-0.523,8.357,2.746,10.244c3.809,2.199,7.852,0.565,10.244-2.744
			c1.76-2.436,1.23-6.729,1.197-9.563c-0.049-4.26-0.211-8.523-0.463-12.777c-0.855-14.449-2.91-29.032-4.984-43.352
			c-2.082-14.377-3.271-28.969-4.014-43.474c-0.674-13.165-0.088-27.045-4.986-39.526c-2.955-7.528-14.629-7.119-14.746,1.887
			c-0.186,14.316-3.654,28.53-5.471,42.701c-1.818,14.188-4.068,28.325-6.764,42.374c4.912,0.678,9.826,1.355,14.738,2.034
			c-0.955-11.981-3.441-23.688-5.816-35.446c-0.508-2.511-0.982-5.028-1.441-7.549c-0.34-1.86-0.002,0.375-0.244-1.935
			c-0.336-3.212-0.578-6.435-0.861-9.652c-0.658-7.436-1.42-14.91-2.932-22.228c-1.254-6.069-3.412-12.804-8.957-16.239
			c-4.373-2.708-11.963,0.748-11.252,6.441c0.076,1.978,0.244,2,0.508,0.067c-0.688,1.055-1.16,2.362-1.625,3.51
			c-0.707,1.754-1.219,3.529-1.646,5.371c-1.125,4.858-1.512,9.936-1.863,14.898c-0.797,11.191-1.824,22.356-2.668,33.546
			c-2.174,28.785-4.6,57.188-9.439,85.682C-1270.816,497.621-1256.355,501.643-1254.738,492.117L-1254.738,492.117z"/>
	</g>
</g>
<rect x="-735.994" y="-30.503" fill="none" stroke="#EA6D11" stroke-miterlimit="10" width="300" height="300"/>
<rect x="-735.994" y="-31.002" fill="none" stroke="#EA6D11" stroke-miterlimit="10" width="300" height="150"/>
<g>
	<g>
		<path fill="#EA6D11" d="M-698.087-16.022c1.178-6.404-1.577-14.683-9.007-15.778c-7.586-1.118-11.535,4.686-13.927,10.972
			c-6.056,15.921-5.903,34.564-4.804,51.271c0.977,14.833,9.316,27.655,11.773,42.195c0.945,5.591,1.22,11.332,0.924,16.99
			c-0.132,2.53-0.609,4.947-1.387,7.358c-0.496,1.54-1.195,2.071-2.106,2.541c3.024,0.379,6.049,0.758,9.073,1.137
			c-0.106-0.13,0.256-2.345,0.227-2.113c0.52-4.063-3.73-7.531-7.448-7.556c-4.461-0.03-7.037,3.396-7.556,7.447
			c-0.638,4.984,1.137,9.096,4.227,12.887c2.172,2.666,6.315,2.559,9.073,1.137c9.304-4.796,10.871-16.813,11.017-26.166
			c0.152-9.865-1.447-20.062-4.444-29.454c-2.01-6.299-4.949-12.248-6.854-18.588c-2.367-7.881-2.133-16.577-2.049-24.73
			c0.089-8.659,1.844-16.578,3.352-25.021c0.327-1.83,0.854-3.621,1.454-5.376c-0.106,0.309,0.805-1.571,0.772-1.514
			c-1.271,2.254-7.376,1.637-6.78-1.602C-714.298-10.522-699.837-6.513-698.087-16.022L-698.087-16.022z"/>
	</g>
</g>
<g>
	<g>
		<path fill="#EA6D11" d="M-682.547,108.165c0.655,0.501,0.964,1.099,0.925,1.793c-0.102-1.045,0.03-2.126,0.121-3.166
			c0.151-1.728,0.649-3.477,1.024-5.166c1.044-4.696,1.755-9.386,2.559-14.13c2.107-12.447,5.678-24.607,7.769-37.045
			c3.202-19.05,2.138-41.828,13.822-58.203c-4.58-0.603-9.159-1.206-13.739-1.809c6.727,18.61,9.092,38.375,10.632,57.997
			c0.843,10.737,1.361,21.483,2.456,32.201c1.201,11.754,2.576,23.478,2.654,35.308c0.064,9.683,15.068,9.774,15.004,0.108
			c-0.079-11.827-1.43-23.56-2.654-35.308c-1.117-10.714-1.644-21.463-2.457-32.201c-1.582-20.883-3.989-42.187-11.146-61.987
			c-2.313-6.399-9.831-7.286-13.739-1.809c-13.08,18.33-11.947,43.026-15.74,64.27c-2.555,14.313-6.586,28.264-8.597,42.699
			c-1.228,8.807-6.392,19.424,0.557,27.114C-686.611,126.009-676.076,115.327-682.547,108.165L-682.547,108.165z"/>
	</g>
</g>
<g>
	<g>
		<path fill="#EA6D11" d="M-680.303,64.232c6.333,1.026,12.542,0.804,18.927,0.767c9.683-0.056,9.773-15.06,0.107-15.003
			c-4.972,0.029-10.141,0.565-15.073-0.233c-4.036-0.654-8.048,1.004-9.216,5.254C-686.553,58.64-684.34,63.579-680.303,64.232
			L-680.303,64.232z"/>
	</g>
</g>
<g>
	<g>
		<path fill="#EA6D11" d="M-612.578,109.557c-1.429-3.596-0.675-7.618-0.811-11.417c-0.184-5.15-0.357-10.301-0.512-15.453
			c-0.328-11.015-0.42-22.025-0.42-33.044c0-10.545,0-21.091,0-31.636c0-8.1,2.668-20.887-3.771-27.325
			c-3.709-3.709-8.957-2.225-11.771,1.583c-0.598,0.808-0.861,1.814-1.196,2.753c-3.253,9.14,11.25,13.008,14.471,3.961
			c-0.095,0.262-0.189,0.523-0.284,0.786c-3.924,0.527-7.848,1.055-11.771,1.583c0.075,0.076,0.151,0.152,0.228,0.228
			c-0.656-1.13-1.313-2.261-1.969-3.392c1.431,3.551,1.439,6.856,1.263,10.631c-0.234,5.006-0.204,10.004-0.204,15.016
			c0,10.545,0,21.091,0,31.636c0,10.335,0.219,20.664,0.539,30.994c0.155,4.992,0.504,10.008,0.442,15.002
			c-0.049,4.022-0.236,8.171,1.276,11.976c1.51,3.798,4.889,6.455,9.186,5.304C-614.28,117.777-611.064,113.364-612.578,109.557
			L-612.578,109.557z"/>
	</g>
</g>
<g>
	<g>
		<path fill="#EA6D11" d="M-592.058-22.483c-1.346,8.257-0.073,17.097-0.329,25.454c-0.334,10.911-1.437,21.791-2.423,32.656
			c-2.003,22.052-0.617,43.743-0.015,65.816c0.085,3.085,2.173,6.762,5.521,7.289c7.6,1.197,15.202,2.639,22.927,2.267
			c9.638-0.464,9.768-15.469,0.107-15.003c-6.463,0.311-12.715-0.732-19.073-1.733c1.84,2.43,3.681,4.859,5.521,7.289
			c-0.566-20.718-2.129-41.238-0.332-61.942c0.891-10.253,1.921-20.492,2.511-30.768c0.295-5.131,0.411-10.27,0.393-15.409
			c-0.014-3.744-0.934-8.303-0.338-11.955C-576.045-27.988-590.504-32.017-592.058-22.483L-592.058-22.483z"/>
	</g>
</g>
<g>
	<g>
		<path fill="#EA6D11" d="M-546.317-18.252c-2.452,3.866-2.577,9.035-3.003,13.453c-0.578,6.012-1.557,11.885-2.64,17.833
			c-2.821,15.49-4.864,30.539-4.864,46.307c0,7.473,0,14.947,0,22.42c0,5.957-0.636,11.983,0.013,17.917
			c1.02,9.338,7.576,19.016,17.772,19.399c15.646,0.588,21.65-24.086,24.373-35.484c2.022-8.464,3.147-17.008,4.466-25.639
			c2.123-13.897,3.55-27.978,1.562-41.978c-0.939-6.613-2.765-12.717-5.34-18.869c-2.692-6.434-7.207-11.992-9.6-18.55
			c-3.288-9.013-17.806-5.208-14.488,3.882c2.507,6.872,6.431,12.895,9.774,19.357c2.806,5.421,4.372,11.641,5.102,17.681
			c1.583,13.092-0.17,26.477-2.247,39.408c-0.511,3.185-1.061,6.363-1.6,9.543c-0.283,1.67-0.564,3.336-0.787,5.016
			c0.33-2.491,0.103-0.786,0.018-0.268c-0.444,2.703-1.06,5.378-1.712,8.037c-1.729,7.044-3.808,13.929-7.542,20.059
			c-0.9,1.479-0.622,1.124-2.038,2.543c-1.459,1.462,1.165-0.685-0.464,0.341c-1.586,0.999,1.479-0.381-0.262,0.056
			c1.804-0.453-0.478-0.474,1.113-0.104c1.473,0.342-0.18-0.134-0.603-0.4c0.466,0.293-1.614-1.492-1.906-2.215
			c-1.813-4.484-0.763-10.146-0.615-14.842c0.226-7.185,0.015-14.409,0.015-21.597c0-15.136,0.937-29.495,3.659-44.404
			c1.176-6.433,2.444-12.868,3.271-19.356c0.306-2.404,0.462-4.829,0.694-7.241c0.088-0.921,0.191-1.838,0.34-2.75
			c0.231-1.422,0.232-1.587,0.528-2.054C-528.137-18.938-541.147-26.405-546.317-18.252L-546.317-18.252z"/>
	</g>
</g>
<g>
	<g>
		<path fill="#EA6D11" d="M-498.824-7.557c-0.068,19.934-2.151,39.774-2.888,59.682c-0.704,19.021,5.701,37.354,5.388,56.318
			c4.916-0.629,9.831-1.258,14.746-1.887c-3.086-19.55-0.68-39.615-0.173-59.271c0.271-10.527-0.287-21.061-0.292-31.591
			c-0.004-10.715,0.21-21.428,0.223-32.143c-2.519,2.482-5.037,4.965-7.556,7.447c5.855,0.117,11.215,1.852,16.067,5.125
			c4.657,3.143,6.081,9.717,6.499,14.936c0.442,5.531-0.627,10.798-3.644,15.467c-2.914,4.511-8.309,5.026-12.794,7.036
			c-5.389,2.414-4.303,8.905-3.953,13.513c0.605,7.96,1.775,15.863,2.722,23.786c1.358,11.375,2.298,25.571,10.381,34.468
			c6.506,7.162,17.043-3.519,10.551-10.665c-2.668-2.938-3.764-10.216-4.599-14.736c-1.153-6.246-1.791-12.601-2.584-18.899
			c-0.51-4.053-0.953-8.114-1.326-12.182c-0.169-1.834-0.283-3.672-0.457-5.505c-0.419-4.425,1.077,0.24-3.14,3.16
			c-1.83,1.267,0.963-0.147,1.675-0.364c1.936-0.59,3.792-1.365,5.626-2.215c3.135-1.452,5.973-3.915,8.268-6.46
			c9.577-10.626,10.15-27.012,5.506-39.907c-5.132-14.251-20.264-21.273-34.69-21.561c-4.068-0.081-7.551,3.402-7.556,7.447
			c-0.023,21.22,0.505,42.53,0.07,63.734c-0.435,21.167-2.638,42.204,0.688,63.261c1.354,8.581,14.61,6.311,14.746-1.887
			c0.313-18.98-5.997-37.312-5.389-56.318c0.638-19.915,2.819-39.743,2.889-59.682C-483.787-17.136-498.791-17.219-498.824-7.557
			L-498.824-7.557z"/>
	</g>
</g>
<g>
	<g>
		<path fill="#EA6D11" d="M-719.32,263.052c0.187-41.723,12.285-81.917,22.233-122.074c-4.827-0.013-9.653-0.026-14.479-0.04
			c1.875,6.812,0.854,14.004,0.467,20.958c-0.443,7.97,0.228,15.669,3.808,22.899c2.804,5.663,12.513,4.442,13.705-1.817
			c3.059-16.056,7.185-31.885,12-47.5c-4.827-0.013-9.653-0.026-14.479-0.04c4.208,20.715,0.919,42.06,2.242,63.005
			c0.704,11.138,1.412,22.263,1.909,33.414c0.234,5.241,0.459,10.483,0.702,15.724c0.245,5.298-0.699,11.842,4.773,14.747
			c5.74,3.047,12.66-1.958,10.994-8.436c-0.23-0.898-1.462-3.333-0.633-1.336c-1.567-3.775-4.844-6.467-9.186-5.304
			c-3.555,0.953-6.876,5.4-5.303,9.186c0.367,0.884,1.319,4.006,0.633,1.336c3.664-2.812,7.329-5.624,10.994-8.436
			c-0.211-0.112-0.422-0.224-0.633-0.336c1.251,2.183,2.501,4.366,3.752,6.549c-1.078-20.836-2.462-41.708-3.284-62.549
			c-0.812-20.575,1.665-41.075-2.474-61.446c-1.555-7.654-12.398-6.786-14.479-0.04c-4.814,15.615-8.941,31.444-12,47.5
			c4.568-0.605,9.137-1.211,13.705-1.817c-2.756-5.565-1.927-12.366-1.558-18.355c0.451-7.327,0.803-14.63-1.168-21.788
			c-1.944-7.064-12.656-7.396-14.479-0.04c-10.257,41.403-22.573,82.909-22.767,125.926
			C-734.367,272.632-719.364,272.713-719.32,263.052L-719.32,263.052z"/>
	</g>
</g>
<g>
	<g>
		<path fill="#EA6D11" d="M-662.578,254.057c-3.363-18.356,3.113-37.627,5.596-55.733c1.362-9.933,2.158-19.886,3.84-29.786
			c1.826-10.755,4.167-21.418,6.556-32.059c-4.827-0.013-9.653-0.026-14.479-0.04c5.969,20.496,6.503,41.98,9.5,63
			c1.279,8.977,3.448,17.829,5.094,26.742c1.47,7.963,3.115,16.726,1.915,24.836c-0.598,4.045,0.965,8.037,5.255,9.216
			c3.581,0.983,8.617-1.208,9.216-5.255c2.741-18.537-3.044-37.262-6.321-55.382c-4.033-22.295-3.792-45.139-10.17-67.04
			c-2.005-6.885-12.789-7.57-14.479-0.04c-4.775,21.278-8.278,42.449-10.728,64.109c-2.327,20.569-9.105,40.444-5.281,61.312
			C-675.322,267.459-660.847,263.503-662.578,254.057L-662.578,254.057z"/>
	</g>
</g>
<g>
	<g>
		<path fill="#EA6D11" d="M-666.803,211.232c4.8,1.192,9.271,0.347,13.922-0.99c3.928-1.13,6.376-5.182,5.303-9.186
			c-1.043-3.895-5.255-6.434-9.186-5.304c-1.427,0.411-2.85,0.821-4.303,1.128c-2.169,0.459,1.403-0.024-0.801,0.028
			c-2.005,0.048,1.089,0.365-0.975-0.147c-3.969-0.985-8.114,1.247-9.216,5.254C-673.12,205.887-670.765,210.249-666.803,211.232
			L-666.803,211.232z"/>
	</g>
</g>
<g>
	<g>
		<path fill="#EA6D11" d="M-615.32,254.552c0.134-38.508,7.916-76.336,12-114.5c-5.001-0.036-10.003-0.072-15.004-0.108
			c0.514,23,1.472,45.991,1.5,69c0.022,18.271-1.191,37.299,4.258,54.995c2.592,8.418,13.919,6.387,14.746-1.887
			c2.316-23.196,9.936-45.541,13.509-68.553c1.825-11.755,2.465-23.59,3.583-35.417c0.687-7.27,2.373-16.969-2.124-23.382
			c-5.507-7.854-18.506-0.343-12.939,7.596c2.647,3.776,0.192,13.627-0.175,18.577c-0.851,11.471-1.753,22.945-3.743,34.285
			c-3.926,22.364-10.852,44.133-13.114,66.787c4.916-0.629,9.831-1.258,14.746-1.887c-5.238-17.013-3.724-35.413-3.745-52.977
			c-0.027-22.35-0.998-44.687-1.497-67.028c-0.221-9.854-13.992-9.556-15.004-0.108c-4.084,38.165-11.865,75.992-12,114.5
			C-630.357,264.131-615.354,264.214-615.32,254.552L-615.32,254.552z"/>
	</g>
</g>
<g>
	<g>
		<path fill="#EA6D11" d="M-539.769,132.996c-30.149,1.869-18.916,37.443-11.744,55.194c1.583,3.917,3.334,7.772,4.477,11.848
			c1.903,6.784,2.19,13.944,2.185,20.947c-0.011,13.372-1.405,29.059-8.466,40.763c3.924-0.527,7.847-1.055,11.771-1.583
			c-4.991-5.363-4.288-12.781-4.273-19.613c0.02-9.688-14.983-9.771-15.004-0.108c-0.023,11.333,0.626,21.683,8.727,30.387
			c3.362,3.613,9.358,2.416,11.771-1.583c6.897-11.434,9.006-25.558,10.081-38.639c1.065-12.97,0.734-27.221-4.003-39.495
			c-3.417-8.854-7.233-17.473-9.51-26.728c-0.987-4.014-1.704-9.015-1.123-12.156c0.06-0.324,0.952-2.867,0.438-1.748
			c0.707-1.54,0.216-0.631,0.875-1.332c0.626-0.666-0.014-0.125,1.477-0.872c-0.627,0.314,1.731-0.249,2.216-0.279
			C-530.26,147.403-530.117,132.397-539.769,132.996L-539.769,132.996z"/>
	</g>
</g>
<g>
	<g>
		<path fill="#EA6D11" d="M-517.32,258.052c0.178-19.232,5.405-37.801,8.658-56.636c3.218-18.634,5.089-37.549,11.575-55.438
			c-4.912-0.678-9.825-1.356-14.737-2.035c0.099,15.054,2.344,29.964,3.224,44.973c0.458,7.798,0.034,15.45-0.363,23.23
			c-0.427,8.374-0.813,16.771-0.595,25.158c0.145,5.541,0.038,14.793,5.986,17.688c8.653,4.211,16.213-8.75,7.5-12.99
			c0.796,0.506,1.448,1.155,1.956,1.947c1.065,1.668,0.436,1.15,0.188,0.253c-0.153-0.554-0.24-1.128-0.336-1.694
			c0.305,1.803-0.048-0.634-0.064-0.826c-0.303-3.383-0.298-6.797-0.283-10.19c0.032-7.698,0.446-15.394,0.852-23.079
			c1.138-21.591-2.919-42.811-3.06-64.362c-0.059-8.863-11.91-9.831-14.737-2.035c-6.477,17.865-8.447,36.807-11.575,55.438
			c-3.379,20.13-9.001,39.94-9.191,60.488C-532.414,267.634-517.41,267.711-517.32,258.052L-517.32,258.052z"/>
	</g>
</g>
<g>
	<g>
		<path fill="#EA6D11" d="M-500.087,220.478c0.062-0.313,0.137-0.607,0.238-0.909c-0.246,0.59-0.493,1.18-0.739,1.77
			c0.143-0.342,0.306-0.641,0.527-0.938c-0.388,0.509-0.775,1.017-1.163,1.526c0.168-0.19,0.337-0.351,0.536-0.509
			c-0.512,0.398-1.023,0.796-1.535,1.194c0.21-0.138,0.414-0.249,0.644-0.351c-0.618,0.258-1.237,0.517-1.856,0.775
			c0.332-0.117,0.654-0.19,1.003-0.237c-0.665,0.086-1.33,0.172-1.995,0.257c0.489-0.036,0.96-0.014,1.445,0.048
			c-0.642-0.089-1.284-0.178-1.926-0.267c0.548,0.093,1.076,0.227,1.605,0.395c3.901,1.236,8.165-1.432,9.216-5.254
			c1.115-4.06-1.365-7.984-5.255-9.215c-2.475-0.784-5.479-1.098-7.976-0.216c-3.624,1.279-6.479,4.107-7.24,7.97
			c-0.791,4.011,1.104,8.075,5.255,9.216C-505.578,226.756-500.878,224.487-500.087,220.478L-500.087,220.478z"/>
	</g>
</g>
<g>
	<g>
		<path fill="#EA6D11" d="M-488.558,240.017c-0.5,1.5-1,3-1.5,4.5c4.827,0.013,9.653,0.026,14.479,0.04
			c-3.985-14.644,0.358-31.074,2.242-45.785c2.279-17.81,4.606-35.611,7.749-53.293c-4.568,0.605-9.137,1.211-13.705,1.817
			c4.521,10.804-0.282,24.369-0.032,35.648c0.162,7.281,10.305,10.622,13.997,3.804c7.495-13.841,8.996-29.957,11.24-45.27
			c-4.827-0.013-9.653-0.026-14.479-0.04c5.39,18.61,1.841,38.453,2.242,57.505c0.455,21.577,0.171,43.475,5.758,64.495
			c2.177,8.192,14.746,6.616,14.746-1.887c0-0.5,0-1,0-1.5c0-9.687-15.004-9.772-15.004-0.108c0,0.5,0,1,0,1.5
			c4.916-0.629,9.831-1.258,14.746-1.887c-5.373-20.219-4.838-41.307-5.275-62.057c-0.421-20.009,2.948-40.358-2.725-59.943
			c-1.909-6.593-13.336-7.841-14.479-0.04c-2.025,13.827-2.99,29.229-9.76,41.73c4.665,1.268,9.331,2.536,13.997,3.804
			c-0.333-14.975,4.009-28.914-2.032-43.352c-2.479-5.924-12.632-4.223-13.705,1.817c-3.368,18.956-5.837,38.054-8.282,57.146
			c-2.091,16.325-6.154,33.509-1.727,49.775c2.031,7.464,12.172,6.96,14.479,0.04c0.5-1.5,1-3,1.5-4.5
			C-471.019,234.771-485.514,230.886-488.558,240.017L-488.558,240.017z"/>
	</g>
</g>
<g>
	<g>
		<path fill="#EA6D11" d="M-458.47,454.233c4.565,1.462,7.845,4.616,12.927,4.934c5.632,0.352,10.733-1.683,15.638-4.254
			c4.129-2.166,7.661-5.204,11.454-7.878c3.687-2.598,5.776-3.693,9.545-0.875c3.28,2.452,8.383,0.48,10.245-2.745
			c2.224-3.852,0.525-7.8-2.745-10.245c-9.503-7.106-19.539-2.979-28.029,3.4c-3.72,2.795-7.514,5.603-11.941,7.167
			c-4.721,1.667-8.781-2.581-13.132-3.975C-463.751,436.803-467.646,451.294-458.47,454.233L-458.47,454.233z"/>
	</g>
</g>
<g>
	<g>
		<path fill="#EA6D11" d="M-419.353,433.867c-1.349-2.609-1.64-5.762-2.211-8.616c-0.68-3.4-1.884-6.663-3.175-9.87
			c-2.598-6.458-5.84-12.598-8.157-19.17c-5.392-15.291-10.233-30.77-15.35-46.154c-2.688-8.083-14.25-6.687-14.746,1.887
			c-1.771,30.626-7.542,60.936-7.667,91.667c-0.039,9.688,14.965,9.77,15.004,0.107c0.125-30.731,5.895-61.041,7.667-91.667
			c-4.916,0.629-9.831,1.258-14.746,1.887c5.116,15.385,9.998,30.848,15.349,46.154c2.495,7.137,5.993,13.787,8.808,20.784
			c2.706,6.729,2.938,14.108,6.285,20.586C-427.852,450.054-414.921,442.44-419.353,433.867L-419.353,433.867z"/>
	</g>
</g>
<g>
	<g>
		<path fill="#EA6D11" d="M-441.911,449.39c-2.403-6.566-8.166-8.79-14.338-10.927c-6.899-2.389-13.174-5.409-19.156-9.627
			c-2.5,4.33-5,8.66-7.5,12.99c14.706,9.666,29.439,21.437,48.161,15.987c8.563-2.492,14.893-9.581,22.738-13.527
			c7.39-3.718,17.879,3.393,22.575,8.711c3.517-3.556,7.034-7.11,10.551-10.666c-10.972-12.163-28.801-15.017-44.082-10.72
			c-8.405,2.363-15.799,7.389-24.265,9.708c-4.439,1.217-8.782,1.036-13.188-0.19c-3.483-0.97-5.543-3.46-8.657-4.96
			c-8.666-4.174-16.229,8.786-7.5,12.99c2.514,1.211,4.482,3.276,7.059,4.459c4.353,1.998,8.775,2.989,13.515,3.487
			c9.147,0.961,18.219-2.859,26.366-6.482c7.286-3.239,13.564-6.088,21.696-5.93c7.143,0.139,13.734,3.015,18.505,8.304
			c6.495,7.2,16.921-3.452,10.551-10.666c-5.955-6.743-15.283-11.933-24.127-13.541c-10.318-1.877-19.195,3.363-27.146,9.298
			c-7.229,5.396-13.59,7.602-22.425,4.708c-8.351-2.734-15.58-9.196-22.827-13.96c-8.166-5.367-15.294,7.495-7.5,12.99
			c5.023,3.542,10.348,6.427,16.071,8.676c2.189,0.861,4.405,1.65,6.625,2.431c0.927,0.326,1.897,0.598,2.805,0.977
			c2.148,0.899,2.054,2.229,1.005-0.637C-453.103,462.281-438.585,458.477-441.911,449.39L-441.911,449.39z"/>
	</g>
</g>
<g>
	<g>
		<path fill="#EA6D11" d="M-305.547,449.242c16.317-6.718,32,1.266,48.187,4.293c8.981,1.679,18.091,1.639,26.813-1.293
			c10.557-3.548,20.897-7.502,32-9c4.062-0.548,6.259-5.618,5.303-9.186c-1.16-4.329-5.135-5.85-9.186-5.303
			c-10.449,1.409-20.313,4.933-30.225,8.386c-8.481,2.956-16.206,2.99-24.936,1.071c-17.394-3.824-34.252-10.698-51.84-3.457
			c-3.779,1.556-6.464,4.853-5.303,9.186C-313.777,447.503-309.338,450.802-305.547,449.242L-305.547,449.242z"/>
	</g>
</g>
<g>
	<g>
		<path fill="#EA6D11" d="M-238.199,432.694c-4.177-14.161-10.58-27.503-13.818-41.955c-2.979-13.292-5.096-26.734-10.568-39.307
			c-1.562-3.586-6.909-1.552-6.986,1.872c-0.146,6.496-1.564,12.859-2,19.333c-0.496,7.389-0.092,14.887-0.018,22.286
			c0.114,11.406-2.026,24.221,2.479,35.045c1.83,4.397,9.099,2.514,7.244-1.941c-4.23-10.163-2.148-22.316-2.222-33.05
			c-0.047-6.811-0.203-13.617-0.044-20.428c0.166-7.118,1.9-14.072,2.062-21.191c-2.329,0.624-4.657,1.248-6.986,1.872
			c5.162,11.859,7.056,24.897,9.794,37.451c3.156,14.465,9.645,27.8,13.819,41.955C-244.077,439.267-236.83,437.337-238.199,432.694
			L-238.199,432.694z"/>
	</g>
</g>
<g>
	<g>
		<path fill="#EA6D11" d="M-240.184,438.287c9.577-3.669,19.602-6.337,28.594-11.388c-1.84-0.754-3.681-1.509-5.521-2.264
			c0.2,1.552,0.199,3.109,0.205,4.669c0.02,4.843,7.521,4.887,7.502,0.055c-0.009-2.254-0.175-4.433-0.463-6.665
			c-0.323-2.505-3.62-3.331-5.521-2.264c-8.407,4.721-17.783,7.181-26.738,10.612C-246.594,432.754-244.698,440.016-240.184,438.287
			L-240.184,438.287z"/>
	</g>
</g>
<g>
	<g>
		<path fill="#EA6D11" d="M-247.125,433.042c-3.713,1.324-7.494,2.398-10.928,4.388c-4.182,2.421-0.394,8.896,3.797,6.469
			c2.857-1.654,5.98-2.509,9.072-3.612c1.924-0.687,3.213-2.497,2.651-4.593C-243.028,433.84-245.197,432.354-247.125,433.042
			L-247.125,433.042z"/>
	</g>
</g>
<g>
	<g>
		<path fill="#EA6D11" d="M-270.239,428.97c-0.021,3.328-0.357,6.731,0.463,9.998c1.179,4.693,8.421,2.745,7.244-1.941
			c-0.643-2.558-0.222-5.39-0.205-8.002C-262.707,424.18-270.209,424.14-270.239,428.97L-270.239,428.97z"/>
	</g>
</g>
<g>
	<g>
		<path fill="#EA6D11" d="M-260.532,435.361c-1.126-5.097-4.634-9.738-4.871-15.002c-0.218-4.821-7.72-4.885-7.502-0.055
			c0.277,6.141,3.831,11.125,5.129,16.998C-266.732,442.031-259.492,440.069-260.532,435.361L-260.532,435.361z"/>
	</g>
</g>
<g>
	<g>
		<path fill="#EA6D11" d="M-326.074,297.873c5.609-9.454,18.005-12.161,28.163-13.013c12.501-1.048,23.738,1.387,35.334,5.821
			c15.593,5.962,31.168,12.319,48.1,12.688c16.908,0.368,30.599-8.182,45.554-14.636c4.428-1.911,0.591-8.364-3.797-6.47
			c-7.434,3.208-14.493,7.23-22.064,10.12c-8.54,3.26-17.524,3.966-26.559,3.059c-17.385-1.748-32.801-10.703-49.286-15.617
			c-18.966-5.654-50.559-4.881-61.94,14.299C-335.041,298.288-328.543,302.033-326.074,297.873L-326.074,297.873z"/>
	</g>
</g>
<g>
	<g>
		<path fill="#EA6D11" d="M-213.309,283.899c-4.593-14.818-5.373-30.543-5.399-45.96c-0.031-18.147-1.812-35.992-2.773-54.092
			c-0.226-4.236-6.077-5.161-7.368-1.017c-4.989,16.006-9.869,32.03-13.014,48.519c-3.101,16.265-6.406,32.271-11.826,47.96
			c-1.161,3.36,2.805,5.569,5.516,4.225c8.218-4.072,17.966-5.193,26.927-6.642c4.773-0.771,2.785-8.008-1.941-7.244
			c-9.721,1.571-19.87,3-28.782,7.416c1.838,1.408,3.678,2.817,5.516,4.225c5.188-15.019,8.766-30.439,11.484-46.079
			c2.981-17.151,8.186-33.812,13.355-50.401c-2.456-0.339-4.912-0.678-7.368-1.017c0.962,18.099,2.835,35.942,2.773,54.092
			c-0.054,16.01,0.891,32.578,5.657,47.956C-219.125,290.448-211.875,288.524-213.309,283.899L-213.309,283.899z"/>
	</g>
</g>
<g>
	<g>
		<path fill="#EA6D11" d="M-226.481,209.099c1.312,8.774,8.701,15.634,12.841,23.141c6.306,11.437,11.861,23.374,17.293,35.244
			c1.088-1.883,2.175-3.767,3.263-5.65c-8.572,0.625-16.953,2.847-25.559,3.031c-4.836,0.104-4.888,7.605-0.055,7.502
			c8.619-0.185,16.984-2.406,25.559-3.031c3.015-0.22,4.492-2.962,3.263-5.65c-5.194-11.349-10.693-22.552-16.448-33.626
			c-3.862-7.433-11.646-14.429-12.912-22.902C-219.951,202.378-227.188,204.372-226.481,209.099L-226.481,209.099z"/>
	</g>
</g>
<g>
	<g>
		<path fill="#EA6D11" d="M-168.586,284.766c-3.105-4.613-9.302-6.115-14.394-7.338c-6.077-1.46-12.555-2.435-18.814-2.514
			c-4.846-0.061-4.883,7.441-0.055,7.502c4.502,0.056,8.997,0.711,13.417,1.52c3.413,0.624,11.219,1.424,13.375,4.628
			C-172.372,292.551-165.879,288.789-168.586,284.766L-168.586,284.766z"/>
	</g>
</g>
<g>
	<g>
		<path fill="#EA6D11" d="M-317.154,139.273c4.512-3.799,8.364-8.446,13.211-11.831c5.534-3.865,12.123-3.997,18.624-3.527
			c14.483,1.045,28.33,7.986,42.056,12.194c14.023,4.299,28.861,7.061,43.547,5.456c7.769-0.85,14.94-2.999,22.107-6.059
			c5.896-2.519,12.909-6.077,16.283-11.758c4.946-8.328-8.05-15.818-12.99-7.5c-0.984,1.658-4.27,2.929-5.933,3.868
			c-3.1,1.75-6.354,3.069-9.725,4.188c-6.908,2.292-14.059,2.915-21.294,2.709c-14.736-0.419-29.163-5.471-42.926-10.33
			c-13.118-4.632-26.752-9.042-40.861-7.7c-6.929,0.659-13.195,2.962-18.751,7.169c-5.022,3.804-9.205,8.521-14.015,12.57
			C-335.215,134.948-324.508,145.463-317.154,139.273L-317.154,139.273z"/>
	</g>
</g>
<g>
	<g>
		<path fill="#EA6D11" d="M-199.91,122.723c-2.603-18.375-7.764-36.216-11.432-54.379c-3.86-19.11-5.92-38.532-9.901-57.621
			c-1.387-6.653-10.518-7.112-13.739-1.809c-18.663,30.719-20.409,67.784-32.074,101.103c-3.206,9.158,11.295,13.03,14.471,3.961
			c11.212-32.027,12.68-68.079,30.594-97.564c-4.58-0.603-9.16-1.206-13.739-1.809c3.846,18.442,6.004,37.178,9.521,55.68
			c3.583,18.857,9.115,37.285,11.813,56.32c0.574,4.058,5.598,6.265,9.186,5.304C-200.903,130.754-199.337,126.77-199.91,122.723
			L-199.91,122.723z"/>
	</g>
</g>
<g>
	<g>
		<path fill="#EA6D11" d="M-226.957,57.795c6.998,11.169,12.95,22.635,21.418,32.833c8.901,10.72,19.634,19.934,27.915,31.167
			c2.424,3.288,6.46,4.904,10.268,2.672c3.248-1.904,5.101-6.972,2.672-10.268c-8.042-10.909-17.872-20.249-26.9-30.31
			c-9.18-10.23-15.191-22.133-22.433-33.69C-219.138,42.028-232.106,49.576-226.957,57.795L-226.957,57.795z"/>
	</g>
</g>
<g>
	<g>
		<path fill="#EA6D11" d="M-693.358,401.134c5.79-2.67,10.53-6.917,15.551-10.763c5.952-4.559,12.368-7.296,19.891-7.97
			c15.929-1.427,29.546,8.667,43.593,14.511c15.285,6.36,31.336,5.828,47.405,3.293c7.778-1.227,29.067-7.66,19.038-18.873
			c-3.48-3.892-11.72-2.186-12.511,3.352c-0.027,0.195-0.056,0.389-0.083,0.583c1.765-1.755,3.529-3.51,5.294-5.264
			c-0.194,0.028-0.389,0.055-0.583,0.083c-4.057,0.58-6.266,5.595-5.303,9.186c1.153,4.306,5.14,5.882,9.186,5.304
			c0.194-0.028,0.389-0.056,0.582-0.083c2.293-0.328,4.966-2.96,5.295-5.264c0.027-0.194,0.055-0.389,0.083-0.583
			c-4.171,1.117-8.341,2.235-12.511,3.352c0.067,0.076,0.135,0.151,0.202,0.227c-0.742-1.795-1.483-3.591-2.226-5.387
			c0.283-6.722,3.692-5.624,2.08-4.967c-1.002,0.408-2.034,0.75-3.057,1.101c-2.039,0.701-4.105,1.323-6.162,1.966
			c-6.609,2.068-14.124,2.082-20.996,2.214c-13.587,0.262-25.698-6.403-37.482-12.315c-13.364-6.704-27.551-9.3-42.218-5.778
			c-13.112,3.148-20.896,13.711-32.664,19.137C-709.726,392.239-702.073,405.153-693.358,401.134L-693.358,401.134z"/>
	</g>
</g>
<g>
	<g>
		<path fill="#EA6D11" d="M-547.881,382.332c1.802,1.604-0.536-1.044-0.96-1.753c-1.099-1.833-2.227-3.614-3.241-5.5
			c-2.543-4.728-4.573-9.727-6.938-14.545c-4.645-9.465-9.696-18.856-13.226-28.81c-2.743-7.739-14.689-6.957-14.746,1.887
			c-0.065,10.312-0.467,20.377,0.54,30.662c0.332,3.392,0.724,6.775,1.002,10.172c0.154,1.881,0.239,3.764,0.26,5.651
			c0.019,1.767-0.539,2.327,0.205,1.153c-5.19,8.185,7.821,15.652,12.99,7.5c3.646-5.749,1.53-15.026,0.866-21.321
			c-1.194-11.315-0.933-22.352-0.859-33.708c-4.916,0.629-9.831,1.258-14.746,1.887c3.994,11.267,9.688,21.74,14.774,32.524
			c2.543,5.391,4.957,10.862,7.781,16.113c1.496,2.782,3.365,6.636,5.746,8.755C-551.24,399.397-540.631,388.784-547.881,382.332
			L-547.881,382.332z"/>
	</g>
</g>
<g>
	<g>
		<path fill="#EA6D11" d="M-566.875,366.5c4.22,0.032,8.587,3.529,12.304,5.327c5.889,2.848,12.029,5.081,17.333,9
			c3.293,2.434,8.375,0.495,10.245-2.745c2.216-3.837,0.539-7.818-2.745-10.245c-5.599-4.137-12.158-6.497-18.378-9.505
			c-6.01-2.907-11.734-6.783-18.651-6.835C-576.457,351.423-576.535,366.426-566.875,366.5L-566.875,366.5z"/>
	</g>
</g>
<g>
	<g>
		<path fill="#EA6D11" d="M-521.058,384.017c-3.149,12.466-16.35,20.209-26.609,26.452c-13.395,8.152-28.781,9.483-44.102,9.526
			c-9.685,0.027-9.772,15.031-0.107,15.004c18.873-0.054,36.965-2.56,53.352-12.532c13.292-8.09,27.919-18.588,31.938-34.489
			C-504.215,378.59-518.688,374.64-521.058,384.017L-521.058,384.017z"/>
	</g>
</g>
<g>
	<g>
		<path fill="#EA6D11" d="M-971.876,434.5c34.562-0.556,69.483-3.693,101.352-18.032c3.733-1.68,4.568-7.031,2.672-10.268
			c-2.232-3.807-6.543-4.348-10.268-2.672c-29.244,13.158-62.01,15.46-93.648,15.968
			C-981.443,419.651-981.544,434.655-971.876,434.5L-971.876,434.5z"/>
	</g>
</g>
<g>
	<g>
		<path fill="#EA6D11" d="M-901.353,416.2c-4.019-8.489-4.771-18.318-5.969-27.511c-1.513-11.617-5.378-22.818-8.257-34.132
			c-5.697-22.394-9.927-45.181-13.5-68c-1.349-8.617-14.537-6.275-14.746,1.887c-1.008,39.325-1.979,78.66-1.5,118
			c0.724-1.741,1.446-3.481,2.17-5.222c-0.17,0.185-0.339,0.37-0.508,0.555c3.934,0.492,7.867,0.985,11.802,1.478
			c2.138,2.882-1.454-2.293-1.687-2.589c-2.523-3.22-8.011-2.573-10.607,0.057c-3.139,3.178-2.466,7.39,0.057,10.607
			c0.075,0.097,0.15,0.193,0.227,0.289c-0.656-1.13-1.313-2.261-1.969-3.391c0.153,0.937,0.467,1.85,1.04,2.622
			c2.75,3.706,8.246,5.362,11.802,1.478c3.529-3.854,2.64-8.602,2.598-13.46c-0.043-5.144-0.054-10.289-0.053-15.433
			c0.004-10.343,0.104-20.685,0.247-31.026c0.295-21.289,0.84-42.573,1.386-63.856c-4.916,0.629-9.831,1.258-14.746,1.887
			c3.67,23.442,8.104,46.795,13.957,69.797c2.841,11.166,6.587,22.159,7.957,33.647c1.231,10.32,2.878,20.442,7.36,29.913
			C-910.157,432.53-897.24,424.886-901.353,416.2L-901.353,416.2z"/>
	</g>
</g>
<g>
	<g>
		<path fill="#EA6D11" d="M-925.803,361.733c0.849,0.329,2.442,3.253,3.205,4.097c2.046,2.266,4.247,4.394,6.451,6.504
			c4.639,4.441,9.493,8.668,14.253,12.979c8.332,7.548,16.735,15.665,23.102,24.981c5.42,7.932,18.411,0.412,12.939-7.596
			c-7.139-10.447-16.197-19.527-25.49-28.051c-5.177-4.748-10.476-9.363-15.55-14.222c-4.953-4.743-8.386-10.62-14.949-13.165
			c-3.82-1.481-8.217,1.618-9.216,5.255C-932.225,356.765-929.606,360.258-925.803,361.733L-925.803,361.733z"/>
	</g>
</g>
<g>
	<g>
		<path fill="#EA6D11" d="M-947.066,407.939c1.591,4.286,1.64,8.997,1.242,13.505c5.001,0.036,10.003,0.071,15.004,0.107
			c-0.404-8.668,0.404-17.331,0-26c-0.45-9.641-15.454-9.769-15.004-0.108c0.404,8.668-0.404,17.332,0,26
			c0.455,9.753,14.161,9.678,15.004,0.107c0.5-5.682,0.243-12.104-1.758-17.495C-935.913,395.069-950.433,398.869-947.066,407.939
			L-947.066,407.939z"/>
	</g>
</g>
<g>
	<g>
		<path fill="#231F20" d="M14.935,23.272c2.433,12.611,2.803,25.566,3.136,38.372c0.365,14.036,0.647,28.095,0.802,42.134
			c0.358,32.657-2.778,65.232-3.86,97.849c-1.088,32.794-0.604,65.617-1.85,98.419c-0.624,16.42-1.469,32.831-2.485,49.231
			c-0.984,15.882,0.486,31.875,2.096,47.665c1.42,13.927,3.082,27.829,3.838,41.814c0.732,13.555,1.278,28.73-2.334,41.929
			c-1.273,4.654,2.33,9.479,7.182,9.482c32.769,0.019,65.54,0.92,98.305,0.032c32.57-0.883,65.066-3.763,97.571-5.859
			c32.452-2.093,64.624-2.638,97.124-1.59c16.177,0.521,32.359,0.935,48.541,0.354c16.135-0.579,32.223-1.773,48.372-2.104
			c14.218-0.29,28.7-1.235,42.258,3.818c8.563,3.192,22.221,12.615,30.655,3.87c3.735-3.874,3.853-8.802,2.305-13.695
			c-1.985-6.281-4.365-12.034-5.568-18.595c-2.782-15.175,0.968-31.507,2.961-46.577c4.298-32.495,2.221-65.192,1.002-97.828
			c-1.229-32.938,0.264-65.813,0.325-98.758c0.062-33.037-0.533-66.071-0.59-99.107c-0.029-16.519,0.101-33.039,0.487-49.554
			c0.197-8.415,0.353-16.801,1.393-25.161c0.969-7.789,2.31-15.494,2.415-23.362c0.06-4.426-3.413-7.084-7.448-7.556
			c-13.197-1.543-26.672,2.048-39.495,4.757c-14.373,3.036-29.111,4.37-43.622,6.656c-15.736,2.479-31.208,4.645-47.169,4.863
			c-15.914,0.217-31.829-1.007-47.632-2.791c-15.961-1.802-31.766-4.725-47.748-6.343c-16.298-1.65-32.702-2.105-49.074-2.078
			c-32.313,0.053-64.483,2.06-96.81,0.879c-18.098-0.661-36.212-1.753-54.225-3.649c-11.942-1.257-29.122-4.213-38.945,4.599
			C9.645,21.85,20.329,32.383,27.512,25.94c-1.153,1.034,0.59-0.264,0.831-0.385c-1.195,0.602,1.476-0.309,1.399-0.29
			c1.736-0.434,3.51-0.506,5.291-0.59c5.298-0.25,10.637,0.182,15.911,0.65c11.44,1.015,22.836,2.133,34.306,2.865
			c32.033,2.044,63.888,1.829,95.948,0.835c32.811-1.017,65.285-0.195,97.781,4.68c31.318,4.698,63.119,7.908,94.762,4.865
			c19.559-1.881,38.853-6.186,58.384-8.405c16.431-1.867,32.604-8.622,49.333-6.667c-2.483-2.519-4.966-5.037-7.448-7.556
			c-0.097,7.241-1.189,14.371-2.173,21.531c-1.142,8.318-1.365,16.629-1.585,25.011c-0.433,16.514-0.546,33.035-0.539,49.554
			c0.013,33.037,0.605,66.07,0.595,99.107c-0.011,32.946-1.562,65.836-0.399,98.775c1.151,32.627,3.44,65.357-0.68,97.862
			c-1.969,15.531-5.281,31.388-3.469,47.077c0.767,6.63,2.103,13.248,4.568,19.462c0.861,2.17,1.771,4.299,2.348,6.565
			c-0.516-2.025,4.65-4.011,2.223-3.725c-0.27,0.032-2.22-0.541-3.011-0.796c-4.903-1.579-9.519-4.104-14.298-6.018
			c-6.276-2.515-13.131-3.588-19.824-4.204c-15.638-1.44-31.915-0.141-47.576,0.517c-16.153,0.678-32.215,1.824-48.395,1.72
			c-16.216-0.105-32.42-0.877-48.63-1.275c-32.451-0.799-64.839,1.433-97.194,3.676c-28.619,1.984-57.239,4.104-85.931,4.637
			c-29.489,0.549-58.984-0.238-88.475-0.256c2.394,3.161,4.788,6.321,7.182,9.482c3.972-14.512,3.575-30.876,2.866-45.781
			c-0.756-15.899-2.865-31.709-4.409-47.542c-3.162-32.432,0.01-64.618,1.18-97.076c1.183-32.79,0.6-65.615,1.841-98.392
			c1.234-32.628,4.203-65.187,3.561-97.866c-0.513-26.05,0.595-52.904-4.362-78.598C27.589,9.883,13.113,13.831,14.935,23.272
			L14.935,23.272z"/>
	</g>
</g>
<g>
	<g>
		<path fill="#231F20" d="M241.609,179.351c-4.859,24.193-1.674,48.895-1.388,73.328c0.272,23.245-0.489,48.472-7.945,70.672
			c-3.089,9.2,11.407,13.083,14.471,3.961c7.377-21.966,8.089-46.373,8.471-69.351c0.411-24.759-4.063-50.129,0.862-74.649
			C257.978,173.861,243.515,169.867,241.609,179.351L241.609,179.351z"/>
	</g>
</g>
<g>
	<g>
		<path fill="#231F20" d="M202.268,192.605c2.659,11.156,0.801,22.79-0.086,34.063c-0.771,9.798-1.843,23.497,4.968,31.568
			c5.188,6.147,13.288,4.823,20.345,4.132c12.049-1.179,23.725,0.521,35.37,3.531c9.378,2.425,13.323-12.049,3.961-14.47
			c-10.217-2.642-20.52-4.401-31.095-4.432c-4.311-0.013-8.572,0.411-12.852,0.857c-1.633,0.17-3.256,0.264-4.896,0.204
			c-0.415-0.015-0.17-0.589,0.426,0.313c-1.814-2.743-1.552-8.131-1.625-11.401c-0.114-5.133,0.39-10.283,0.834-15.39
			c0.96-11.03,1.733-21.973-0.861-32.856C214.511,179.305,200.027,183.212,202.268,192.605L202.268,192.605z"/>
	</g>
</g>
</svg>
