<?xml version="1.0" encoding="utf-8"?>
<!-- Generator: Adobe Illustrator 15.1.0, SVG Export Plug-In . SVG Version: 6.00 Build 0)  -->
<!DOCTYPE svg PUBLIC "-//W3C//DTD SVG 1.1//EN" "http://www.w3.org/Graphics/SVG/1.1/DTD/svg11.dtd">
<svg version="1.1" id="Layer_1" xmlns="http://www.w3.org/2000/svg" xmlns:xlink="http://www.w3.org/1999/xlink" x="0px" y="0px"
	 width="644.329px" height="170.999px" viewBox="0 0 644.329 170.999" enable-background="new 0 0 644.329 170.999"
	 xml:space="preserve">
<g>
	<g>
		<path fill="#EA6D11" d="M51.286-152.077c-3.205-3.673-8.282-5.354-13.058-5.235c-6.185,0.153-10.166,4.14-12.396,9.509
			c-3.301,7.946-0.071,18.757,1.225,26.833c1.014,6.314,1.114,12.422,4.304,18.141c2.937,5.264,8.655,8.222,10.651,14.067
			c2.025,5.935,0.404,12.317-0.285,18.321c-0.26,2.27-0.699,4.799-1.65,6.89c-0.97,2.133-0.754,0.931-0.171,0.692
			c-2.305,0.943,1.403-0.197,2.058,1.563c-3.346-8.983-17.866-5.184-14.489,3.882c4.559,12.239,19.254,12.337,25.593,1.363
			c2.887-5,3.203-11.141,4.052-16.709c1.02-6.687,1.154-13.305-0.619-19.884c-1.755-6.513-6.156-11.197-10.704-15.895
			c-4.085-4.221-3.491-11.579-4.368-17.042c-0.676-4.212-1.45-8.35-1.658-12.623c-0.095-1.959-0.04-3.769,0.531-5.64
			c-0.157,0.516-1.308,1.513-1.041,1.506c0.706-0.018,1.054,0.446,1.472,0.925C47.093-134.123,57.619-144.818,51.286-152.077
			L51.286-152.077z"/>
	</g>
</g>
<g>
	<g>
		<path fill="#EA6D11" d="M72.328-52.611c-1.148-15.779-1.272-31.6-0.63-47.405c0.319-7.86,0.999-15.685,1.621-23.524
			c0.301-3.793,0.798-7.572,1.188-11.356c0.18-1.751,0.31-3.506,0.418-5.264c-0.034-0.522,0.027-1.027,0.182-1.515
			c0.616-1.91-0.011-1.292-1.882,1.853c-1.284,0.344-2.568,0.688-3.852,1.032c-3.031-0.011-3.793-2.223-1.901,0.612
			c1.11,1.663,2.077,3.436,3.01,5.202c1.558,2.95,2.658,6.088,3.687,9.252c2.42,7.441,3.818,15.211,4.967,22.935
			c2.543,17.101,4.501,34.956,4.113,52.25c4.657-1.248,9.314-2.496,13.971-3.744c-0.364-0.513-0.643-1.071-0.836-1.672
			c-1.589-3.775-7.097-4.53-10.268-2.672c-3.871,2.27-4.257,6.502-2.672,10.268c0.194,0.601,0.473,1.159,0.836,1.672
			c3.9,6.333,13.803,3.742,13.971-3.744c0.43-19.154-2.038-38.829-4.854-57.76c-1.228-8.253-2.997-16.434-5.717-24.329
			c-2.516-7.302-6.324-17.131-12.954-21.676c-6.516-4.467-13.059,0.907-14.276,7.566c-1.782,9.757-2.116,20.106-2.896,29.993
			c-1.621,20.579-1.73,41.328-0.232,61.916C58.023-43.123,73.029-42.97,72.328-52.611L72.328-52.611z"/>
	</g>
</g>
<g>
	<g>
		<path fill="#EA6D11" d="M63.264-79.717c7.788,2.162,15.814-0.401,23.669-0.57c9.67-0.208,9.776-15.211,0.108-15.003
			c-6.256,0.134-14.222,2.656-19.817,1.103C57.882-96.78,53.953-82.301,63.264-79.717L63.264-79.717z"/>
	</g>
</g>
<g>
	<g>
		<path fill="#EA6D11" d="M92.287-145.222c2.733,7.598,3.354,15.372,3.741,23.377c0.435,9.026,1.326,17.79,2.718,26.716
			c1.256,8.06,1.541,16.425,1.734,24.571c0.141,5.948-1.261,12.897,1.006,18.579c1.515,3.796,4.886,6.456,9.186,5.304
			c3.597-0.964,6.822-5.379,5.304-9.186c-1.844-4.622-0.403-10.856-0.52-15.75c-0.217-9.157-0.951-18.331-2.221-27.4
			c-1.148-8.198-1.89-16.206-2.289-24.484c-0.417-8.654-1.22-17.408-4.17-25.608C103.526-158.137,89.01-154.329,92.287-145.222
			L92.287-145.222z"/>
	</g>
</g>
<g>
	<g>
		<path fill="#EA6D11" d="M112.936-148.889c-1.002,15.505,4.756,30.264,5.786,45.586c1.222,18.185,0.487,36.547,1.323,54.765
			c0.192,4.201,3.202,7.37,7.447,7.556c7.024,0.308,13.907-1.508,20.906-1.672c9.668-0.227,9.776-15.229,0.108-15.003
			c-7,0.164-13.882,1.979-20.906,1.672c2.482,2.519,4.965,5.037,7.447,7.556c-0.811-17.69-0.848-35.401-1.254-53.103
			c-0.366-15.949-6.889-31.23-5.854-47.249C128.565-158.461,113.556-158.487,112.936-148.889L112.936-148.889z"/>
	</g>
</g>
<g>
	<g>
		<path fill="#EA6D11" d="M163.492-146.549c-0.312-0.187-0.608-0.396-0.888-0.627c1.165,1.518,2.33,3.036,3.494,4.554
			c-0.076-0.222-0.152-0.444-0.229-0.667c-0.003,1.307-0.006,2.614-0.009,3.921c0.094-0.405,0.188-0.81,0.281-1.215
			c-4.912-0.678-9.824-1.356-14.736-2.035c0.008,15.778,0.228,31.553,1.129,47.309c0.632,11.055,1.245,22.362,3.69,33.2
			c1.66,7.359,6.869,17.825,16.283,14.389c10.273-3.75,12.764-16.42,13.593-25.949c0.918-10.547,0.191-21.26,0.736-31.846
			c0.699-13.565,0.765-27.352-2.288-40.663c-2.25-9.811-9.207-19.954-20.475-17.429c-9.933,2.226-11.319,14.709-12.82,22.826
			c-1.75,9.46,12.711,13.469,14.47,3.961c0.532-2.876,0.915-5.766,1.586-8.617c0.276-1.171,0.625-2.366,1.151-3.435
			c1.056-2.142,0.046,0.368-1.369-0.386c1.392,0.741,2.304,4.719,2.739,6.152c1.319,4.35,1.745,8.985,2.078,13.496
			c0.748,10.134,0.156,20.352-0.434,30.477c-0.466,7.994,0.144,16.006-0.285,24.006c-0.192,3.585-0.764,7.031-1.938,10.431
			c-0.267,0.773-0.858,1.609-1.364,2.243c-1.482,1.857,2.391-0.432,4.34,1.368c1.352,1.248-0.621-1.508-0.223-0.506
			c-0.564-1.419-0.932-2.919-1.294-4.399c-0.619-2.534-1.009-5.126-1.38-7.707c-3.25-22.601-2.912-46.03-2.924-68.812
			c-0.004-8.394-12.789-10.457-14.736-2.035c-1.095,4.734,0.176,8.304,4.321,10.984C164.13-128.295,171.591-141.312,163.492-146.549
			L163.492-146.549z"/>
	</g>
</g>
<g>
	<g>
		<path fill="#EA6D11" d="M187.363-153.07c-0.238,9.128,2.423,18.061,2.702,27.191c0.282,9.209,0.206,18.425,0.231,27.637
			c0.027,9.621,0.225,19.24,0.595,28.854c0.173,4.486,0.412,8.968,0.683,13.449c0.282,4.642-0.185,10.047,4.62,12.525
			c5.042,2.601,11.07-0.635,11.251-6.441c0.033-1.037-0.184-2.054-0.319-3.079c-0.535-4.064-5.628-6.257-9.186-5.304
			c-4.339,1.163-5.836,5.133-5.304,9.186c-0.065-0.304-0.13-0.607-0.195-0.911c3.751-2.147,7.501-4.294,11.252-6.441
			c-0.16-0.083-0.32-0.165-0.48-0.248c1.25,2.183,2.501,4.366,3.751,6.549c-1.23-17.257-1.657-34.55-1.673-51.848
			c-0.008-8.55-0.018-17.098-0.28-25.645c-0.261-8.526-2.868-16.854-2.647-25.367C202.619-162.656,187.614-162.717,187.363-153.07
			L187.363-153.07z"/>
	</g>
</g>
<g>
	<g>
		<path fill="#EA6D11" d="M197.224-147.026c2.858-0.946,3.165-0.926,4.678,1.341c2.394,3.589,3.294,8.061,4.144,12.534
			c1.563,8.225,1.665,17.337,2.164,25.944c0.167,2.864,0.179,5.727-0.07,8.585c-0.027,0.308-0.414,1.595-0.147,0.97
			c-0.587,1.373,1.279-0.506-0.574,0.058c-6.999,2.133-10.387,7.279-8.763,14.571c1.297,5.824,7.483,10.415,11.506,14.377
			c5.749,5.661,9.903,12.772,15.805,18.386c6.995,6.653,17.58-3.979,10.551-10.665c-5.914-5.625-10.157-12.588-15.805-18.386
			c-2.219-2.278-4.598-4.378-6.739-6.736c-0.28-0.309-1.006-1.698-0.881-0.729c0.438,3.4-4.878,4.61-0.91,3.401
			c14.654-4.465,10.966-22.41,10.302-34.076c-0.913-16.023-3.995-52.388-29.143-44.065
			C184.199-158.489,188.03-143.983,197.224-147.026L197.224-147.026z"/>
	</g>
</g>
<g>
	<g>
		<path fill="#EA6D11" d="M277.212-50.102c-0.166-7.902,3.106-15.269,4.186-23.019c1.336-9.589,2.212-19.228,3.16-28.861
			c1.758-17.862,3.001-36.132,7.022-53.654c-4.568,0.605-9.137,1.211-13.705,1.817c9.58,19.976,5.111,43.744,11.769,64.625
			c2.048,6.421,13.341,7.983,14.48,0.04c1.57-10.96,1.389-22.137,3.345-33.032c2.049-11.415,5.388-22.565,7.944-33.868
			c-4.826-0.013-9.653-0.026-14.479-0.04c2.879,9.483,1.313,19.544,2.086,29.301c0.896,11.3,3.423,22.708,6.504,33.596
			c2.467,8.716,5.851,17.171,7.219,26.159c0.992,6.517,1.033,13.9,4.199,19.841c4.549,8.535,17.484,0.932,12.939-7.596
			c0.909,1.706-0.308-1.202-0.433-1.723c-0.344-1.434-0.562-2.901-0.796-4.355c-0.602-3.737-1.033-7.5-1.603-11.243
			c-1.394-9.15-5.037-17.898-7.55-26.776c-2.882-10.184-5.126-20.92-5.73-31.496c-0.571-9.985,0.608-19.853-2.348-29.591
			c-2.073-6.829-12.766-7.619-14.479-0.04c-2.559,11.313-5.766,22.471-7.945,33.868c-2.088,10.922-1.772,22.06-3.345,33.032
			c4.827,0.013,9.653,0.026,14.48,0.04c-7.145-22.408-2.939-46.696-13.319-68.339c-2.818-5.875-12.314-4.242-13.705,1.817
			c-4.169,18.171-5.463,37.059-7.361,55.572c-0.987,9.634-1.756,19.296-3.092,28.891c-1.177,8.452-4.63,16.234-4.448,24.923
			C262.411-40.54,277.415-40.435,277.212-50.102L277.212-50.102z"/>
	</g>
</g>
<g>
	<g>
		<path fill="#EA6D11" d="M347.608-46.922c5.468-16.428,3.267-35.024,2.847-52.013c-0.274-11.126-0.596-22.287-0.605-33.416
			c-0.004-5.522-0.215-11.986,0.898-17.027c0.124-0.523,0.272-1.041,0.444-1.551c-0.287,0.623-0.241,0.574,0.138-0.146
			c-1.501,2.669-7.081,0.459-4.942,2.554c1.449,1.42,1.337,6.303,1.484,8.267c0.708,9.467,2.435,18.416,4.198,27.75
			c2.072,10.967,3.884,21.885,4.939,32.999c1.034,10.91,1.991,21.862,4.554,32.542c3.074-3.059,6.149-6.117,9.225-9.176
			c-0.262-0.105-0.523-0.209-0.785-0.314c1.497,1.146,2.993,2.292,4.49,3.438c-0.157-0.313-0.314-0.627-0.471-0.941
			c-4.324-8.649-17.248-1.024-12.939,7.596c1.307,2.613,3.122,3.644,5.744,4.691c5.565,2.224,10.425-4.175,9.225-9.176
			c-2.826-11.78-3.5-23.849-4.767-35.858c-1.317-12.502-3.735-24.898-6.186-37.22c-0.916-4.606-1.801-8.906-2.063-13.585
			c-0.254-4.541-0.587-9.133-1.726-13.549c-2.119-8.212-10.496-15.854-19.105-11.485c-6.118,3.104-6.747,12.382-7.111,18.266
			c-0.653,10.552-0.101,21.186,0.175,31.74c0.279,10.644,0.498,21.301,0.697,31.948c0.185,9.886,0.33,20.221-2.827,29.706
			C330.074-41.675,344.569-37.789,347.608-46.922L347.608-46.922z"/>
	</g>
</g>
<g>
	<g>
		<path fill="#EA6D11" d="M343.246-81.123c7.113,0.076,14.208,0.796,21.325,0.836c9.688,0.056,9.769-14.948,0.107-15.003
			c-7.116-0.041-14.211-0.761-21.324-0.836C333.664-96.229,333.588-81.225,343.246-81.123L343.246-81.123z"/>
	</g>
</g>
<g>
	<g>
		<path fill="#EA6D11" d="M392.419-51.446c-1.315-2.606-0.927-6.194-0.883-9.006c0.063-3.962,0.236-7.913,0.256-11.877
			c0.051-10.212,0.351-20.421,0.401-30.633c0.088-17.571-2.462-35.836,1.828-53.091c-4.568,0.605-9.137,1.211-13.705,1.817
			c7.76,16.444,8.136,35.249,10.933,52.918c3.033,19.165,7.074,38.497,13.381,56.866c2.87,8.361,13.701,6.414,14.746-1.887
			c2.314-18.392,1.007-36.927,1.596-55.399c0.577-18.097,3.745-36.004,3.84-54.15c0.05-9.689-14.953-9.77-15.004-0.108
			c-0.091,17.486-2.45,34.853-3.764,52.266c-1.438,19.088,0.729,38.21-1.672,57.284c4.916-0.629,9.831-1.258,14.746-1.887
			c-6.49-18.906-10.519-38.786-13.64-58.505c-2.977-18.802-3.967-37.496-12.223-54.993c-2.822-5.98-12.224-4.139-13.705,1.817
			c-4.777,19.216-2.272,39.297-2.37,58.858c-0.055,10.85-0.386,21.697-0.405,32.548c-0.015,8.43-1.24,16.943,2.704,24.758
			C383.837-35.217,396.763-42.839,392.419-51.446L392.419-51.446z"/>
	</g>
</g>
<g>
	<g>
		<path fill="#EA6D11" d="M493.189-143.016c-3.386-4.818-4.21-10.871-8.17-15.606c-4.442-5.311-14.101-6.504-19.629-2.391
			c-5.777,4.297-6.746,11.388-6.646,18.148c0.115,7.842,0.208,15.715,0.414,23.557c0.219,8.322,1.207,20.599,7.65,26.817
			c4.889,4.718,13.519,4.955,15.324,12.08c1.625,6.411-0.243,13.992-1.428,20.341c-0.283,1.521-0.532,3.046-0.793,4.572
			c-0.16,0.939-1.42,3.973-0.749,3.469c-1.094,0.821-4.857-0.009-5.271-1.322c-2.891-9.201-17.392-5.357-14.488,3.882
			c2.506,7.975,10.571,12.515,18.632,12.782c8.965,0.297,14.729-6.787,16.347-14.85c2.896-14.437,7.037-32.302-4.128-44.218
			c-2.608-2.785-6.534-3.981-9.915-5.465c-3.943-1.731-4.388-5.458-5.315-9.358c-2.148-9.027-0.51-18.796-1.077-27.996
			c-0.174-2.816-0.288-5.619-0.106-8.438c0.003-0.036,0.525-2.221,0.345-1.825c0.826-1.815-1.219,0.261-0.537,0.375
			c2.564,0.428,4.962,10.71,6.601,13.043C485.764-127.574,498.764-135.083,493.189-143.016L493.189-143.016z"/>
	</g>
</g>
<g>
	<g>
		<path fill="#EA6D11" d="M514.291-44.249c2.063-25.542,1.788-51.203,3.854-76.747c0.466-5.752,0.854-11.522,1.65-17.241
			c0.498-3.577,1.144-7.141,2.105-10.624c0.149-0.523,0.312-1.042,0.487-1.557c0.733-2.24-0.575,1.029,0.342-0.795
			c0.666-1.325-0.822,0.544-1.132,0.785c-1.565,1.214-4.765,0.841-6.133-0.514c-0.905-0.896-0.054,0.341,0.034,0.594
			c0.469,1.364,0.773,2.787,1.073,4.196c0.709,3.324,1.044,6.706,1.331,10.086c0.543,6.398,0.578,12.812,0.803,19.224
			c0.463,13.242,1.169,26.534,2.522,39.717c0.733,7.139,0.619,14.265,1.73,21.381c0.262,1.677,0.557,3.346,0.859,5.017
			c0.138,0.759,0.333,1.641,0.43,2.402c0.125,0.982-0.422,2.425,0.194,0.657c1.146-1.497,2.292-2.993,3.438-4.489
			c-0.073,0.043-0.146,0.086-0.22,0.129c-8.322,4.903-0.754,17.858,7.596,12.939c5.008-2.951,4.175-8.395,3.446-13.219
			c-0.959-6.342-1.841-12.453-2.114-18.893c-0.671-15.823-2.392-31.586-2.945-47.431c-0.263-7.518-0.394-14.998-1.247-22.484
			c-0.903-7.928-1.795-17.104-8.596-22.256c-3.395-2.571-8.867-1.365-11.665,1.457c-2.661,2.684-3.951,6.362-4.936,9.93
			c-2.282,8.262-2.932,17.102-3.645,25.615c-2.289,27.297-2.063,54.716-4.269,82.012C498.507-34.691,513.518-34.68,514.291-44.249
			L514.291-44.249z"/>
	</g>
</g>
<g>
	<g>
		<path fill="#EA6D11" d="M516.44-78.811c1.713-1.118-1.211,0.13,0.75-0.319c-1.394,0.319,1.355,0.205,1.745,0.242
			c-0.62-0.104-0.478-0.086,0.429,0.053c0.903,0.13,1.807,0.257,2.711,0.379c1.021,0.133,2.028,0.232,3.058,0.26
			c4.085,0.112,7.528-3.425,7.556-7.447c0.027-4.15-3.364-7.444-7.448-7.556c-0.287-0.008-2.872-0.243-1.916-0.106
			c-1.683-0.241-3.362-0.499-5.055-0.66c-3.22-0.305-6.712,0.445-9.425,2.215c-3.42,2.232-4.814,6.613-2.672,10.268
			C508.165-78.084,513.017-76.576,516.44-78.811L516.44-78.811z"/>
	</g>
</g>
<g>
	<g>
		<path fill="#EA6D11" d="M552.205-50.89c0.635,0.734,0.955,1.868,0.552,0.045c-0.109-0.492-0.145-1.078-0.214-2.729
			c-0.16-3.831,0.137-7.689,0.457-11.504c0.616-7.36,1.708-14.672,2.839-21.967c1.543-9.957,2.195-19.889,2.513-29.958
			c0.175-5.573,0.354-11.132,0.381-16.708c0.024-5.285-0.031-11.065,2.219-15.973c-3.924,0.527-7.847,1.055-11.771,1.583
			c7.234,9.195,5.521,23.567,5.082,34.411c-0.532,13.18-1.046,26.946,5.432,38.9c2.149,3.965,8.783,5.226,11.803,1.478
			c8.361-10.381,10.046-23.722,11.76-36.532c1.603-11.984,1.142-26.464,6.963-37.331c-4.321,0.016-8.644,0.032-12.965,0.048
			c7.269,14.569,3.87,33.417,3.247,49.03c-0.341,8.548,0.017,17.152,0.119,25.704c0.109,9.178,0.377,18.564,2.55,27.523
			c2.281,9.409,16.765,5.505,14.488-3.882c-1.99-8.207-1.955-16.786-2.055-25.184c-0.107-8.982-0.377-17.973,0.023-26.949
			c0.803-18.004,2.893-37.148-5.434-53.839c-2.512-5.036-10.41-4.721-12.965,0.048c-6.055,11.301-6.54,24.69-7.965,37.169
			c-0.646,5.65-1.454,11.32-2.482,16.913c-1.023,5.563-2.301,12.197-5.951,16.729c3.935,0.492,7.868,0.985,11.803,1.478
			c-5.887-10.863-3.542-25.065-3.156-36.882c0.462-14.146-0.722-28.03-9.746-39.499c-2.857-3.632-9.902-2.492-11.771,1.583
			c-5.244,11.439-4.058,24.046-4.492,36.31c-0.388,10.957-0.857,21.748-2.519,32.584c-1.348,8.788-2.6,17.613-3.213,26.486
			c-0.494,7.134-1.059,15.82,3.917,21.58C547.977-32.906,558.499-43.604,552.205-50.89L552.205-50.89z"/>
	</g>
</g>
<g>
	<g>
		<path fill="#EA6D11" d="M46.418,28.977c-2.118-8.311-4.123-15.349-13.083-18.38c-9.328-3.156-17.853,2.666-20.752,11.333
			c-2.289,6.842-1.168,14.828-1.548,21.931c-0.466,8.706-1.35,17.364-1.251,26.094c0.099,8.728,1.33,17.382,5.071,25.323
			c1.722,3.656,4.529,6.675,7.615,9.21c2.365,1.943,5.888,4.313,6.927,6.133c1.421,2.49,0.964,8.753,0.997,12.18
			c0.058,6.117-0.351,12.232-0.175,18.349c0.053,1.842,1.057,6.757-0.198,8.313c-0.613,0.759-1.585,0.603-2.441,0.421
			c-0.519-0.11-1.35-0.362-1.818-0.736c-0.135-0.108,0.056,1.656-0.255,2.045c2.544-3.188,3.086-7.504-0.057-10.608
			c-2.675-2.642-8.053-3.146-10.608,0.057c-7.591,9.516-2.812,19.137,7.638,23.363c9.792,3.959,20.76-2.755,22.415-12.845
			c0.764-4.655,0.269-9.337,0.29-14.025c0.029-6.482,0.341-12.95,0.09-19.432c-0.376-9.727-2.61-16.45-10.398-22.423
			c-6.551-5.024-8.942-10.496-9.756-18.71c-0.927-9.356-0.038-18.849,0.63-28.191c0.501-7.016-0.428-14.71,1.054-21.565
			c0.326-1.508,0.337-1.515,0.949-2.149c-0.764,0.792,1.239,0.172,1.953,0.52c1.492,0.729,1.825,6.109,2.224,7.674
			C34.319,42.237,48.805,38.344,46.418,28.977L46.418,28.977z"/>
	</g>
</g>
<g>
	<g>
		<path fill="#EA6D11" d="M62.409,159.898c4.3-23.12,3.003-46.875,5.468-70.21c1.279-12.109,3.036-24.163,4.39-36.264
			c1.323-11.82,1.417-23.826,3.642-35.526c-4.568,0.605-9.136,1.211-13.705,1.817c8.341,19.293,7.262,41.685,10.225,62.143
			c1.774,12.247,2.509,24.654,3.444,36.985c0.488,6.433,1.016,12.862,1.663,19.281c0.318,3.155,0.702,6.3,1.12,9.442
			c0.338,2.539,1.225,5.289,0.782,7.871c-1.623,9.465,12.837,13.486,14.47,3.961c1.027-5.993-0.265-11.392-0.955-17.337
			c-0.817-7.04-1.38-14.108-1.928-21.173c-1.063-13.682-2.079-27.343-3.841-40.958C84.238,57.17,84.389,33.508,75.144,12.12
			c-2.558-5.916-12.556-4.225-13.705,1.817c-2.114,11.111-2.51,22.368-3.575,33.602c-1.151,12.146-2.904,24.229-4.347,36.342
			c-1.442,12.105-2.309,24.231-2.729,36.414c-0.41,11.923-0.663,23.883-2.85,35.643C46.18,165.397,60.641,169.405,62.409,159.898
			L62.409,159.898z"/>
	</g>
</g>
<g>
	<g>
		<path fill="#EA6D11" d="M61.472,109.388c-0.974,0.411-1.007,0.49-0.101,0.239c-1.556,0.333,0.999,0.041,1.117,0.04
			c1.438-0.014,3.292,0.137,4.466,0.307c2.6,0.375,5.23,0.889,7.739,1.68c9.255,2.918,13.154-11.571,3.961-14.471
			c-7.676-2.421-17.202-3.938-24.778-0.734c-3.772,1.596-4.533,7.092-2.672,10.268C53.471,110.582,57.709,110.979,61.472,109.388
			L61.472,109.388z"/>
	</g>
</g>
<g>
	<g>
		<path fill="#EA6D11" d="M115.675,158.472c0.012-26.643,0.495-53.282,0.793-79.922c0.136-12.22-0.059-24.463,0.271-36.678
			c0.238-8.789,1.774-18.943-1.321-27.395c-3.299-9.008-17.817-5.204-14.489,3.882c2.742,7.486,0.984,16.864,0.773,24.661
			c-0.336,12.444-0.121,24.923-0.26,37.372c-0.291,25.991-0.759,51.979-0.771,77.972
			C100.668,168.05,115.671,168.135,115.675,158.472L115.675,158.472z"/>
	</g>
</g>
<g>
	<g>
		<path fill="#EA6D11" d="M124.204,18.216c1.115,1.642,1.55,4.514,1.7,7.615c0.24,4.981-0.172,10.003-0.616,14.962
			c-0.915,10.229-2.113,20.206-2.354,30.491c-0.371,15.869-0.614,31.741-0.347,47.613c0.232,13.754-0.503,27.931,2.342,41.463
			c0.705,3.353,3.978,5.387,7.19,5.561c5.027,0.272,9.973-0.772,15-0.5c9.687,0.524,9.722-14.483,0.108-15.004
			c-5.027-0.272-9.973,0.772-15,0.5c2.396,1.854,4.793,3.708,7.19,5.561c-2.805-13.338-1.699-27.864-1.889-41.44
			c-0.222-15.872,0.125-31.747,0.501-47.613c0.232-9.771,1.672-19.37,2.483-29.101c0.722-8.657,1.789-20.101-3.371-27.703
			C131.747,2.669,118.757,10.19,124.204,18.216L124.204,18.216z"/>
	</g>
</g>
<g>
	<g>
		<path fill="#EA6D11" d="M180.449,9.585c-5.57-5.759-13.704-3.994-17.311,2.859c-3.393,6.445-4.059,14.372-4.854,21.471
			c-2.037,18.178-0.329,36.18-0.101,54.416c0.193,15.506-1.255,30.946-1.201,46.428c0.04,11.35,2.198,25.297,14.558,29.484
			c12.496,4.232,19.313-7.07,21.088-17.662c2.372-14.15,1.546-28.826,1.546-43.11c0-22.798-0.917-45.663-0.549-68.443
			c0.148-9.129-0.74-15.912-6.625-23.015c-5.086-6.138-15.209-8.272-19.322,0.154c-4.222,8.65,8.74,16.208,12.99,7.5
			c4.316-8.842-4.195,2.779-5.629,1.556c0.502,0.428,1.121,1.041,1.517,1.565c1.002,1.33,1.687,2.204,1.813,3.313
			c0.845,7.462,0.112,15.168,0.368,22.673c0.551,16.188,0.435,32.394,0.435,48.588c0,14.626,0.686,29.466-0.858,44.036
			c-0.257,2.428-0.572,5.41-1.524,7.676c-0.686,1.633,0.13,1.026-0.684,1.017c0.315,0.003-1.348-1.165-1.916-1.773
			c-1.407-1.509-1.583-4.575-1.813-6.459c-0.851-6.941-0.301-14.045,0.106-20.997c0.481-8.22,0.694-16.448,0.734-24.682
			c0.066-13.384-0.761-26.711-1.114-40.079c-0.161-6.104,0.292-12.268,0.815-18.343c0.302-3.502,0.681-6.721,1.232-9.924
			c0.275-1.6,0.62-3.185,1.011-4.76c0.173-0.695,0.38-1.38,0.59-2.065c0.132-0.415,0.273-0.825,0.426-1.232
			c-0.368,0.832-0.385,0.887-0.05,0.166c0.725-1.531-0.126-0.192-0.839,0.333c-1.519,1.117-3.805,0.608-5.318-0.053
			c1.292,0.564-1.273-1.216-0.073,0.025C176.623,27.203,187.18,16.544,180.449,9.585L180.449,9.585z"/>
	</g>
</g>
<g>
	<g>
		<path fill="#EA6D11" d="M201.672,14.364c-0.015,28.949-0.67,57.895-0.915,86.842c-0.086,10.207-0.076,20.384,0.229,30.584
			c0.143,4.77,0.249,9.542,0.217,14.314c-0.012,1.809-0.069,3.617-0.179,5.423c-0.015,0.243-0.301,2.636-0.012,0.691
			c-0.279,1.875,0.319-0.258,0.166-0.051c-2.432,3.294-0.497,8.374,2.745,10.245c3.835,2.214,7.82,0.541,10.245-2.745
			c1.892-2.564,1.804-6.647,1.948-9.67c0.216-4.546,0.093-9.116-0.008-13.664c-0.22-9.916-0.446-19.787-0.386-29.71
			c0.185-30.718,0.937-61.432,0.953-92.151C216.681,4.786,201.677,4.701,201.672,14.364L201.672,14.364z"/>
	</g>
</g>
<g>
	<g>
		<path fill="#EA6D11" d="M209.12,19.919c2.643,0.139,3.628,0.846,5.441,2.867c1.582,1.764,2.683,5.49,3.419,8.415
			c1.848,7.349,1.826,15.122,1.781,22.652c-0.064,10.803-0.296,21.593-0.81,32.385c-0.132,2.767-0.243,5.527-0.542,8.282
			c-0.107,0.988-1.507,3.836-0.192,2.142c-1.066,1.374,1.054-0.5-0.556,0.342c1.414-0.739-1.061,0.136-1.171,0.162
			c-2.212,0.507-4.509,0.715-6.756,1.007c-4.065,0.529-6.256,5.632-5.304,9.186c1.164,4.344,5.132,5.831,9.186,5.304
			c5.138-0.668,10.177-1.19,14.325-4.585c4.035-3.302,4.833-8.609,5.472-13.449c1.803-13.648,1.275-27.842,1.357-41.601
			c0.108-18.188-1.74-46.858-25.541-48.111C199.541,4.406,199.503,19.414,209.12,19.919L209.12,19.919z"/>
	</g>
</g>
<g>
	<g>
		<path fill="#EA6D11" d="M208.193,110.653c1.4,0.267-1.582-0.939-0.233-0.123c-2.183-1.322,0.793,1.258-0.382-0.286
			c1.268,1.667,2.21,3.591,3.117,5.467c2.269,4.697,3.855,9.853,5.429,14.889c2.808,8.985,5.036,18.127,7.305,27.258
			c2.335,9.395,16.82,5.496,14.489-3.882c-2.542-10.229-5.085-20.446-8.33-30.481c-2.686-8.308-7.008-25.321-17.435-27.313
			C202.698,94.375,198.694,108.838,208.193,110.653L208.193,110.653z"/>
	</g>
</g>
<g>
	<g>
		<path fill="#EA6D11" d="M275.669,162.668c4.796-8.746,3.935-19.85,4.307-29.492c0.516-13.408,1.159-26.813,1.365-40.229
			c0.204-13.302,0.443-26.6,1.836-39.841c0.663-6.303,1.8-12.536,3.232-18.707c1.385-5.97,4.767-12.65,4.767-18.801
			c0-9.687-15.004-9.772-15.004-0.108c0,8.912,1.927,18.273,2.771,27.167c0.803,8.466,1.911,16.897,2.738,25.359
			c1.255,12.833,1.101,28.313,9.023,39.201c3.997,5.491,11.24,4.435,13.705-1.817c5.442-13.807,5.394-29.097,7.081-43.652
			c0.814-7.023,2.312-13.993,3.295-21.001c1.111-7.921,2.417-15.793,5.125-23.347c-4.827-0.013-9.653-0.026-14.48-0.04
			c5.227,22.468,1.861,46.096,4.421,68.911c1.471,13.107,2.604,26.25,3.905,39.375c0.629,6.346,1.322,12.685,2.07,19.017
			c0.455,3.85,2.325,8.984,1.113,12.775c-2.953,9.244,11.538,13.14,14.471,3.961c1.49-4.664,0.551-9.614-0.176-14.329
			c-0.89-5.769-1.474-11.573-2.075-17.378c-1.428-13.775-2.607-27.574-4.087-41.344c-2.668-24.81,0.531-50.437-5.152-74.87
			c-1.805-7.76-12.113-6.646-14.48-0.04c-2.512,7.013-3.803,14.283-4.88,21.633c-1.145,7.81-2.581,15.583-3.655,23.398
			c-1.972,14.355-1.577,29.302-6.965,42.969c4.568-0.605,9.137-1.211,13.705-1.817c-6.738-9.258-6.065-23.001-7.202-33.903
			c-0.865-8.289-1.889-16.556-2.676-24.855c-0.785-8.272-2.59-16.976-2.59-25.265c0-9.687-15.004-9.772-15.004-0.108
			c0,2.098-1.651,5.483-2.233,7.616c-0.834,3.06-1.716,6.109-2.433,9.199c-1.437,6.193-2.334,12.504-3.117,18.809
			c-1.559,12.565-1.787,25.272-1.993,37.917c-0.208,12.745-0.707,25.469-1.199,38.206c-0.22,5.679-0.402,11.358-0.597,17.037
			c-0.12,3.494-0.204,7.763-1.921,10.896C258.03,163.646,271.01,171.164,275.669,162.668L275.669,162.668z"/>
	</g>
</g>
<g>
	<g>
		<path fill="#EA6D11" d="M347.176,159.972c2.563-24.083,4.997-48.147,5.542-72.376c0.537-23.859,3.535-47.624,9.691-70.698
			c-4.568,0.605-9.137,1.211-13.705,1.817c4.292,9.069,4.407,19.388,5.725,29.143c1.74,12.876,4.618,25.552,6.6,38.386
			c1.944,12.59,3.638,25.19,5.283,37.82c0.742,5.697,2.038,11.316,2.93,16.99c0.421,2.682,0.559,5.392,0.589,8.103
			c-0.006,1.071-0.059,2.14-0.158,3.206c-0.353,4.948-0.8-0.107,2.204-1.416c-3.754,1.635-4.55,7.064-2.672,10.268
			c2.25,3.839,6.522,4.303,10.268,2.672c5.279-2.299,4.972-8.173,5.317-13.005c0.447-6.259-0.837-12.746-1.927-18.88
			c-2.474-13.917-4.028-27.958-6.157-41.934c-2.153-14.135-5.103-28.126-7.251-42.259c-1.917-12.61-2.248-24.936-7.81-36.69
			c-2.861-6.045-12.134-4.07-13.705,1.817c-6.324,23.706-9.374,48.178-10.172,72.673c-0.811,24.875-2.961,49.51-5.594,74.253
			c-0.433,4.071,3.666,7.531,7.448,7.556C344.015,167.449,346.743,164.034,347.176,159.972L347.176,159.972z"/>
	</g>
</g>
<g>
	<g>
		<path fill="#EA6D11" d="M343.693,108.153c4.578,1.123,9.195,1.999,13.864,2.642c3.872,0.533,8.261,1.155,12.058-0.132
			c9.113-3.089,5.289-17.598-3.882-14.489c-0.741,0.198-0.708,0.247,0.101,0.146c-0.877,0.108-1.783,0.057-2.663,0.033
			c-1.59-0.042-3.19-0.236-4.761-0.474c-3.616-0.548-7.204-1.324-10.755-2.196C338.255,91.377,334.298,105.848,343.693,108.153
			L343.693,108.153z"/>
	</g>
</g>
<g>
	<g>
		<path fill="#EA6D11" d="M401.169,162.168c9.083-19.17,6.447-42.704,6.527-63.314c0.104-26.828,0.517-54.713,6.713-80.956
			c-4.827-0.013-9.653-0.026-14.48-0.04c6.953,22.52,7.434,46.218,11.128,69.344c2.029,12.707,3.047,25.563,4.272,38.364
			c0.601,6.279,1.366,12.539,1.993,18.813c0.561,5.603,1.114,10.63,3.381,15.835c2.711,6.223,12.138,3.905,13.705-1.817
			c6.438-23.515,5.804-48.026,7.157-72.16c0.719-12.783,1.197-25.595,1.262-38.398c0.033-6.444-0.129-12.888-0.455-19.324
			c-0.236-4.625,0.477-12.336-2.23-16.396c-5.334-8.003-18.319-0.476-12.938,7.596c-1.629-2.443-0.269,2.216-0.21,2.952
			c0.258,3.19,0.417,6.388,0.558,9.585c0.257,5.802,0.293,11.613,0.264,17.42c-0.062,12.146-0.51,24.333-1.251,36.457
			c-1.397,22.862-0.522,46.019-6.626,68.308c4.568-0.605,9.137-1.211,13.705-1.817c-1.724-3.957-1.433-9.273-1.92-13.492
			c-0.739-6.396-1.333-12.809-1.938-19.219c-1.156-12.228-2.382-24.445-4.239-36.589c-3.536-23.13-4.183-46.847-11.128-69.344
			c-2.112-6.844-12.694-7.6-14.479-0.04c-2.797,11.848-4.139,24.375-5.326,36.479c-1.321,13.472-1.698,27.026-1.862,40.555
			c-0.142,11.72,0.075,23.444-0.136,35.162c-0.169,9.352-0.353,19.914-4.437,28.534
			C384.063,163.354,397.021,170.922,401.169,162.168L401.169,162.168z"/>
	</g>
</g>
<g>
	<g>
		<path fill="#EA6D11" d="M505.418,22.477c-1.988-7.272-3.832-15.23-12.971-15.839c-8.836-0.588-15.305,5.074-17.529,13.305
			c-1.943,7.199-0.746,14.961-0.746,22.302c0,12.236,0.043,24.526,0.672,36.747c0.457,8.872,1.791,16.04,8.617,21.941
			c5.789,5.004,6.008,12.596,5.996,19.79c-0.012,7.833-1.473,15.603-1.334,23.425c0.035,1.947,0.064,3.882-0.033,5.828
			c-0.055,1.074-1.398,2.983-0.115,1.995c-1.998,1.541-2.691-0.628-2.799-2.998c-0.443-9.642-15.447-9.77-15.004-0.108
			c0.391,8.506,5.771,18.738,15.555,18.715c10.643-0.026,16.455-7.596,17.365-17.496c0.309-3.355-0.098-6.748,0.084-10.111
			c0.221-4.11,0.742-8.21,1.02-12.318c0.592-8.777,0.637-18.294-2.637-26.594c-1.518-3.852-3.646-7.077-6.629-9.959
			c-1.188-1.148-2.508-2.152-3.717-3.279c0.357,0.62,0.301,0.534-0.17-0.258c0.496,0.819-0.447-2.331-0.402-2.105
			c-1.061-5.426-0.797-10.882-1.053-16.368c-0.299-6.371-0.361-12.752-0.398-19.128c-0.047-8.159-0.814-16.608-0.076-24.741
			c0.102-1.133,0.443-2.289,0.953-3.273c-0.215,0.414,0.234-0.311,1.197-0.38c-1.863,0.133-2.334-3.316-1.42,0.139
			c0.408,1.54,0.664,3.113,1.086,4.651C493.479,35.688,507.969,31.81,505.418,22.477L505.418,22.477z"/>
	</g>
</g>
<g>
	<g>
		<path fill="#EA6D11" d="M523.408,160.898c2.652-6.37,2.813-13.474,3.051-20.278c0.281-8.011,0.979-16.016,1.52-24.012
			c1.166-17.2,2.354-34.365,4.215-51.507c1.029-9.473,1.787-18.916,2.65-28.399c0.385-4.216,0.881-8.41,1.799-12.546
			c0.18-0.806,0.406-1.599,0.641-2.39c0.396-1.337-0.416,0.437,0.514-1.145c-1.676,2.849,1.324-1.736,0.871-0.954
			c0.854-1.478,1.008-3.044,1.008-4.696c-3.752,2.147-7.502,4.294-11.252,6.441c-0.592-0.374,0.158,0.403,0.73,1.534
			c0.711,1.402,1.127,3.54,1.535,5.217c1.016,4.155,1.568,8.426,2.15,12.659c1.49,10.82,2.957,21.701,4.883,32.452
			c2.449,13.674,4.322,27.098,5.035,40.994c0.357,6.949,0.518,13.908,0.662,20.863c0.078,3.782,0.143,7.564,0.215,11.347
			c0.029,1.54,0.051,3.08,0.092,4.62c0.104,3.978-1.139,2.271,2.648-0.65c-3.234,2.495-4.938,6.402-2.672,10.268
			c1.871,3.191,7.023,5.173,10.268,2.672c5.59-4.311,4.795-10.389,4.666-16.801c-0.162-8.208-0.291-16.417-0.561-24.623
			c-0.543-16.425-1.889-32.861-5.158-48.986c-2.559-12.613-4.113-25.489-5.893-38.234c-1.268-9.073-2.629-20.962-11.102-26.32
			c-4.803-3.037-11.252,0.956-11.252,6.441c0,0.333,0,0.667,0,1c0.723-1.74,1.445-3.481,2.17-5.221
			c-5.982,4.831-6.064,16.926-6.787,23.759c-0.943,8.935-1.445,17.887-2.447,26.82c-1.848,16.478-3.119,32.966-4.24,49.506
			c-0.568,8.379-1.137,16.757-1.695,25.136c-0.477,7.126,0.066,14.348-2.734,21.074c-1.574,3.785,1.689,8.236,5.256,9.216
			C518.514,167.34,521.84,164.665,523.408,160.898L523.408,160.898z"/>
	</g>
</g>
<g>
	<g>
		<path fill="#EA6D11" d="M526.971,109.388c2.871-1.362,10.777,0.599,14.723,1.266c4.031,0.681,8.053-1.025,9.215-5.255
			c1-3.643-1.223-8.535-5.254-9.216c-8.639-1.459-17.996-3.664-26.279,0.266c-3.695,1.754-4.6,6.977-2.672,10.268
			C518.904,110.47,523.281,111.138,526.971,109.388L526.971,109.388z"/>
	</g>
</g>
<g>
	<g>
		<path fill="#EA6D11" d="M573.408,162.398c4.838-28.482,7.643-56.896,9.689-85.691c0.826-11.604,2.102-23.17,2.785-34.781
			c0.268-4.58,0.58-9.153,1.496-13.654c0.914-4.493,3.889-8.06,3.297-12.8c-3.752,2.147-7.502,4.294-11.252,6.441
			c-0.633-0.392-0.805-0.889-0.352-0.168c0.85,1.343,0.434,0.667,0.813,1.713c1.023,2.82,1.588,5.816,2.121,8.76
			c1.088,6.027,1.555,12.161,2.082,18.256c1.498,17.336,6.703,34.054,8.084,51.39c0.633,7.951,13.033,10.918,14.736,2.035
			c2.822-14.714,5.086-29.52,7.055-44.37c1.957-14.771,5.52-29.621,5.713-44.556c-4.916,0.629-9.832,1.258-14.746,1.887
			c4.426,11.279,3.943,23.629,4.473,35.536c0.621,13.991,1.926,28.059,3.762,41.94c1.875,14.184,3.633,28.368,5.064,42.602
			c0.359,3.563,0.426,7.169,0.537,10.746c0.064,2.07,0.1,4.141,0.113,6.212c0.004,0.764-0.006,1.528-0.023,2.292
			c-0.047,2.294-0.727,0.125,0.822-2.02c-2.398,3.318-0.523,8.358,2.746,10.245c3.809,2.199,7.852,0.565,10.244-2.745
			c1.76-2.435,1.23-6.729,1.197-9.562c-0.049-4.26-0.211-8.523-0.463-12.777c-0.855-14.449-2.91-29.033-4.984-43.352
			c-2.082-14.376-3.271-28.969-4.014-43.474c-0.674-13.165-0.088-27.045-4.986-39.526c-2.955-7.528-14.629-7.119-14.746,1.887
			c-0.186,14.316-3.654,28.53-5.471,42.701c-1.818,14.188-4.068,28.325-6.764,42.373c4.912,0.678,9.826,1.356,14.738,2.035
			c-0.955-11.981-3.441-23.688-5.816-35.446c-0.508-2.511-0.982-5.028-1.441-7.549c-0.34-1.86-0.002,0.375-0.244-1.935
			c-0.336-3.212-0.578-6.435-0.861-9.652c-0.658-7.436-1.42-14.91-2.932-22.228c-1.254-6.069-3.412-12.804-8.957-16.239
			c-4.373-2.708-11.963,0.748-11.252,6.441c0.076,1.978,0.244,2,0.508,0.067c-0.688,1.055-1.16,2.362-1.625,3.51
			c-0.707,1.754-1.219,3.529-1.646,5.371c-1.125,4.858-1.512,9.936-1.863,14.898c-0.797,11.191-1.824,22.356-2.668,33.546
			c-2.174,28.785-4.6,57.189-9.439,85.682C557.33,167.902,571.791,171.925,573.408,162.398L573.408,162.398z"/>
	</g>
</g>
</svg>
