<svg xmlns="http://www.w3.org/2000/svg" width="644.329" height="170.999" viewBox="0 0 644.329 170.999"><path fill="#EA6D11" d="M51.286-152.077c-3.205-3.673-8.282-5.354-13.058-5.235-6.185.153-10.166 4.14-12.396 9.51-3.3 7.945-.07 18.756 1.225 26.832 1.014 6.314 1.114 12.422 4.304 18.14 2.938 5.265 8.656 8.223 10.652 14.068 2.025 5.935.404 12.317-.285 18.32-.26 2.27-.7 4.8-1.65 6.89-.97 2.134-.754.932-.17.693-2.306.944 1.402-.196 2.057 1.564-3.346-8.983-17.866-5.184-14.49 3.882 4.56 12.24 19.255 12.337 25.594 1.363 2.887-5 3.203-11.142 4.052-16.71 1.02-6.687 1.154-13.305-.62-19.884-1.754-6.513-6.155-11.197-10.703-15.895-4.085-4.22-3.49-11.578-4.368-17.04-.677-4.213-1.45-8.35-1.66-12.624-.094-1.96-.04-3.77.532-5.64-.157.516-1.308 1.513-1.04 1.506.705-.018 1.053.446 1.47.925 6.36 7.29 16.887-3.405 10.554-10.664z"/><path fill="#EA6D11" d="M72.328-52.61c-1.148-15.78-1.272-31.6-.63-47.406.32-7.86 1-15.685 1.62-23.524.302-3.793.8-7.572 1.19-11.356.18-1.75.31-3.506.417-5.264a4.084 4.084 0 0 1 .182-1.515c.616-1.91-.01-1.292-1.882 1.853l-3.852 1.032c-3.03-.01-3.793-2.223-1.9.612 1.11 1.663 2.076 3.436 3.01 5.202 1.557 2.95 2.657 6.088 3.686 9.252 2.42 7.44 3.817 15.21 4.966 22.935 2.543 17.102 4.5 34.957 4.113 52.25l13.97-3.743a6.093 6.093 0 0 1-.836-1.672c-1.59-3.775-7.097-4.53-10.268-2.672-3.87 2.27-4.257 6.502-2.672 10.268.194.602.473 1.16.836 1.673 3.9 6.333 13.803 3.742 13.97-3.744.43-19.155-2.037-38.83-4.853-57.76-1.228-8.254-2.997-16.435-5.717-24.33-2.516-7.302-6.324-17.13-12.954-21.676-6.516-4.467-13.06.907-14.276 7.566-1.782 9.757-2.116 20.106-2.896 29.993-1.62 20.58-1.73 41.328-.232 61.916.7 9.597 15.707 9.75 15.006.11z"/><path fill="#EA6D11" d="M63.264-79.717c7.788 2.162 15.814-.4 23.67-.57 9.67-.208 9.775-15.21.107-15.003-6.255.134-14.22 2.656-19.816 1.103-9.342-2.593-13.27 11.886-3.96 14.47zM92.287-145.222c2.733 7.598 3.354 15.372 3.74 23.377a250 250 0 0 0 2.72 26.716c1.255 8.06 1.54 16.426 1.733 24.572.14 5.948-1.26 12.897 1.006 18.58 1.515 3.795 4.886 6.455 9.186 5.303 3.597-.964 6.822-5.38 5.304-9.186-1.844-4.623-.403-10.857-.52-15.75-.217-9.158-.95-18.332-2.22-27.4a267.76 267.76 0 0 1-2.29-24.485c-.417-8.654-1.22-17.408-4.17-25.608-3.25-9.034-17.766-5.226-14.49 3.88zM112.936-148.89c-1.002 15.506 4.756 30.265 5.786 45.587 1.222 18.185.487 36.547 1.323 54.765.192 4.2 3.202 7.37 7.447 7.556 7.024.308 13.907-1.508 20.906-1.672 9.668-.227 9.776-15.23.108-15.003-7 .164-13.882 1.98-20.906 1.672 2.482 2.52 4.965 5.037 7.447 7.556-.81-17.69-.848-35.4-1.254-53.102-.366-15.95-6.89-31.23-5.854-47.25.625-9.68-14.384-9.705-15.004-.107zM163.492-146.55a7.25 7.25 0 0 1-.888-.626l3.494 4.554c-.076-.222-.152-.444-.23-.667l-.008 3.922c.094-.405.188-.81.28-1.215l-14.735-2.035c.008 15.778.228 31.553 1.13 47.31.63 11.054 1.244 22.36 3.69 33.2 1.66 7.358 6.868 17.824 16.282 14.388 10.273-3.75 12.764-16.42 13.593-25.95.918-10.546.19-21.26.736-31.845.7-13.565.765-27.352-2.288-40.663-2.25-9.81-9.207-19.954-20.475-17.43-9.933 2.227-11.32 14.71-12.82 22.827-1.75 9.46 12.71 13.468 14.47 3.96.532-2.876.915-5.766 1.586-8.617.275-1.17.624-2.366 1.15-3.435 1.056-2.142.046.368-1.37-.386 1.393.74 2.305 4.72 2.74 6.152 1.32 4.35 1.745 8.985 2.078 13.496.748 10.134.156 20.352-.434 30.477-.466 7.994.144 16.006-.285 24.006-.193 3.585-.765 7.03-1.94 10.43-.266.774-.857 1.61-1.363 2.244-1.482 1.857 2.39-.432 4.34 1.368 1.352 1.248-.62-1.508-.223-.506-.564-1.42-.932-2.92-1.294-4.4-.62-2.534-1.01-5.126-1.38-7.707-3.25-22.6-2.912-46.03-2.924-68.812-.004-8.393-12.79-10.456-14.736-2.034-1.095 4.734.176 8.304 4.32 10.984 8.14 5.265 15.6-7.752 7.502-12.99zM187.363-153.07c-.238 9.128 2.423 18.06 2.702 27.19.282 9.21.206 18.426.23 27.638.028 9.62.226 19.24.596 28.854.174 4.486.413 8.968.684 13.45.282 4.64-.185 10.046 4.62 12.524 5.042 2.6 11.07-.635 11.25-6.44.034-1.038-.183-2.055-.318-3.08-.535-4.064-5.628-6.257-9.186-5.304-4.34 1.163-5.836 5.133-5.304 9.186l-.195-.91 11.253-6.442-.48-.248 3.75 6.55c-1.23-17.258-1.656-34.55-1.672-51.85-.007-8.55-.017-17.097-.28-25.644-.26-8.526-2.867-16.854-2.646-25.367.255-9.693-14.75-9.754-15-.107z"/><path fill="#EA6D11" d="M197.224-147.026c2.858-.946 3.165-.926 4.678 1.34 2.394 3.59 3.294 8.062 4.144 12.535 1.563 8.224 1.665 17.336 2.164 25.943.167 2.864.18 5.727-.07 8.585-.027.308-.414 1.595-.147.97-.587 1.373 1.28-.506-.574.058-7 2.133-10.388 7.28-8.764 14.57 1.297 5.825 7.483 10.416 11.506 14.378 5.75 5.66 9.903 12.772 15.805 18.386 6.995 6.653 17.58-3.98 10.55-10.665-5.913-5.625-10.156-12.588-15.804-18.386-2.22-2.28-4.598-4.38-6.74-6.737-.28-.31-1.005-1.698-.88-.73.438 3.4-4.878 4.61-.91 3.402 14.654-4.465 10.966-22.41 10.302-34.076-.913-16.024-3.995-52.39-29.143-44.066-9.143 3.027-5.312 17.533 3.882 14.49zM277.212-50.102c-.166-7.902 3.106-15.27 4.186-23.02 1.336-9.588 2.212-19.227 3.16-28.86 1.758-17.862 3-36.132 7.022-53.654-4.568.605-9.137 1.21-13.705 1.817 9.58 19.977 5.11 43.745 11.77 64.626 2.047 6.42 13.34 7.983 14.48.04 1.57-10.96 1.388-22.137 3.344-33.032 2.048-11.415 5.387-22.565 7.943-33.868l-14.48-.04c2.88 9.483 1.314 19.544 2.087 29.3.896 11.3 3.423 22.71 6.504 33.597 2.467 8.716 5.85 17.17 7.22 26.16.99 6.516 1.032 13.9 4.198 19.84 4.55 8.535 17.484.932 12.94-7.596.908 1.706-.31-1.202-.434-1.723-.344-1.434-.562-2.9-.796-4.355-.602-3.738-1.033-7.5-1.603-11.244-1.395-9.15-5.038-17.898-7.55-26.776-2.883-10.184-5.127-20.92-5.73-31.496-.572-9.985.607-19.853-2.35-29.59-2.072-6.83-12.765-7.62-14.478-.04-2.56 11.312-5.766 22.47-7.945 33.867-2.088 10.923-1.772 22.06-3.345 33.033l14.48.04c-7.145-22.408-2.94-46.696-13.32-68.34-2.817-5.874-12.313-4.24-13.704 1.818-4.17 18.172-5.463 37.06-7.36 55.573-.988 9.634-1.757 19.296-3.093 28.89-1.177 8.453-4.63 16.235-4.448 24.924.204 9.673 15.208 9.778 15.005.11z"/><path fill="#EA6D11" d="M347.608-46.922c5.468-16.428 3.267-35.024 2.847-52.013-.274-11.126-.596-22.287-.605-33.416-.004-5.523-.215-11.987.898-17.028.124-.523.272-1.04.444-1.55-.287.622-.24.573.138-.147-1.5 2.67-7.08.46-4.942 2.554 1.45 1.42 1.337 6.302 1.484 8.266.708 9.467 2.435 18.416 4.198 27.75 2.072 10.967 3.884 21.885 4.94 33 1.033 10.91 1.99 21.86 4.553 32.54l9.225-9.175-.785-.313 4.49 3.438-.47-.94c-4.325-8.65-17.25-1.025-12.94 7.595 1.307 2.613 3.122 3.644 5.744 4.69 5.565 2.225 10.425-4.174 9.225-9.175-2.826-11.78-3.5-23.85-4.767-35.858-1.317-12.502-3.735-24.898-6.186-37.22-.917-4.606-1.802-8.906-2.064-13.585-.254-4.54-.587-9.133-1.726-13.55-2.12-8.21-10.496-15.853-19.105-11.484-6.118 3.104-6.747 12.382-7.11 18.266-.654 10.552-.102 21.186.174 31.74.278 10.644.497 21.3.696 31.948.185 9.886.33 20.22-2.827 29.706-3.066 9.207 11.43 13.093 14.468 3.96z"/><path fill="#EA6D11" d="M343.246-81.123c7.113.076 14.208.796 21.325.836 9.69.056 9.77-14.948.108-15.003-7.116-.04-14.21-.76-21.324-.836-9.69-.103-9.766 14.9-.108 15.003zM392.42-51.446c-1.316-2.606-.928-6.194-.884-9.006.063-3.962.236-7.913.256-11.877.05-10.21.35-20.42.4-30.632.09-17.57-2.46-35.836 1.83-53.09-4.57.604-9.138 1.21-13.706 1.816 7.76 16.444 8.136 35.25 10.933 52.918 3.032 19.165 7.073 38.497 13.38 56.866 2.87 8.36 13.7 6.414 14.746-1.887 2.314-18.39 1.007-36.926 1.596-55.398.577-18.097 3.745-36.004 3.84-54.15.05-9.69-14.953-9.77-15.004-.108-.09 17.486-2.45 34.853-3.764 52.266-1.438 19.088.73 38.21-1.672 57.284l14.746-1.887c-6.49-18.906-10.52-38.786-13.64-58.505-2.977-18.802-3.967-37.496-12.223-54.993-2.822-5.98-12.224-4.14-13.705 1.816-4.777 19.216-2.272 39.297-2.37 58.858-.055 10.85-.386 21.697-.405 32.548-.015 8.43-1.24 16.943 2.704 24.758 4.357 8.633 17.283 1.01 12.94-7.596zM493.19-143.016c-3.387-4.818-4.21-10.87-8.17-15.606-4.443-5.31-14.102-6.504-19.63-2.39-5.777 4.296-6.746 11.387-6.646 18.147.115 7.842.208 15.715.414 23.557.22 8.322 1.207 20.6 7.65 26.817 4.89 4.717 13.52 4.954 15.324 12.08 1.625 6.41-.243 13.99-1.428 20.34-.283 1.52-.532 3.046-.793 4.572-.16.94-1.42 3.973-.748 3.47-1.094.82-4.857-.01-5.27-1.323-2.892-9.202-17.393-5.358-14.49 3.88 2.507 7.976 10.572 12.516 18.633 12.783 8.965.297 14.73-6.787 16.347-14.85 2.896-14.437 7.037-32.302-4.128-44.218-2.608-2.785-6.534-3.98-9.915-5.465-3.944-1.73-4.39-5.458-5.316-9.358-2.148-9.027-.51-18.796-1.077-27.996-.174-2.816-.288-5.62-.106-8.438.004-.036.526-2.22.346-1.825.826-1.815-1.22.26-.537.375 2.563.428 4.96 10.71 6.6 13.043 5.514 7.846 18.514.337 12.94-7.596zM514.29-44.25c2.064-25.54 1.79-51.202 3.855-76.746.466-5.752.854-11.522 1.65-17.24.498-3.578 1.144-7.142 2.105-10.625.15-.524.312-1.043.487-1.558.733-2.24-.575 1.03.342-.795.665-1.325-.823.544-1.133.785-1.565 1.214-4.765.84-6.133-.514-.905-.896-.054.34.034.594.47 1.364.773 2.787 1.073 4.196.71 3.324 1.045 6.706 1.332 10.086.543 6.398.578 12.812.803 19.224.463 13.242 1.17 26.534 2.522 39.717.733 7.14.62 14.265 1.73 21.38.262 1.678.557 3.347.86 5.018.137.76.332 1.64.43 2.402.124.982-.423 2.425.193.657l3.438-4.49-.22.13c-8.322 4.903-.754 17.858 7.596 12.94 5.008-2.952 4.175-8.396 3.446-13.22-.96-6.342-1.84-12.453-2.114-18.893-.67-15.824-2.392-31.587-2.945-47.432-.262-7.518-.393-14.998-1.246-22.484-.903-7.928-1.795-17.104-8.596-22.256-3.395-2.57-8.867-1.365-11.665 1.457-2.66 2.684-3.95 6.362-4.936 9.93-2.282 8.262-2.932 17.102-3.645 25.615-2.29 27.297-2.063 54.716-4.27 82.012-.775 9.667 14.236 9.678 15.01.11z"/><path fill="#EA6D11" d="M516.44-78.81c1.713-1.12-1.21.13.75-.32-1.394.32 1.355.205 1.745.242-.62-.104-.478-.086.43.053.902.13 1.806.257 2.71.38 1.02.132 2.028.23 3.058.26 4.085.11 7.528-3.426 7.556-7.448.026-4.15-3.365-7.444-7.45-7.556-.286-.007-2.87-.242-1.915-.105-1.683-.24-3.362-.5-5.055-.66-3.22-.305-6.712.445-9.425 2.215-3.42 2.232-4.814 6.613-2.672 10.268 1.992 3.398 6.844 4.906 10.267 2.67zM552.205-50.89c.635.734.955 1.868.552.045-.11-.492-.145-1.078-.214-2.73-.16-3.83.137-7.688.457-11.503.616-7.36 1.708-14.672 2.84-21.967 1.542-9.957 2.194-19.89 2.512-29.958.175-5.573.354-11.132.38-16.708.025-5.286-.03-11.066 2.22-15.974l-11.77 1.583c7.233 9.194 5.52 23.566 5.08 34.41-.53 13.18-1.045 26.946 5.433 38.9 2.15 3.965 8.783 5.226 11.803 1.478 8.36-10.38 10.046-23.722 11.76-36.532 1.603-11.984 1.142-26.464 6.963-37.33-4.32.015-8.643.03-12.964.047 7.27 14.57 3.87 33.417 3.247 49.03-.34 8.548.017 17.152.12 25.704.108 9.178.376 18.564 2.55 27.523 2.28 9.41 16.764 5.505 14.487-3.882-1.99-8.207-1.955-16.786-2.055-25.184-.107-8.982-.377-17.973.023-26.95.803-18.003 2.893-37.147-5.434-53.838-2.512-5.036-10.41-4.72-12.965.048-6.056 11.3-6.54 24.69-7.966 37.17-.646 5.65-1.454 11.32-2.482 16.912-1.023 5.563-2.3 12.197-5.95 16.73 3.934.49 7.867.984 11.802 1.477-5.887-10.863-3.542-25.065-3.156-36.882.462-14.145-.722-28.03-9.746-39.498-2.857-3.632-9.902-2.492-11.77 1.583-5.245 11.44-4.06 24.046-4.493 36.31-.39 10.957-.858 21.748-2.52 32.584-1.348 8.787-2.6 17.612-3.213 26.485-.494 7.134-1.06 15.82 3.917 21.58 6.323 7.32 16.845-3.38 10.55-10.665zM46.418 28.977c-2.118-8.31-4.123-15.35-13.083-18.38-9.328-3.156-17.853 2.666-20.752 11.333-2.29 6.842-1.168 14.828-1.548 21.93-.466 8.707-1.35 17.365-1.25 26.095.098 8.728 1.33 17.382 5.07 25.323 1.722 3.656 4.53 6.675 7.615 9.21 2.365 1.943 5.888 4.313 6.927 6.133 1.42 2.49.964 8.754.997 12.18.058 6.118-.35 12.233-.175 18.35.052 1.842 1.056 6.757-.2 8.313-.612.76-1.584.603-2.44.42-.52-.11-1.35-.36-1.818-.735-.135-.108.056 1.656-.255 2.045 2.544-3.188 3.086-7.504-.057-10.608-2.675-2.642-8.053-3.146-10.608.057-7.59 9.516-2.812 19.137 7.638 23.363 9.792 3.96 20.76-2.755 22.415-12.845.764-4.655.27-9.337.29-14.025.03-6.482.34-12.95.09-19.432-.376-9.727-2.61-16.45-10.398-22.423-6.55-5.024-8.942-10.496-9.756-18.71-.926-9.356-.037-18.85.63-28.19.502-7.017-.427-14.71 1.055-21.566.326-1.508.337-1.515.95-2.15-.765.793 1.238.173 1.952.52 1.492.73 1.825 6.11 2.224 7.675 2.39 9.377 16.875 5.484 14.488-3.883zM62.41 159.898c4.3-23.12 3.002-46.875 5.467-70.21 1.28-12.11 3.036-24.163 4.39-36.264 1.323-11.82 1.417-23.826 3.642-35.526-4.57.605-9.137 1.21-13.706 1.817 8.34 19.293 7.262 41.685 10.225 62.143 1.773 12.247 2.508 24.654 3.443 36.985.488 6.433 1.016 12.862 1.663 19.28.318 3.156.702 6.3 1.12 9.443.338 2.54 1.225 5.29.782 7.87-1.623 9.466 12.837 13.487 14.47 3.962 1.027-5.993-.265-11.392-.955-17.337-.817-7.04-1.38-14.107-1.928-21.172-1.063-13.682-2.08-27.343-3.84-40.958-2.947-22.76-2.796-46.422-12.04-67.81-2.56-5.916-12.557-4.225-13.706 1.817-2.115 11.11-2.51 22.368-3.576 33.602-1.15 12.145-2.904 24.228-4.347 36.34-1.442 12.106-2.31 24.232-2.73 36.415-.41 11.923-.662 23.883-2.85 35.643-1.757 9.46 12.704 13.467 14.472 3.96z"/><path fill="#EA6D11" d="M61.472 109.388c-.974.41-1.007.49-.1.24-1.557.332.998.04 1.116.04 1.438-.015 3.292.136 4.466.306 2.6.375 5.23.89 7.74 1.68 9.254 2.918 13.153-11.57 3.96-14.47-7.676-2.422-17.202-3.94-24.778-.735-3.772 1.595-4.533 7.09-2.672 10.267 2.267 3.865 6.505 4.262 10.268 2.67zM115.675 158.472c.012-26.643.495-53.282.793-79.922.136-12.22-.06-24.463.27-36.678.24-8.79 1.775-18.943-1.32-27.395-3.3-9.008-17.817-5.204-14.49 3.882 2.743 7.485.985 16.863.774 24.66-.336 12.444-.12 24.923-.26 37.372-.29 25.99-.76 51.98-.77 77.972-.004 9.686 15 9.77 15.003.108zM124.204 18.216c1.115 1.642 1.55 4.514 1.7 7.615.24 4.982-.172 10.004-.616 14.963-.915 10.23-2.113 20.206-2.354 30.49-.37 15.87-.614 31.742-.347 47.614.232 13.754-.503 27.93 2.342 41.463.704 3.353 3.977 5.387 7.19 5.56 5.026.273 9.972-.77 15-.5 9.686.525 9.72-14.482.107-15.003-5.027-.272-9.973.772-15 .5 2.396 1.854 4.793 3.708 7.19 5.56-2.805-13.337-1.7-27.863-1.89-41.44-.22-15.87.126-31.746.502-47.612.23-9.77 1.67-19.37 2.482-29.1.722-8.658 1.79-20.102-3.37-27.704-5.395-7.95-18.385-.43-12.938 7.596zM180.45 9.585c-5.57-5.76-13.705-3.994-17.312 2.86-3.393 6.444-4.06 14.37-4.854 21.47-2.037 18.178-.33 36.18-.1 54.416.192 15.507-1.256 30.947-1.202 46.43.04 11.35 2.198 25.296 14.558 29.483 12.496 4.232 19.313-7.07 21.088-17.662 2.372-14.15 1.546-28.825 1.546-43.11 0-22.797-.917-45.662-.55-68.442.15-9.13-.74-15.912-6.624-23.015-5.086-6.138-15.21-8.272-19.322.154-4.222 8.65 8.74 16.208 12.99 7.5 4.316-8.842-4.195 2.78-5.63 1.556.503.428 1.122 1.04 1.518 1.565 1.002 1.33 1.687 2.204 1.813 3.313.844 7.463.11 15.17.367 22.674.55 16.188.435 32.394.435 48.588 0 14.626.686 29.466-.858 44.036-.257 2.428-.572 5.41-1.524 7.676-.686 1.633.13 1.026-.684 1.017.315.004-1.348-1.164-1.916-1.772-1.407-1.51-1.583-4.575-1.813-6.46-.85-6.94-.3-14.044.106-20.996.48-8.22.694-16.448.734-24.682.066-13.384-.76-26.71-1.114-40.08-.16-6.103.292-12.267.815-18.342.302-3.502.68-6.72 1.232-9.924.275-1.6.62-3.185 1.01-4.76.174-.695.38-1.38.59-2.065.133-.416.274-.826.427-1.233-.368.832-.385.887-.05.166.725-1.53-.126-.192-.84.333-1.518 1.117-3.804.608-5.317-.053 1.292.564-1.273-1.216-.073.025 6.726 6.955 17.283-3.704 10.552-10.663zM201.672 14.364c-.015 28.95-.67 57.895-.915 86.842-.086 10.207-.076 20.384.23 30.584.142 4.77.248 9.542.216 14.314a100.11 100.11 0 0 1-.18 5.423c-.014.243-.3 2.636-.01.69-.28 1.876.318-.257.165-.05-2.432 3.294-.497 8.374 2.745 10.245 3.835 2.214 7.82.54 10.245-2.745 1.892-2.564 1.804-6.647 1.948-9.67.216-4.546.093-9.116-.008-13.664-.22-9.916-.446-19.787-.386-29.71.185-30.718.937-61.432.953-92.15.006-9.687-14.998-9.772-15.003-.11z"/><path fill="#EA6D11" d="M209.12 19.92c2.643.138 3.628.845 5.44 2.866 1.583 1.764 2.684 5.49 3.42 8.415 1.848 7.35 1.826 15.123 1.78 22.653-.063 10.803-.295 21.593-.81 32.385-.13 2.767-.242 5.527-.54 8.282-.108.988-1.508 3.836-.193 2.142-1.066 1.374 1.054-.5-.556.342 1.415-.74-1.06.136-1.17.162-2.212.507-4.51.715-6.756 1.007-4.065.53-6.256 5.632-5.304 9.186 1.164 4.343 5.132 5.83 9.186 5.303 5.138-.668 10.177-1.19 14.325-4.585 4.036-3.302 4.834-8.61 5.473-13.45 1.803-13.647 1.275-27.84 1.357-41.6.108-18.188-1.74-46.858-25.54-48.11-9.69-.512-9.727 14.496-.11 15z"/><path fill="#EA6D11" d="M208.193 110.653c1.4.267-1.582-.94-.233-.123-2.183-1.322.793 1.258-.382-.286 1.268 1.667 2.21 3.59 3.117 5.467 2.27 4.698 3.855 9.854 5.43 14.89 2.807 8.985 5.035 18.127 7.304 27.258 2.334 9.395 16.82 5.496 14.488-3.882-2.542-10.23-5.085-20.446-8.33-30.48-2.686-8.31-7.008-25.322-17.435-27.314-9.455-1.807-13.46 12.656-3.96 14.47zM275.67 162.668c4.795-8.746 3.934-19.85 4.306-29.492.516-13.408 1.16-26.813 1.365-40.23.205-13.3.444-26.6 1.837-39.84.663-6.303 1.8-12.536 3.232-18.707 1.384-5.97 4.766-12.65 4.766-18.802 0-9.687-15.004-9.772-15.004-.108 0 8.912 1.927 18.273 2.77 27.167.804 8.466 1.912 16.897 2.74 25.36 1.254 12.832 1.1 28.312 9.022 39.2 3.997 5.49 11.24 4.435 13.705-1.817 5.44-13.807 5.393-29.097 7.08-43.652.814-7.023 2.312-13.993 3.295-21 1.11-7.922 2.417-15.794 5.125-23.348l-14.48-.04c5.227 22.468 1.86 46.096 4.42 68.91 1.472 13.108 2.605 26.25 3.906 39.376.63 6.346 1.322 12.685 2.07 19.017.455 3.85 2.325 8.984 1.113 12.775-2.954 9.244 11.537 13.14 14.47 3.96 1.49-4.663.55-9.613-.176-14.328-.89-5.77-1.474-11.573-2.075-17.378-1.43-13.775-2.608-27.574-4.088-41.344-2.668-24.81.53-50.437-5.152-74.87-1.805-7.76-12.113-6.646-14.48-.04-2.512 7.013-3.803 14.283-4.88 21.633-1.145 7.81-2.58 15.584-3.655 23.4-1.972 14.354-1.577 29.3-6.965 42.968 4.568-.605 9.137-1.21 13.705-1.817-6.738-9.257-6.065-23-7.202-33.902-.865-8.29-1.89-16.556-2.676-24.855-.785-8.272-2.59-16.976-2.59-25.265 0-9.687-15.004-9.772-15.004-.108 0 2.098-1.65 5.483-2.233 7.616-.834 3.06-1.716 6.11-2.433 9.2-1.437 6.192-2.334 12.503-3.117 18.808-1.56 12.565-1.787 25.272-1.993 37.917-.208 12.746-.707 25.47-1.2 38.207-.22 5.68-.4 11.358-.596 17.037-.12 3.494-.203 7.763-1.92 10.896-4.65 8.476 8.33 15.994 12.99 7.498zM347.176 159.972c2.563-24.083 4.997-48.147 5.542-72.376.537-23.86 3.535-47.624 9.69-70.698-4.567.605-9.136 1.21-13.704 1.817 4.292 9.07 4.407 19.388 5.725 29.143 1.74 12.876 4.617 25.552 6.6 38.386 1.943 12.59 3.637 25.19 5.282 37.82.742 5.697 2.038 11.316 2.93 16.99.42 2.682.56 5.392.59 8.103-.007 1.07-.06 2.14-.16 3.206-.352 4.948-.8-.107 2.205-1.416-3.754 1.635-4.55 7.064-2.672 10.268 2.25 3.84 6.522 4.303 10.268 2.672 5.28-2.3 4.972-8.173 5.317-13.005.447-6.26-.837-12.746-1.927-18.88-2.474-13.917-4.028-27.958-6.157-41.934-2.153-14.135-5.103-28.126-7.25-42.26-1.918-12.61-2.25-24.935-7.81-36.69-2.862-6.044-12.135-4.07-13.706 1.818-6.324 23.706-9.374 48.178-10.172 72.673-.81 24.874-2.96 49.51-5.594 74.252-.433 4.07 3.666 7.53 7.448 7.556 4.393.03 7.12-3.384 7.554-7.446z"/><path fill="#EA6D11" d="M343.693 108.153c4.578 1.123 9.195 2 13.864 2.642 3.872.533 8.26 1.155 12.058-.132 9.113-3.09 5.29-17.598-3.882-14.49-.74.2-.708.248.1.147-.876.108-1.782.057-2.662.033-1.59-.042-3.19-.236-4.76-.474-3.616-.55-7.204-1.325-10.755-2.197-9.4-2.306-13.357 12.165-3.962 14.47zM401.17 162.168c9.082-19.17 6.446-42.704 6.526-63.314.104-26.828.517-54.713 6.713-80.956l-14.48-.04c6.952 22.52 7.433 46.218 11.127 69.344 2.03 12.707 3.047 25.563 4.272 38.364.6 6.28 1.365 12.54 1.992 18.813.56 5.602 1.114 10.63 3.38 15.834 2.712 6.223 12.14 3.905 13.706-1.817 6.438-23.515 5.804-48.026 7.157-72.16.72-12.783 1.197-25.595 1.262-38.398.033-6.445-.13-12.89-.455-19.325-.236-4.625.477-12.336-2.23-16.396-5.334-8.004-18.32-.477-12.938 7.595-1.63-2.443-.27 2.216-.21 2.952.258 3.19.417 6.388.558 9.585.257 5.802.293 11.613.264 17.42-.062 12.146-.51 24.333-1.25 36.457-1.398 22.86-.523 46.018-6.627 68.307 4.567-.605 9.136-1.21 13.704-1.817-1.724-3.957-1.433-9.273-1.92-13.492-.74-6.396-1.333-12.81-1.938-19.22-1.156-12.227-2.382-24.444-4.24-36.588-3.535-23.13-4.182-46.847-11.127-69.344-2.113-6.844-12.695-7.6-14.48-.04-2.797 11.848-4.14 24.375-5.326 36.48-1.32 13.47-1.698 27.025-1.862 40.554-.142 11.72.075 23.444-.136 35.162-.17 9.352-.353 19.914-4.437 28.534-4.117 8.688 8.84 16.256 12.99 7.502zM505.418 22.477c-1.988-7.272-3.832-15.23-12.97-15.84-8.837-.587-15.306 5.075-17.53 13.306-1.943 7.2-.746 14.96-.746 22.302 0 12.236.043 24.526.672 36.747.457 8.872 1.79 16.04 8.617 21.94 5.79 5.005 6.01 12.597 5.997 19.79-.012 7.834-1.473 15.604-1.334 23.426.035 1.947.064 3.882-.033 5.828-.055 1.074-1.398 2.983-.115 1.995-1.998 1.542-2.69-.627-2.8-2.997-.442-9.642-15.446-9.77-15.003-.108.39 8.506 5.77 18.738 15.555 18.715 10.643-.026 16.455-7.596 17.365-17.496.31-3.355-.098-6.748.084-10.11.22-4.11.742-8.21 1.02-12.32.592-8.776.637-18.293-2.637-26.593-1.52-3.85-3.647-7.076-6.63-9.958-1.188-1.148-2.508-2.152-3.717-3.28.357.62.3.535-.17-.257.496.82-.447-2.33-.402-2.105-1.06-5.426-.796-10.882-1.052-16.368-.3-6.37-.36-12.752-.398-19.128-.047-8.16-.814-16.608-.076-24.74a9.02 9.02 0 0 1 .953-3.274c-.215.414.234-.31 1.197-.38-1.863.133-2.334-3.316-1.42.14.408 1.54.664 3.112 1.086 4.65 2.55 9.328 17.04 5.45 14.488-3.883zM523.408 160.898c2.652-6.37 2.813-13.474 3.05-20.278.282-8.01.98-16.016 1.52-24.012 1.167-17.2 2.355-34.365 4.216-51.507 1.03-9.472 1.787-18.915 2.65-28.398.385-4.216.88-8.41 1.8-12.546.18-.806.405-1.6.64-2.39.396-1.337-.416.437.514-1.145-1.676 2.85 1.324-1.735.87-.953.855-1.478 1.01-3.044 1.01-4.696l-11.253 6.442c-.592-.374.158.403.73 1.534.71 1.402 1.127 3.54 1.535 5.217 1.016 4.155 1.568 8.426 2.15 12.66 1.49 10.82 2.957 21.7 4.883 32.45 2.45 13.675 4.322 27.1 5.035 40.995.357 6.95.518 13.908.662 20.863.078 3.783.143 7.565.215 11.348.03 1.54.05 3.08.092 4.62.104 3.978-1.14 2.27 2.648-.65-3.234 2.495-4.938 6.402-2.672 10.268 1.87 3.19 7.023 5.173 10.268 2.672 5.59-4.31 4.796-10.39 4.667-16.8-.162-8.21-.29-16.418-.56-24.624-.544-16.425-1.89-32.86-5.16-48.986-2.558-12.613-4.112-25.49-5.892-38.234-1.268-9.073-2.63-20.962-11.102-26.32-4.803-3.037-11.252.956-11.252 6.44v1l2.17-5.22c-5.98 4.83-6.063 16.926-6.786 23.76-.943 8.934-1.445 17.886-2.447 26.82-1.848 16.477-3.12 32.965-4.24 49.505-.568 8.378-1.137 16.756-1.695 25.135-.477 7.126.066 14.348-2.734 21.074-1.574 3.784 1.69 8.235 5.256 9.215 4.32 1.185 7.646-1.49 9.214-5.257z"/><path fill="#EA6D11" d="M526.97 109.388c2.872-1.362 10.778.6 14.724 1.266 4.03.68 8.053-1.025 9.215-5.255 1-3.644-1.224-8.536-5.255-9.217-8.64-1.46-17.996-3.664-26.28.266-3.694 1.753-4.6 6.976-2.67 10.267 2.2 3.753 6.576 4.42 10.266 2.67zM573.408 162.398c4.838-28.482 7.643-56.896 9.69-85.69.825-11.605 2.1-23.17 2.784-34.782.268-4.58.58-9.153 1.496-13.654.914-4.493 3.89-8.06 3.297-12.8l-11.252 6.44c-.633-.39-.805-.888-.352-.167.85 1.343.435.667.814 1.713 1.023 2.82 1.588 5.816 2.12 8.76 1.09 6.027 1.556 12.16 2.083 18.256 1.498 17.336 6.703 34.054 8.084 51.39.634 7.95 13.034 10.918 14.737 2.035 2.822-14.715 5.086-29.52 7.055-44.37 1.957-14.772 5.52-29.622 5.713-44.557L604.93 16.86c4.425 11.28 3.942 23.63 4.472 35.536.62 13.99 1.926 28.06 3.762 41.94 1.875 14.184 3.633 28.368 5.064 42.602.36 3.563.426 7.17.537 10.746.064 2.07.1 4.14.113 6.212.004.764-.006 1.528-.023 2.292-.047 2.294-.727.125.822-2.02-2.398 3.318-.523 8.358 2.746 10.245 3.81 2.2 7.852.565 10.244-2.745 1.76-2.435 1.23-6.73 1.197-9.562-.05-4.26-.21-8.523-.463-12.777-.854-14.45-2.91-29.034-4.983-43.353-2.082-14.376-3.27-28.97-4.014-43.474-.674-13.165-.088-27.045-4.986-39.526-2.955-7.528-14.63-7.12-14.746 1.887-.185 14.316-3.653 28.53-5.47 42.7a690.468 690.468 0 0 1-6.764 42.374l14.738 2.035c-.955-11.98-3.44-23.688-5.816-35.446-.508-2.51-.982-5.028-1.44-7.55-.34-1.86-.003.376-.245-1.934-.336-3.212-.578-6.435-.86-9.652-.66-7.435-1.42-14.91-2.933-22.227-1.254-6.07-3.412-12.804-8.957-16.24-4.373-2.707-11.963.75-11.252 6.442.077 1.978.245 2 .51.067-.69 1.055-1.16 2.362-1.626 3.51-.707 1.754-1.22 3.53-1.646 5.37-1.125 4.86-1.512 9.937-1.863 14.9-.797 11.19-1.824 22.355-2.668 33.545-2.174 28.785-4.6 57.19-9.44 85.682-1.607 9.462 12.854 13.485 14.47 3.958z"/></svg>