<?xml version="1.0" encoding="utf-8"?>
<!-- Generator: Adobe Illustrator 15.1.0, SVG Export Plug-In . SVG Version: 6.00 Build 0)  -->
<!DOCTYPE svg PUBLIC "-//W3C//DTD SVG 1.1//EN" "http://www.w3.org/Graphics/SVG/1.1/DTD/svg11.dtd">
<svg version="1.1" id="Layer_1" xmlns="http://www.w3.org/2000/svg" xmlns:xlink="http://www.w3.org/1999/xlink" x="0px" y="0px"
	 width="209px" height="193px" viewBox="0 0 209 193" enable-background="new 0 0 209 193" xml:space="preserve">
<g>
	<g>
		<path fill="#E8D5C7" d="M31.667,166.275c4.513-3.799,8.365-8.446,13.211-11.83c5.534-3.864,12.123-3.997,18.625-3.527
			c14.483,1.044,28.33,7.985,42.055,12.193c14.023,4.3,28.861,7.061,43.547,5.455c7.769-0.849,14.94-2.998,22.106-6.059
			c5.897-2.519,12.91-6.078,16.284-11.758c4.947-8.328-8.05-15.817-12.99-7.5c-0.984,1.657-4.27,2.929-5.933,3.867
			c-3.1,1.75-6.354,3.069-9.725,4.188c-6.908,2.293-14.059,2.916-21.294,2.71c-14.736-0.419-29.163-5.47-42.926-10.329
			c-13.119-4.632-26.752-9.042-40.861-7.7c-6.929,0.659-13.196,2.962-18.751,7.169c-5.023,3.805-9.205,8.521-14.014,12.57
			C13.607,161.95,24.315,172.466,31.667,166.275L31.667,166.275z"/>
	</g>
</g>
<g>
	<g>
		<path fill="#E8D5C7" d="M148.912,149.725c-2.603-18.374-7.764-36.216-11.432-54.378c-3.86-19.11-5.921-38.532-9.901-57.621
			c-1.387-6.653-10.518-7.112-13.739-1.809C95.176,66.635,93.431,103.7,81.766,137.02c-3.206,9.157,11.295,13.03,14.471,3.961
			c11.212-32.027,12.68-68.079,30.594-97.564c-4.58-0.603-9.16-1.206-13.739-1.809c3.846,18.442,6.004,37.178,9.521,55.68
			c3.583,18.857,9.115,37.285,11.813,56.32c0.574,4.058,5.598,6.265,9.186,5.303C147.919,157.756,149.485,153.771,148.912,149.725
			L148.912,149.725z"/>
	</g>
</g>
<g>
	<g>
		<path fill="#E8D5C7" d="M121.865,84.798c6.998,11.169,12.95,22.635,21.418,32.833c8.901,10.72,19.634,19.934,27.915,31.167
			c2.424,3.287,6.46,4.903,10.268,2.672c3.248-1.904,5.102-6.972,2.672-10.268c-8.042-10.908-17.872-20.249-26.9-30.31
			c-9.18-10.23-15.191-22.133-22.433-33.69C129.685,69.031,116.716,76.579,121.865,84.798L121.865,84.798z"/>
	</g>
</g>
</svg>
